<?xml version="1.0" encoding="utf-8"?>
<!-- Generator: Adobe Illustrator 16.0.3, SVG Export Plug-In . SVG Version: 6.00 Build 0)  -->
<!DOCTYPE svg PUBLIC "-//W3C//DTD SVG 1.1 Tiny//EN" "http://www.w3.org/Graphics/SVG/1.1/DTD/svg11-tiny.dtd">
<svg version="1.1" baseProfile="tiny" id="icon-3_xA0_Image_1_"
	 xmlns="http://www.w3.org/2000/svg" xmlns:xlink="http://www.w3.org/1999/xlink" x="0px" y="0px" width="101px" height="103px"
	 viewBox="0 0 101 103" xml:space="preserve">
<g>
	<path fill-rule="evenodd" fill="#070707" d="M3.984,47.926c0-12.483,0.106-24.969-0.069-37.449C3.867,7.034,4.81,5.775,8.4,5.926
		c12.65,0.532,25.43,0.746,37.164,6.004c4.457,1.997,7.5,1.873,11.909-0.042c12.264-5.325,25.514-5.653,38.68-5.907
		c3.565-0.069,2.842,2.516,2.846,4.55c0.032,14.98,0.018,29.961,0.018,44.94c0,9.82-0.174,19.646,0.088,29.459
		c0.102,3.825-1.279,4.866-4.857,4.857c-11.01-0.026-21.948,0.856-32.527,4.185c-3.43,1.079-7.092,1.933-8.784,5.854
		c-0.727,1.683-2.174,1.658-2.908-0.025c-1.701-3.906-5.366-4.755-8.799-5.836c-10.417-3.28-21.188-4.252-32.028-4.145
		c-4.178,0.041-5.394-1.311-5.306-5.445C4.149,72.23,3.984,60.076,3.984,47.926z M7.404,47.83c0,10.997,0.176,21.999-0.093,32.99
		c-0.097,3.972,0.749,5.328,5.066,5.477c11.304,0.387,22.697,1.094,33.27,5.66c3.881,1.676,4.259,0.633,4.239-2.968
		c-0.124-21.661-0.279-43.327,0.087-64.982c0.096-5.65-2.247-8.193-7.031-9.747C32.37,10.826,21.445,9.968,10.439,9.509
		c-3.064-0.128-3.053,1.671-3.047,3.829C7.423,24.835,7.407,36.332,7.404,47.83z M53.18,93.639
		c12.495-5.927,25.113-6.891,37.73-7.347c4.201-0.152,4.783-1.632,4.756-5.257c-0.147-20.161-0.07-40.324-0.07-60.487
		c0-11.128-0.004-11.199-11.307-10.561c-9.003,0.509-17.904,1.747-26.324,5.187c-2.438,0.996-4.828,2.16-4.819,5.6
		C53.21,44.756,53.18,68.739,53.18,93.639z"/>
	<path fill-rule="evenodd" fill="#070707" d="M30.432,55.064c3.818,0,7.636-0.023,11.454,0.013c1.268,0.012,2.908-0.313,3.075,1.606
		c0.167,1.92-1.363,2.006-2.718,2.01c-8.134,0.022-16.268,0.026-24.402-0.001c-1.308-0.004-2.899,0.063-2.824-1.898
		c0.075-1.947,1.681-1.709,2.965-1.718C22.132,55.046,26.282,55.064,30.432,55.064z"/>
	<path fill-rule="evenodd" fill="#070707" d="M29.988,40.025c3.983,0,7.967-0.028,11.95,0.018c1.243,0.014,2.903-0.38,3.027,1.61
		c0.122,1.97-1.463,1.94-2.773,1.945c-8.133,0.031-16.266,0.032-24.399,0c-1.31-0.006-2.891,0.014-2.776-1.95
		c0.118-2.003,1.782-1.591,3.021-1.605C22.021,39.997,26.004,40.025,29.988,40.025z"/>
	<path fill-rule="evenodd" fill="#070707" d="M29.499,34.121c-3.804,0-7.609,0.037-11.412-0.021
		c-1.214-0.02-2.929,0.453-3.071-1.518c-0.147-2.032,1.548-1.793,2.806-1.798c8.104-0.032,16.209-0.033,24.313,0.001
		c1.248,0.006,2.962-0.263,2.83,1.774c-0.128,1.962-1.838,1.525-3.061,1.541C37.769,34.154,33.634,34.121,29.499,34.121z"/>
	<path fill-rule="evenodd" fill="#070707" d="M74.528,40.026c3.987-0.001,7.974-0.003,11.961,0.001
		c1.323,0.001,2.921-0.196,2.879,1.762c-0.04,1.854-1.594,1.827-2.94,1.828c-8.141,0.007-16.28-0.002-24.42-0.004
		c-1.225-0.001-2.533-0.173-2.66-1.612c-0.165-1.88,1.332-1.971,2.721-1.972C66.222,40.026,70.375,40.028,74.528,40.026z"/>
	<path fill-rule="evenodd" fill="#070707" d="M73.943,58.702c-3.992-0.001-7.984-0.012-11.977,0.005
		c-1.256,0.006-2.515-0.227-2.619-1.653c-0.135-1.847,1.34-1.986,2.739-1.986c8.317,0,16.634,0.01,24.95-0.003
		c1.311-0.002,2.4,0.326,2.347,1.848c-0.052,1.494-1.176,1.802-2.466,1.797C82.593,58.693,78.268,58.703,73.943,58.702z"/>
	<path fill-rule="evenodd" fill="#070707" d="M74.046,34.118c-3.997-0.001-7.993,0.009-11.989-0.007
		c-1.16-0.004-2.594,0.086-2.713-1.473c-0.15-1.992,1.525-1.849,2.813-1.854c8.159-0.029,16.318-0.02,24.477-0.006
		c1.156,0.002,2.584-0.079,2.691,1.486c0.135,1.958-1.47,1.841-2.791,1.847C82.371,34.129,78.209,34.118,74.046,34.118z"/>
</g>
</svg>
