<svg width="159" height="160" viewBox="0 0 159 160" fill="none" xmlns="http://www.w3.org/2000/svg">
<circle cx="79.4996" cy="79.5173" r="78.4996" stroke="white" stroke-width="2"/>
<g clip-path="url(#clip0)">
<path d="M87.7533 105.797C78.3207 110.814 67.3788 109.918 58.1348 105.08C46.6269 98.9883 42.6652 89.1337 44.5518 76.9498C45.8723 69.4245 47.9475 60.645 51.9092 54.1947C57.5688 45.236 67.7561 42.5484 78.132 42.19C104.166 41.4733 108.317 65.3035 105.109 84.6543C104.166 90.0295 103.412 93.4339 106.241 98.2716C110.392 105.259 116.051 111.71 121.334 117.802C122.277 116.368 123.22 114.756 124.163 113.322C117.183 112.247 110.58 110.635 103.978 107.947C100.582 106.514 97.7519 111.172 101.148 112.606C108.128 115.472 115.108 117.443 122.654 118.697C125.484 119.056 127.182 116.368 125.484 114.218C121.145 109.022 113.976 102.034 111.335 95.7631C108.882 89.6712 111.712 82.3251 112.09 76.054C112.656 66.3785 111.146 56.1656 104.921 48.1028C93.6016 33.7688 67.3788 32.873 53.4185 44.1609C46.061 50.0737 43.0425 59.5699 40.7787 68.1703C38.3262 77.3082 36.6283 87.5211 41.156 96.4798C49.834 112.964 74.1703 119.235 90.5831 110.455C93.7902 108.664 90.9604 104.005 87.7533 105.797Z" fill="white"/>
</g>
<defs>
<clipPath id="clip0">
<rect width="87.7237" height="82.241" fill="white" transform="translate(38.3257 36.4586)"/>
</clipPath>
</defs>
</svg>
