<?xml version="1.0" encoding="utf-8"?>
<!-- Generator: Adobe Illustrator 16.0.3, SVG Export Plug-In . SVG Version: 6.00 Build 0)  -->
<!DOCTYPE svg PUBLIC "-//W3C//DTD SVG 1.1 Tiny//EN" "http://www.w3.org/Graphics/SVG/1.1/DTD/svg11-tiny.dtd">
<svg version="1.1" baseProfile="tiny" id="Layer_0_xA0_Image_1_"
	 xmlns="http://www.w3.org/2000/svg" xmlns:xlink="http://www.w3.org/1999/xlink" x="0px" y="0px" width="152px" height="152px"
	 viewBox="0 0 152 152" xml:space="preserve">
<g>
	
	<path fill-rule="evenodd" fill="#FFFFFF" d="M44.412,90.183c6.142,5.534,11.203,10.094,16.577,14.937
		c16.72-9.578,31.489-21.01,40.439-38.701c1.571-3.105,1.184-4.872-1.646-6.993c-3.3-2.474-6.273-5.486-8.988-8.612
		c-4.115-4.739-4.527-7.771-0.179-12.297c8.038-8.363,16.741-16.088,24.844-23.77c16.792,8.019,24.222,24.319,18.894,41.987
		c-2.316,7.685-6.105,15.148-10.402,21.97c-14.117,22.411-33.174,39.842-56.183,52.856c-9.862,5.578-20.359,9.207-32,6.661
		c-10.696-2.34-17.908-9.016-22.842-18.511c-2.243-4.316-0.233-7.832,2.891-10.085C25.191,102.863,34.915,96.587,44.412,90.183z
		 M60.518,109.336c-4.751-4.292-9.012-8.259-13.432-12.04c-0.958-0.82-2.974-1.751-3.684-1.311
		c-8.719,5.407-17.396,10.904-25.773,16.816c-1.247,0.88-1.9,4.521-1.134,6.017c4.466,8.709,11.317,14.682,21.322,16.317
		c10.444,1.707,19.767-1.72,28.563-6.729c22.681-12.915,41.392-30.197,55.226-52.367c4.086-6.547,7.457-13.81,9.684-21.188
		c4.035-13.37-0.639-25.716-11.311-33.661c-1.949-1.451-3.451-2.182-5.592-0.237c-6.029,5.479-12.488,10.512-18.259,16.243
		c-6.638,6.593-6.401,8.061,0.093,14.521c1.768,1.759,3.615,3.45,5.535,5.042c5.727,4.749,5.861,4.781,2.369,11.726
		C94.654,87.322,78.635,99.185,60.518,109.336z"/>
</g>
</svg>
