<?xml version="1.0" encoding="utf-8"?>
<!-- Generator: Adobe Illustrator 16.0.3, SVG Export Plug-In . SVG Version: 6.00 Build 0)  -->
<!DOCTYPE svg PUBLIC "-//W3C//DTD SVG 1.1 Tiny//EN" "http://www.w3.org/Graphics/SVG/1.1/DTD/svg11-tiny.dtd">
<svg version="1.1" baseProfile="tiny" id="Layer_0_copy_xA0_Image_1_"
	 xmlns="http://www.w3.org/2000/svg" xmlns:xlink="http://www.w3.org/1999/xlink" x="0px" y="0px" width="101px" height="103px"
	 viewBox="0 0 101 103" xml:space="preserve">
<g>					
	<path fill-rule="evenodd" fill="#0E0E0E" d="M3.974,45.083C3.939,25.994,13.977,11.939,28.95,6.904
		C44.403,1.708,61.127,7.006,70.74,20.142c9.328,12.746,9.57,30.036,0.054,42.896c-2.374,3.209-1.774,4.64,0.701,7.036
		c8.38,8.108,16.59,16.396,24.749,24.728c1.173,1.197,4.281,2.424,1.971,4.631c-1.916,1.83-3.15-0.916-4.295-2.043
		c-8.549-8.414-17.078-16.852-25.436-25.455c-2.08-2.14-3.248-2.412-5.875-0.513C50.479,80.189,37.284,81.403,24,74.63
		C10.874,67.938,4.504,56.558,3.974,45.083z M74.1,41.814C74.076,23.309,59.289,8.53,40.821,8.559
		C22.343,8.587,7.542,23.425,7.576,41.887C7.61,60.397,22.362,75.1,40.892,75.09C59.389,75.08,74.122,60.316,74.1,41.814z"/>
	<path fill-rule="evenodd" fill="#0E0E0E" d="M13.037,39.435C12.931,27.593,26.25,14.191,38.278,14.072
		c1.042-0.01,2.457-0.556,2.651,1.288c0.189,1.791-0.903,2.189-2.394,2.408c-12.562,1.847-19.85,9.047-21.767,21.618
		c-0.212,1.391-0.379,2.644-2.267,2.565C12.599,41.874,13.153,40.485,13.037,39.435z"/>
</g>
</svg>
