<?xml version="1.0" encoding="utf-8"?>
<!-- Generator: Adobe Illustrator 16.0.3, SVG Export Plug-In . SVG Version: 6.00 Build 0)  -->
<!DOCTYPE svg PUBLIC "-//W3C//DTD SVG 1.1 Tiny//EN" "http://www.w3.org/Graphics/SVG/1.1/DTD/svg11-tiny.dtd">
<svg version="1.1" baseProfile="tiny" id="icon-2_xA0_Image_1_"
	 xmlns="http://www.w3.org/2000/svg" xmlns:xlink="http://www.w3.org/1999/xlink" x="0px" y="0px" width="101px" height="103px"
	 viewBox="0 0 101 103" xml:space="preserve">
<g>
	<path fill-rule="evenodd" fill="#242526" d="M51.643,5.991c12.658,0,25.318-0.022,37.978,0.01c6.805,0.017,9.364,2.543,9.377,9.31
		c0.034,17.823,0.032,35.646,0.001,53.469c-0.012,6.791-2.515,9.223-9.367,9.3c-1.166,0.014-2.348,0.128-3.495-0.021
		c-3.161-0.41-4.464,0.655-4.266,4.061c0.28,4.814,0.091,9.657,0.056,14.487c-0.01,1.451,0.482,3.271-1.169,4.052
		c-1.769,0.836-2.65-0.942-3.647-1.928c-5.926-5.852-11.904-11.657-17.633-17.697c-2.148-2.267-4.368-3.049-7.426-3.014
		c-12.991,0.148-25.984,0.097-38.977,0.048c-6.503-0.024-9.057-2.584-9.07-9.081c-0.037-17.99-0.039-35.979,0.001-53.969
		c0.014-6.415,2.653-8.993,9.159-9.014C25.99,5.964,38.816,5.991,51.643,5.991z M76.951,94.041c0.446-0.176,0.894-0.352,1.341-0.527
		c0-2.772,0-5.545,0-8.318c0-10.305,0-10.305,10.144-10.422c6.168-0.071,7.158-1.034,7.168-7.351
		c0.028-16.979,0.031-33.96-0.002-50.939c-0.013-6.061-0.99-7.076-6.885-7.084c-24.804-0.03-49.608-0.03-74.412,0
		c-5.923,0.007-6.896,1.014-6.907,7.05c-0.032,16.979-0.028,33.96-0.004,50.939c0.009,6.478,0.947,7.369,7.626,7.38
		c12.985,0.02,25.97,0.076,38.954-0.049c2.878-0.027,5.017,0.726,7.012,2.863C66.197,83.171,71.615,88.568,76.951,94.041z"/>
	<path fill-rule="evenodd" fill="#242526" d="M43.919,41.814c0.115-4.124,3.276-7.135,7.44-7.084
		c4.033,0.049,7.34,3.337,7.344,7.301c0.003,4.171-3.584,7.543-7.816,7.348C46.758,49.188,43.804,45.981,43.919,41.814z
		 M55.098,42.126c-0.117-2.423-1.447-3.847-3.707-3.974c-2.331-0.131-3.89,1.397-4.02,3.604c-0.145,2.473,1.338,4.181,3.942,4.152
		C53.63,45.885,54.896,44.415,55.098,42.126z"/>
	<path fill-rule="evenodd" fill="#242526" d="M68.722,34.735c4.138,0.029,7.271,3.136,7.31,7.248
		c0.041,4.281-3.367,7.571-7.67,7.404c-3.987-0.154-7.27-3.604-7.16-7.523C61.313,37.889,64.67,34.706,68.722,34.735z
		 M72.607,42.206c-0.191-2.182-1.268-3.822-3.572-4.032c-2.293-0.208-3.867,1.064-4.113,3.394c-0.273,2.577,1.098,4.202,3.66,4.345
		C70.948,46.044,72.132,44.459,72.607,42.206z"/>
	<path fill-rule="evenodd" fill="#242526" d="M41.125,42.281c-0.111,4.119-3.295,7.173-7.421,7.115
		c-4.045-0.056-7.315-3.327-7.328-7.333c-0.013-4.21,3.491-7.502,7.788-7.316C38.314,34.927,41.238,38.091,41.125,42.281z
		 M33.712,38.062c-2.163,0.419-3.693,1.52-3.712,3.854c-0.021,2.542,1.444,4.012,3.947,3.991c2.291-0.018,3.704-1.563,3.752-3.74
		C37.753,39.707,36.149,38.367,33.712,38.062z"/>s
</g>
</svg>
