<?xml version="1.0" encoding="utf-8"?>
<!-- Generator: Adobe Illustrator 16.0.3, SVG Export Plug-In . SVG Version: 6.00 Build 0)  -->
<!DOCTYPE svg PUBLIC "-//W3C//DTD SVG 1.1 Tiny//EN" "http://www.w3.org/Graphics/SVG/1.1/DTD/svg11-tiny.dtd">
<svg version="1.1" baseProfile="tiny" id="Layer_0_xA0_Image_1_"
	 xmlns="http://www.w3.org/2000/svg" xmlns:xlink="http://www.w3.org/1999/xlink" x="0px" y="0px" width="127px" height="128px"
	 viewBox="0 0 127 128" xml:space="preserve">
<g>
	<path fill-rule="evenodd" fill="#FFFFFF" d="M51.039,93.161c18.11-10.589,33.733-22.86,42.05-42.517
		c-3.641-3.344-7.216-6.327-10.438-9.652c-6.426-6.629-6.812-10.012-0.409-16.542c7.54-7.689,15.827-14.645,23.511-21.664
		c16.772,8.557,23.915,24.442,18.566,42.074c-2.283,7.527-5.971,14.844-10.168,21.535c-14.17,22.588-33.327,40.146-56.499,53.228
		c-10.025,5.66-20.709,9.287-32.501,6.465c-10.431-2.495-17.779-9.005-22.062-18.596c-0.958-2.146-0.298-6.238,1.241-8.069
		c7.91-9.408,18.962-14.401,29.762-19.589c0.825-0.396,2.699,0.602,3.67,1.435C42.174,85.053,46.438,89.01,51.039,93.161z
		 M50.54,97.323c-4.576-4.122-8.958-8.188-13.501-12.065c-0.952-0.813-2.974-1.699-3.694-1.252
		c-8.713,5.416-17.384,10.922-25.756,16.842c-1.233,0.872-1.842,4.521-1.068,6.024c4.483,8.7,11.344,14.659,21.355,16.272
		c10.445,1.683,19.76-1.755,28.555-6.769c22.676-12.924,41.383-30.208,55.204-52.388c4.082-6.55,7.454-13.813,9.672-21.194
		c4.016-13.361-0.621-25.838-11.467-33.512c-1.213-0.857-4.025-1.204-4.96-0.425c-6.892,5.741-13.769,11.555-20.103,17.894
		c-5.039,5.043-4.688,6.691,0.438,11.938c2.206,2.257,4.348,4.824,7.037,6.309c5.194,2.865,4.503,6.339,2.351,10.677
		C85.057,74.91,68.895,87.041,50.54,97.323z"/>
</g>
</svg>
