
<!DOCTYPE svg PUBLIC "-//W3C//DTD SVG 1.1 Tiny//EN" "http://www.w3.org/Graphics/SVG/1.1/DTD/svg11-tiny.dtd">
<svg version="1.1" baseProfile="tiny" id="logo_svg" xmlns="http://www.w3.org/2000/svg" xmlns:xlink="http://www.w3.org/1999/xlink"
	 x="0px" y="0px" width="612px" height="792px" viewBox="0 0 612 792" xml:space="preserve">
<g>
	<path fill-rule="evenodd" fill="#ffffff" d="M78,192c11.781,4.946,14.139,8.539,14.14,21.549c0,51.83,0,103.659,0,155.489
		c0,1.776,0,3.553,0,6.418c5.825-4.392,10.857-8.078,15.776-11.91c28.247-22.007,60.419-32.159,95.838-28.188
		c53.222,5.966,90.422,34.644,111.368,83.952c6.649,15.652,9.272,32.217,9.122,49.271c-0.406,46.325,34.408,88.102,80.149,96.416
		c55.481,10.085,107.14-26.366,116.354-82.104c8.957-54.177-30.619-106.835-85.232-113.014
		c-37.721-4.268-68.165,9.229-91.724,38.753c-0.724,0.908-1.464,1.803-2.215,2.688c-0.086,0.102-0.286,0.105-0.896,0.31
		c-4.172-10.796-9.628-21.013-15.434-31.05c-1.385-2.394,0.381-3.686,1.756-5.104c19.47-20.103,42.864-33.303,70.376-38.345
		c40.2-7.366,76.683,1.551,109.073,26.689c4.803,3.728,9.716,7.315,14.736,11.087c1.175-2.312,0.705-4.15,0.707-5.905
		c0.031-51.33,0.26-102.662-0.162-153.988c-0.09-10.941,2.847-18.787,13.266-23.014c2.333,0,4.667,0,7,0
		c8.302,3.258,14.156,8.197,14.147,18.162c-0.081,86.482,0.141,172.965-0.151,259.446c-0.12,35.819-13.273,66.893-38.638,92.004
		c-32.749,32.424-72.465,44.555-118.07,37.401c-54.823-8.6-101.987-57.891-108.463-113.025c-1.172-9.973-0.297-19.954-1.57-29.891
		c-7.027-54.844-55.814-93.027-110.419-86.296c-54.863,6.763-94.091,57.207-85.499,111.718
		c6.678,42.366,31.502,70.768,72.966,81.729c40.278,10.648,74.486-1.869,101.697-33.422c1.644-1.905,2.678-4.471,5.42-5.883
		c4.032,10.859,9.154,20.759,15.027,30.247c1.664,2.688,0.644,4.092-1.175,5.911c-31.918,31.927-70.395,45.826-115.046,39.534
		c-66.565-9.38-114.264-65.463-114.271-132.8c-0.01-84.649-0.002-169.299-0.002-253.948c0-1.167-0.015-2.333,0.008-3.499
		c0.133-6.741,3.129-11.764,9.027-15.057c1.115-0.623,2.646-0.734,3.013-2.332C72.667,192,75.333,192,78,192z"/>
</g>
</svg>
