<svg width="25" height="20" viewBox="0 0 25 20" fill="none" xmlns="http://www.w3.org/2000/svg">
<path d="M1 1H4.78824L7.9 13.7345H21.0912L24 4.39159L5.78039 4.51957" stroke="#A36DE9" stroke-miterlimit="10" stroke-linecap="round" stroke-linejoin="round"/>
<path d="M10.0574 19.4998C10.945 19.4998 11.7125 18.8125 11.7125 17.9071C11.7125 17.0017 10.945 16.3145 10.0574 16.3145C9.16987 16.3145 8.40234 17.0017 8.40234 17.9071C8.40234 18.8125 9.16987 19.4998 10.0574 19.4998Z" stroke="#A36DE9" stroke-miterlimit="10" stroke-linecap="round" stroke-linejoin="round"/>
<path d="M18.9153 19.4998C19.8029 19.4998 20.5704 18.8125 20.5704 17.9071C20.5704 17.0017 19.8029 16.3145 18.9153 16.3145C18.0278 16.3145 17.2603 17.0017 17.2603 17.9071C17.2603 18.8125 18.0278 19.4998 18.9153 19.4998Z" stroke="#A36DE9" stroke-miterlimit="10" stroke-linecap="round" stroke-linejoin="round"/>
</svg>
