<svg width="30" height="30" viewBox="0 0 30 30" fill="none" xmlns="http://www.w3.org/2000/svg">
<path fill-rule="evenodd" clip-rule="evenodd" d="M8.81625 0.090625C10.4162 0.0178125 10.9275 0 15.0012 0H14.9966C19.0716 0 19.5809 0.0178125 21.1809 0.090625C22.7778 0.16375 23.8684 0.416562 24.8247 0.7875C25.8122 1.17031 26.6466 1.68281 27.4809 2.51719C28.3153 3.35094 28.8278 4.18781 29.2122 5.17437C29.5809 6.12812 29.8341 7.21812 29.9091 8.815C29.9809 10.415 29.9997 10.9262 29.9997 15C29.9997 19.0737 29.9809 19.5837 29.9091 21.1837C29.8341 22.78 29.5809 23.8703 29.2122 24.8244C28.8278 25.8106 28.3153 26.6475 27.4809 27.4812C26.6475 28.3156 25.8119 28.8294 24.8256 29.2125C23.8712 29.5834 22.78 29.8362 21.1831 29.9094C19.5831 29.9822 19.0734 30 14.9994 30C10.9259 30 10.415 29.9822 8.815 29.9094C7.21844 29.8362 6.12812 29.5834 5.17375 29.2125C4.18781 28.8294 3.35094 28.3156 2.5175 27.4812C1.68344 26.6475 1.17094 25.8106 0.7875 24.8241C0.416875 23.8703 0.164062 22.7803 0.090625 21.1834C0.018125 19.5834 0 19.0737 0 15C0 10.9262 0.01875 10.4147 0.0903125 8.81469C0.162187 7.21844 0.415312 6.12812 0.787187 5.17406C1.17156 4.18781 1.68406 3.35094 2.51844 2.51719C3.35219 1.68312 4.18906 1.17062 5.17562 0.7875C6.12937 0.416562 7.21937 0.16375 8.81625 0.090625ZM9.93043 2.77386C11.2421 2.71415 11.6613 2.69954 15.001 2.69954H14.9971C18.3379 2.69954 18.7555 2.71415 20.0672 2.77386C21.3763 2.83382 22.2704 3.04114 23.0544 3.34532C23.8639 3.65924 24.548 4.07951 25.232 4.76374C25.916 5.44744 26.3362 6.13372 26.6513 6.94274C26.9536 7.72485 27.1611 8.61869 27.2226 9.9282C27.2815 11.2403 27.2969 11.6595 27.2969 15.0001C27.2969 18.3408 27.2815 18.759 27.2226 20.0711C27.1611 21.3801 26.9536 22.2742 26.6513 23.0565C26.3362 23.8653 25.916 24.5516 25.232 25.2353C24.5487 25.9195 23.8637 26.3408 23.0551 26.655C22.2727 26.9592 21.3781 27.1665 20.069 27.2264C18.7573 27.2861 18.3394 27.3008 14.9994 27.3008C11.66 27.3008 11.2411 27.2861 9.9294 27.2264C8.62052 27.1665 7.72667 26.9592 6.94426 26.655C6.13597 26.3408 5.44989 25.9195 4.76663 25.2353C4.08285 24.5516 3.6627 23.8653 3.34835 23.0563C3.0445 22.2742 2.83725 21.3803 2.77704 20.0708C2.7176 18.7587 2.70274 18.3408 2.70274 15.0001C2.70274 11.6595 2.71812 11.24 2.77678 9.92794C2.83571 8.61895 3.04322 7.72485 3.34809 6.94248C3.66321 6.13372 4.08336 5.44744 4.76739 4.76374C5.45091 4.07977 6.137 3.6595 6.94579 3.34532C7.72769 3.04114 8.62129 2.83382 9.93043 2.77386Z" fill="#EAEAEA"/>
<path d="M23.008 5.19337C22.0143 5.19337 21.208 5.99869 21.208 6.99275C21.208 7.9865 22.0143 8.79275 23.008 8.79275C24.0018 8.79275 24.808 7.9865 24.808 6.99275C24.808 5.999 24.0018 5.19275 23.008 5.19275V5.19337Z" fill="#EAEAEA"/>
<path fill-rule="evenodd" clip-rule="evenodd" d="M7.29712 15.0001C7.29712 10.7461 10.7462 7.297 15.0002 7.297H14.9999C19.254 7.297 22.7021 10.7461 22.7021 15.0001C22.7021 19.2542 19.2543 22.7017 15.0002 22.7017C10.7462 22.7017 7.29712 19.2542 7.29712 15.0001ZM20.0013 14.9996C20.0013 12.238 17.7625 9.99957 15.0013 9.99957C12.2397 9.99957 10.0013 12.238 10.0013 14.9996C10.0013 17.7608 12.2397 19.9996 15.0013 19.9996C17.7625 19.9996 20.0013 17.7608 20.0013 14.9996Z" fill="#EAEAEA"/>
</svg>
