<svg width="12" height="15" viewBox="0 0 12 15" fill="none" xmlns="http://www.w3.org/2000/svg">
<path d="M11.0732 13.9443V15H0.988281V13.9443H1.98779C2.31722 13.862 2.57178 13.5026 2.75146 12.8662C2.88623 12.387 2.94613 11.863 2.93115 11.2939L2.84131 8.4751H0.943359V7.43066H2.79639L2.70654 4.49951C2.70654 3.14437 3.07715 2.06999 3.81836 1.27637C4.55957 0.482747 5.54785 0.0859375 6.7832 0.0859375C8.02604 0.0859375 9.00309 0.437826 9.71436 1.1416C10.4256 1.84538 10.7812 2.79997 10.7812 4.00537H9.5459C9.5459 3.09945 9.29508 2.39567 8.79346 1.89404C8.29183 1.39242 7.60677 1.1416 6.73828 1.1416C5.87728 1.1416 5.19971 1.44108 4.70557 2.04004C4.21143 2.63151 3.96436 3.45133 3.96436 4.49951L4.0542 7.43066H7.53564V8.4751L4.09912 8.46387L4.18896 11.2715C4.20394 12.4544 3.98682 13.3454 3.5376 13.9443H11.0732Z" fill="#A36DE9"/>
</svg>
