<svg width="265" height="54" viewBox="0 0 265 54" fill="none" xmlns="http://www.w3.org/2000/svg">
<path d="M252.75 19.6719H250.109V24.5156H248.734V12.7188H252.359C253.755 12.7188 254.818 13.0104 255.547 13.5938C256.286 14.1771 256.656 15.0677 256.656 16.2656C256.656 17.4635 255.995 18.3698 254.672 18.9844C255.87 19.4115 256.469 20.3958 256.469 21.9375C256.469 23.1042 256.547 23.8854 256.703 24.2812V24.5H255.266C255.141 24.1771 255.078 23.3281 255.078 21.9531C255.078 21.1198 254.901 20.5312 254.547 20.1875C254.203 19.8438 253.604 19.6719 252.75 19.6719ZM250.109 13.9844V18.3906H252.656C253.427 18.3906 254.052 18.1927 254.531 17.7969C255.021 17.401 255.266 16.8438 255.266 16.125C255.266 15.3958 255.062 14.8646 254.656 14.5312C254.25 14.1875 253.552 14.0052 252.562 13.9844H250.109ZM244.766 14.1406C243.984 15.5677 243.594 17.1198 243.594 18.7969C243.594 20.474 243.984 22.0312 244.766 23.4688C245.547 24.9062 246.625 26.0417 248 26.875C249.375 27.7083 250.839 28.125 252.391 28.125C253.953 28.125 255.427 27.7083 256.812 26.875C258.177 26.0417 259.245 24.9062 260.016 23.4688C260.786 22.0312 261.172 20.4792 261.172 18.8125C261.172 17.1354 260.792 15.5885 260.031 14.1719C259.281 12.7448 258.224 11.6094 256.859 10.7656C255.505 9.92188 254.031 9.5 252.438 9.5C250.844 9.5 249.37 9.91146 248.016 10.7344C246.661 11.5573 245.589 12.6927 244.797 14.1406H244.766ZM247.328 27.8906C245.776 26.9115 244.573 25.6198 243.719 24.0156C242.865 22.401 242.438 20.6458 242.438 18.75C242.438 16.8438 242.875 15.0833 243.75 13.4688C244.625 11.8542 245.839 10.5781 247.391 9.64062C248.953 8.71354 250.63 8.25 252.422 8.25C254.224 8.25 255.906 8.71354 257.469 9.64062C259.021 10.5781 260.234 11.8542 261.109 13.4688C261.984 15.0833 262.422 16.8438 262.422 18.75C262.422 20.6458 261.995 22.401 261.141 24.0156C260.286 25.6198 259.078 26.9115 257.516 27.8906C255.964 28.8594 254.266 29.3438 252.422 29.3438C250.589 29.3438 248.891 28.8594 247.328 27.8906Z" fill="#EAEAEA"/>
<g clip-path="url(#clip0)">
<path d="M0 52.8461V13.4189H4.95048C5.05809 19.8154 5.05809 26.4215 5.05809 32.9228C4.95048 39.5289 4.95048 46.1351 5.05809 52.7412H0V52.8461Z" fill="#EAEAEA"/>
<path d="M97.7177 52.6367C97.2873 52.6367 96.8568 52.6367 96.4263 52.6367C95.673 52.6367 95.0273 52.6367 94.2739 52.6367C94.1663 52.6367 93.9511 52.6367 93.8435 52.6367V36.0689C93.8435 35.0203 93.8435 33.9717 93.7358 32.9232C93.7358 31.9794 93.7358 31.1405 93.8435 30.3017C93.9511 28.9385 94.3816 27.6802 94.812 26.4219C95.3501 25.1636 95.8882 24.0101 96.4263 23.0664C97.7177 20.9692 99.332 19.0817 101.162 17.6137C102.991 16.1457 105.251 14.9922 107.834 14.1533C108.803 13.8387 110.202 13.629 111.601 13.4193C112.462 13.3145 113.43 13.3145 114.399 13.3145C115.044 13.3145 115.69 13.3145 116.336 13.4193C118.703 13.629 120.963 14.363 122.901 15.3068C124.945 16.3554 126.667 17.6137 128.282 19.0817C129.681 20.4449 130.864 22.2275 131.941 24.2198C133.017 26.2122 133.663 28.4142 133.985 30.7211C134.093 31.56 134.093 32.5037 134.093 33.4474C133.985 34.496 133.985 35.5446 133.985 36.4884V52.6367H129.035V43.1994C129.035 41.1022 129.035 38.7953 129.143 36.5932C129.25 34.1815 129.035 31.9794 128.604 29.9871C128.174 28.3093 127.528 26.8413 126.667 25.3733C125.806 23.9052 124.623 22.6469 123.331 21.5983C122.04 20.5497 120.533 19.7109 118.811 19.1866C117.412 18.4526 115.798 18.2428 114.076 18.2428H113.538C110.632 18.3477 108.049 19.0817 105.682 20.6546C103.422 22.1226 101.7 24.0101 100.408 26.2122C99.7625 27.3656 99.332 28.6239 99.1168 29.9871C98.9016 31.3503 98.6863 32.7134 98.6863 34.1815C98.5787 35.6495 98.5787 37.1175 98.6863 38.6904C98.6863 40.1584 98.6863 41.7313 98.6863 43.1994V52.5318C98.3635 52.5318 98.0406 52.6367 97.7177 52.6367Z" fill="#EAEAEA"/>
<path d="M157.554 52.8461V13.4189H162.505C162.613 19.8154 162.613 26.4215 162.613 32.9228C162.505 39.5289 162.505 46.1351 162.613 52.7412H157.554V52.8461Z" fill="#EAEAEA"/>
<path d="M49.2895 53.6852C45.5228 53.6852 41.9714 52.7414 38.7428 50.9588C35.6219 49.1762 33.039 46.6596 31.2095 43.5138C29.3799 40.368 28.4114 37.0125 28.4114 33.2376C28.4114 30.5113 28.9495 27.8898 30.0257 25.3732C31.1019 22.8565 32.6085 20.6545 34.5457 18.767C36.4828 16.8796 38.7428 15.4115 41.3257 14.3629C43.9085 13.3143 46.599 12.79 49.2895 12.79C52.7333 12.9998 55.9618 13.7338 58.9752 15.2018C61.8809 16.6698 64.3561 18.767 66.2933 21.3885L66.7238 22.1225L62.7418 24.8489L62.2038 24.1148C61.3428 22.8565 60.2666 21.8079 58.8676 20.7593C57.4685 19.8156 55.9619 18.9767 54.3476 18.5573C52.7333 18.033 51.119 17.8233 49.2895 17.8233C46.3838 17.8233 43.8009 18.4524 41.3257 19.9205C38.8504 21.2836 36.9133 23.0663 35.5142 25.5829C34.1152 27.9946 33.3619 30.6161 33.3619 33.3425C33.3619 36.1737 34.0076 38.7952 35.5142 41.2069C36.9133 43.6187 38.8504 45.5062 41.3257 46.8693C43.8009 48.2325 46.3838 48.9665 49.2895 48.9665C52.9485 48.9665 56.0695 47.9179 58.8676 45.9256C60.5895 44.6673 61.9885 43.1992 63.0647 41.5215L64.4638 39.2146H47.7828L51.0114 34.3911H70.1676L70.0599 35.3348C69.7371 38.6903 68.6609 41.8361 66.7238 44.6673C64.7866 47.4985 62.3114 49.7005 59.298 51.2734C56.2847 52.8463 52.9485 53.6852 49.2895 53.6852Z" fill="#EAEAEA"/>
<path d="M206.413 53.9995C205.552 53.9995 204.692 53.9995 203.723 53.8946C201.355 53.6849 199.095 53.0558 197.158 52.0072C195.113 50.9586 193.392 49.8051 191.885 48.442C189.302 46.1351 187.472 42.8844 186.396 39.0046C186.719 39.0046 186.934 39.0046 187.257 39.0046C187.688 39.0046 188.118 39.0046 188.656 39.0046C189.41 39.0046 190.163 39.0046 190.916 39.0046C191.239 39.0046 191.562 39.0046 191.885 39.0046C192.746 41.3115 194.252 43.4087 196.297 45.1913C198.665 47.2885 201.678 48.5468 205.122 48.8614C205.552 48.8614 205.875 48.8614 206.306 48.8614C207.812 48.8614 209.104 48.6517 210.395 48.2322C211.902 47.7079 213.193 47.1836 214.27 46.4496C214.915 46.1351 215.669 45.6108 216.314 45.0865C217.068 44.4573 217.606 43.8282 218.036 42.9893L218.897 41.5212L217.283 40.8921C211.794 38.8998 206.306 36.9074 201.032 34.9151C196.082 33.1325 191.024 31.3499 186.181 29.4624C187.58 24.0097 190.378 19.8154 194.575 17.089C196.405 15.8307 198.45 14.887 200.71 14.153C202.216 13.6287 204.046 13.4189 205.983 13.4189C206.844 13.4189 207.812 13.4189 208.781 13.5238C211.149 13.7335 213.409 14.3627 215.346 15.4113C217.283 16.355 219.112 17.6133 220.619 18.9765C223.31 21.3883 225.139 24.534 226 28.309H220.619C220.081 26.9458 219.328 25.6875 218.359 24.4292C215.346 20.6542 210.933 18.5571 206.091 18.5571C205.445 18.5571 204.907 18.5571 204.261 18.6619H203.938C203.508 18.6619 203.185 18.7668 202.754 18.8716C202.324 18.9765 202.109 18.9765 201.893 19.0813C201.678 19.1862 201.248 19.2911 201.248 19.2911C200.172 19.6056 199.311 20.0251 198.557 20.5494C197.373 21.2834 196.297 22.2271 195.113 23.3806L194.791 23.6952C194.575 23.9049 194.252 24.2195 194.037 24.534L193.822 24.8486L192.746 26.4215L199.095 28.7284L200.279 29.1478C204.476 30.6159 208.673 32.1888 212.978 33.7617C217.391 35.3345 221.695 37.0123 226 38.5852C225.677 40.3678 225.139 42.0455 224.278 43.5136C223.31 45.401 222.018 46.9739 220.404 48.3371C219.435 49.2808 218.359 50.1197 217.175 50.8537C216.099 51.5877 214.808 52.2169 213.516 52.7412C212.225 53.2655 210.718 53.6849 209.104 53.8946C208.243 53.8946 207.382 53.9995 206.413 53.9995Z" fill="#EAEAEA"/>
</g>
<defs>
<clipPath id="clip0">
<rect width="226" height="41" fill="white" transform="translate(0 13)"/>
</clipPath>
</defs>
</svg>
