<?xml version="1.0" encoding="utf-8"?>
<!-- Generator: Adobe Illustrator 16.0.3, SVG Export Plug-In . SVG Version: 6.00 Build 0)  -->
<!DOCTYPE svg PUBLIC "-//W3C//DTD SVG 1.1 Tiny//EN" "http://www.w3.org/Graphics/SVG/1.1/DTD/svg11-tiny.dtd">
<svg version="1.1" baseProfile="tiny" id="Layer_2_xA0_Image_1_"
	 xmlns="http://www.w3.org/2000/svg" xmlns:xlink="http://www.w3.org/1999/xlink" x="0px" y="0px" width="1176.24px"
	 height="321.6px" viewBox="0 0 1176.24 321.6" xml:space="preserve">
<g>
	<path fill-rule="evenodd" fill="#74549D" d="M175.37,234.829c-0.398-1.306-1.306-1.893-2.021-2.608
		C128.059,186.9,82.759,141.588,37.46,96.276c-6.673-6.676-13.32-13.378-20.042-20.004c-1.238-1.221-1.758-2.475-1.752-4.215
		c0.062-16.877,0.05-33.756,0.061-50.633c0-0.4-0.011-0.801,0.017-1.2c0.111-1.573,0.246-1.712,1.852-1.89
		c0.396-0.044,0.798-0.053,1.198-0.059c16.636-0.266,33.272-0.446,49.911-0.203c2.415,0.035,4.142,0.767,5.865,2.493
		c51.646,51.749,103.342,103.447,155.038,155.145c0.768,0.768,1.421,1.706,2.551,2.144c0.698-1.135,0.434-2.284,0.436-3.371
		c0.036-30.076,0.054-60.152,0.072-90.229c0.013-20.797,0.019-41.595,0.035-62.392c0.002-3.95-0.158-3.608,3.689-3.61
		c21.677-0.01,43.355-0.009,65.032,0c3.583,0.001,3.503-0.282,3.501,3.571c-0.036,93.909-0.072,187.816-0.114,281.725
		c-0.002,3.927,0.247,3.68-3.63,3.691c-33.512,0.104-67.025,0.254-100.537,0.267c-59.833,0.021-119.665,0.145-179.497-0.212
		c-1.359-0.008-2.718-0.053-4.078-0.086c-0.861-0.021-1.331-0.473-1.375-1.327c-0.041-0.799-0.064-1.599-0.063-2.398
		c0.012-21.517,0.024-43.034,0.046-64.552c0.004-4.103-0.161-3.822,3.761-3.823c50.793-0.006,101.587-0.003,152.381-0.01
		C172.918,235.095,174.039,235.23,175.37,234.829z"/>
	<path fill-rule="evenodd" fill="#ffffff" d="M498.292,83.277c0,20.154,0.002,40.308-0.001,60.461
		c-0.001,4.482-0.066,4.546-4.571,4.548c-8.157,0.005-16.315,0.002-24.473,0c-0.719,0-1.443,0.02-2.158-0.046
		c-1.731-0.158-2.195-0.624-2.339-2.406c-0.077-0.954-0.049-1.918-0.049-2.877c-0.002-23.273-0.001-46.546-0.004-69.819
		c0-0.879-0.01-1.76-0.054-2.638c-0.02-0.39-0.052-0.86-0.526-0.979c-0.445-0.111-0.736,0.239-0.986,0.545
		c-1.623,1.979-3.244,3.958-4.85,5.951c-6.373,7.908-12.777,15.792-19.081,23.755c-1.363,1.723-2.856,2.559-5.077,2.516
		c-5.277-0.103-10.558-0.098-15.834-0.007c-3.319,0.058-5.75-1.219-7.788-3.855c-6.943-8.985-14.008-17.877-21.056-26.781
		c-0.671-0.849-1.358-2.43-2.352-2.1c-1.277,0.425-0.656,2.101-0.657,3.219c-0.034,23.273-0.025,46.546-0.026,69.819
		c0,0.88,0.014,1.76-0.011,2.639c-0.074,2.603-0.47,3.038-3.147,3.049c-7.438,0.033-14.875,0.017-22.313,0.016
		c-1.759,0-3.522,0.043-5.277-0.045c-1.776-0.089-2.214-0.578-2.369-2.344c-0.049-0.557-0.03-1.119-0.041-1.679
		c-0.604-30.464-0.394-60.932-0.413-91.399c-0.003-4.958,0.085-9.918-0.009-14.875c-0.106-5.603,0.503-11.181,0.443-16.782
		c-0.026-2.456,0.503-2.921,3.022-2.932c8.477-0.036,16.955-0.016,25.432-0.027c3.017-0.004,5.37,1.244,7.233,3.594
		c6.113,7.707,12.247,15.396,18.391,23.078c5.645,7.057,11.313,14.094,16.971,21.14c0.15,0.188,0.303,0.373,0.456,0.558
		c1.813,2.19,2.198,2.192,3.962-0.021c8.227-10.316,16.454-20.634,24.676-30.955c3.588-4.503,7.213-8.978,10.726-13.54
		c2.063-2.681,4.59-3.958,8.03-3.897c7.436,0.132,14.875,0.045,22.313,0.052c0.56,0.001,1.125-0.011,1.677,0.059
		c1.461,0.184,1.924,0.639,2.068,2.147c0.091,0.953,0.061,1.917,0.061,2.877C498.293,43.29,498.292,63.283,498.292,83.277z"/>
	<path fill-rule="evenodd" fill="#ffffff" d="M353.233,242.159c0-20.077-0.002-40.154,0.001-60.231
		c0.001-4.63,0.115-4.747,4.67-4.749c13.038-0.003,26.081-0.221,39.112,0.082c9.036,0.21,18.074,0.061,27.103,0.373
		c6.85,0.237,13.509,1.605,19.708,4.656c8.883,4.372,14.125,11.588,15.911,21.242c2.136,11.546-1.041,21.677-8.621,30.521
		c-0.208,0.243-0.435,0.469-0.648,0.708c-1.588,1.784-1.572,2.021,0.472,3.166c3.296,1.845,6.372,3.957,9.019,6.693
		c5.366,5.545,8.03,12.236,8.511,19.843c0.429,6.782-0.248,13.407-2.968,19.742c-3.118,7.263-8.106,12.749-15.084,16.471
		c-6.382,3.403-13.224,5.2-20.359,5.996c-5.645,0.63-11.309,0.975-16.991,0.974c-18.237-0.003-36.475-0.001-54.711-0.003
		c-5.119,0-5.125-0.005-5.125-5.015C353.231,282.473,353.232,262.315,353.233,242.159z M406.542,278.907c0-0.005,0-0.009,0-0.014
		c4.632,0,9.263-0.005,13.895,0.003c1.929,0.003,3.831-0.228,5.684-0.744c2.889-0.806,4.917-2.622,5.907-5.46
		c1.243-3.562,1.287-7.217,0.475-10.867c-0.683-3.069-2.651-5.029-5.627-5.977c-1.76-0.561-3.584-0.892-5.419-0.9
		c-10.141-0.049-20.283-0.058-30.424-0.027c-2.204,0.006-2.627,0.52-2.745,2.72c-0.034,0.638-0.02,1.277-0.02,1.916
		c-0.001,4.871-0.004,9.743,0,14.613c0.004,4.731,0.013,4.737,4.859,4.738c0.24,0,0.479-0.001,0.719-0.001
		C398.078,278.907,402.31,278.907,406.542,278.907z M404.861,229.386c0-0.003,0-0.005,0-0.007c4.395,0,8.79,0.052,13.183-0.015
		c4.29-0.065,5.838-1.3,7.012-5.442c0.858-3.03,1.048-6.121,0.761-9.259c-0.458-5.004-2.464-7.345-7.35-8.374
		c-0.933-0.196-1.897-0.333-2.848-0.337c-8.07-0.031-16.14-0.046-24.209-0.021c-2.632,0.009-3.11,0.48-3.129,3.077
		c-0.041,5.672-0.04,11.346-0.003,17.018c0.019,2.85,0.505,3.322,3.4,3.349C396.072,229.415,400.467,229.386,404.861,229.386z"/>
	<path fill-rule="evenodd" fill="#ffffff" d="M1075.135,231.225c-0.612,1.053-0.402,2.11-0.402,3.116
		c-0.015,22.556-0.013,45.112-0.016,67.668c0,0.96,0.032,1.924-0.041,2.879c-0.134,1.733-0.617,2.184-2.394,2.34
		c-0.477,0.042-0.959,0.034-1.438,0.034c-8.318,0.001-16.637,0.001-24.955-0.001c-0.48,0-0.963,0.01-1.438-0.037
		c-1.648-0.161-2.114-0.598-2.285-2.193c-0.069-0.633-0.053-1.277-0.053-1.917c-0.002-40.554-0.003-81.106,0.002-121.659
		c0-4.022,0.242-4.265,4.163-4.273c6.479-0.014,12.958,0.058,19.436-0.034c4.049-0.058,7.123,1.329,9.707,4.609
		c15.786,20.045,31.988,39.758,47.669,59.887c2.408,3.092,4.732,6.249,7.101,9.372c0.289,0.382,0.599,0.751,0.916,1.11
		c0.262,0.295,0.531,0.679,0.985,0.556c0.568-0.153,0.607-0.692,0.628-1.166c0.043-1.038,0.06-2.078,0.061-3.118
		c0.003-21.915,0.001-43.831,0.004-65.747c0-0.96-0.03-1.925,0.057-2.878c0.139-1.518,0.588-1.962,2.06-2.146
		c0.553-0.069,1.117-0.059,1.677-0.059c8.319-0.004,16.638-0.012,24.956,0.002c3.567,0.005,3.847,0.273,3.847,3.816
		c0.007,40.793,0.005,81.586,0.003,122.379c0,0.399,0.003,0.801-0.025,1.199c-0.147,2.032-0.611,2.558-2.619,2.639
		c-1.996,0.082-3.998,0.04-5.998,0.041c-5.039,0.002-10.079-0.06-15.117,0.016c-3.642,0.055-6.305-1.351-8.607-4.254
		c-12.278-15.476-24.725-30.818-37.062-46.248c-6.493-8.119-13.196-16.075-19.24-24.547
		C1076.353,232.105,1076.075,231.484,1075.135,231.225z"/>
	<path fill-rule="evenodd" fill="#ffffff" d="M1132.276,93.854c0.76-1.062,0.481-2.218,0.482-3.287
		c0.021-19.76,0.016-39.52,0.016-59.28c0-3.12-0.014-6.24,0.007-9.36c0.021-3.301,0.327-3.655,3.523-3.671
		c8.4-0.041,16.8-0.054,25.2-0.036c3.106,0.007,3.374,0.372,3.509,3.468c0.812,18.631,0.312,37.271,0.395,55.906
		c0.096,21.599,0.002,43.2-0.012,64.799c-0.001,1.04,0.018,2.083-0.057,3.119c-0.156,2.161-0.67,2.653-2.773,2.785
		c-0.399,0.025-0.8,0.02-1.2,0.02c-6.56,0.004-13.121-0.067-19.679,0.039c-3.666,0.06-6.406-1.333-8.682-4.183
		c-17.072-21.377-34.204-42.708-51.302-64.065c-1.449-1.81-2.786-3.709-4.172-5.569c-0.335-0.449-0.634-0.927-0.994-1.354
		c-0.342-0.405-0.631-1.082-1.298-0.809c-0.621,0.254-0.47,0.955-0.494,1.492c-0.04,0.878-0.026,1.76-0.026,2.64
		c-0.001,22.24,0,44.479-0.002,66.719c-0.001,0.96,0.031,1.925-0.053,2.878c-0.134,1.518-0.575,1.947-2.068,2.125
		c-0.554,0.066-1.118,0.054-1.678,0.054c-8.24,0.003-16.479,0.003-24.72-0.001c-0.56,0-1.12-0.02-1.678-0.055
		c-1.208-0.076-1.88-0.733-2.107-1.915c-0.32-1.664-0.287-3.345-0.288-5.023c-0.021-29.04-0.041-58.08-0.051-87.119
		c-0.004-10.08,0.018-20.16,0.029-30.24c0.001-0.8-0.006-1.601,0.015-2.4c0.077-2.919,0.434-3.299,3.396-3.311
		c7.2-0.027,14.4,0.027,21.6-0.046c2.836-0.029,5.166,0.882,7.012,3.018c1.098,1.27,2.193,2.544,3.242,3.854
		c12.647,15.8,25.308,31.59,37.918,47.42c5.083,6.382,10.088,12.827,14.926,19.399C1130.755,92.605,1131.172,93.524,1132.276,93.854
		z"/>
	<path fill-rule="evenodd" fill="#ffffff" d="M668.611,83.24c0-20.151-0.002-40.302,0.002-60.452c0-4.507,0.07-4.58,4.544-4.578
		c16.552,0.006,33.104-0.06,49.656,0.06c11.688,0.084,23.071,2.075,34.022,6.27c12.048,4.614,21.661,12.211,28.318,23.345
		c4.08,6.823,6.259,14.316,7.56,22.113c1.966,11.783,1.36,23.425-1.835,34.919c-4.827,17.361-15.804,29.288-32.321,36.219
		c-8.022,3.367-16.428,5.266-25.062,6.201c-7.001,0.758-14.021,1.042-21.064,1.007c-12.874-0.064-25.748-0.018-38.622-0.019
		c-0.8,0-1.601,0.018-2.398-0.018c-2.233-0.101-2.665-0.517-2.776-2.695c-0.045-0.878-0.022-1.759-0.022-2.639
		C668.611,123.062,668.611,103.151,668.611,83.24z M703.658,83.174c0,10.152-0.002,20.305,0.004,30.457
		c0,0.878,0.014,1.76,0.092,2.634c0.088,0.999,0.667,1.606,1.675,1.734c0.553,0.07,1.115,0.097,1.673,0.096
		c5.196-0.005,10.395,0.081,15.587-0.062c4.721-0.129,9.413-0.729,13.976-1.993c9.917-2.748,16.391-9.027,18.96-19.057
		c2.302-8.984,2.423-18.031,0.158-27.051c-2.326-9.266-7.746-15.823-16.963-18.923c-2.961-0.996-6.001-1.712-9.112-2.035
		c-7.239-0.752-14.506-0.949-21.779-0.914c-4.021,0.019-4.262,0.245-4.266,4.18C703.652,62.551,703.659,72.863,703.658,83.174z"/>
	<path fill-rule="evenodd" fill="#ffffff" d="M495.839,242.229c0-20.152-0.002-40.306,0.002-60.458c0-4.46,0.127-4.591,4.564-4.593
		c13.195-0.004,26.395-0.193,39.584,0.079c7.993,0.165,15.994,0.038,23.978,0.396c7.869,0.353,15.564,1.809,22.888,4.851
		c9.391,3.901,15.879,10.636,19.192,20.243c4.376,12.688,4.228,25.293-1.336,37.645c-3.178,7.054-7.862,12.95-13.991,17.7
		c-3.131,2.427-3.092,2.504-1.053,5.788c8.394,13.519,16.773,27.047,25.158,40.572c0.253,0.407,0.54,0.8,0.742,1.231
		c0.525,1.122,0.268,1.673-0.915,1.87c-0.626,0.104-1.275,0.085-1.914,0.086c-9.677,0.007-19.354-0.078-29.029,0.05
		c-4.05,0.054-6.72-1.524-8.73-5.063c-5.766-10.151-11.757-20.175-17.646-30.256c-3.392-5.805-3.65-5.965-10.449-5.962
		c-4.239,0.002-8.478-0.021-12.716,0.013c-2.918,0.022-3.309,0.407-3.314,3.376c-0.023,11.036-0.008,22.072-0.016,33.108
		c-0.003,4.194-0.15,4.344-4.292,4.347c-8.797,0.008-17.594,0.004-26.391,0c-0.719,0-1.445,0.021-2.157-0.06
		c-1.5-0.169-1.955-0.609-2.099-2.107c-0.091-0.952-0.06-1.917-0.06-2.877C495.839,282.216,495.839,262.223,495.839,242.229z
		 M549.094,238.586c0,0.001,0,0.003,0,0.005c4.958,0,9.916-0.036,14.874,0.012c3.64,0.034,6.043-1.702,7.502-4.933
		c1.373-3.037,1.899-6.268,2.094-9.554c0.205-3.462-0.07-6.877-1.453-10.12c-1.295-3.039-3.442-5.139-6.66-6.097
		c-2.082-0.62-4.181-1.035-6.365-1.046c-3.117-0.016-6.229-0.06-9.346-0.303c-5.514-0.431-11.02,0.333-16.536,0.332
		c-1.63-0.001-2.098,0.601-2.276,2.185c-0.044,0.396-0.042,0.799-0.042,1.198c-0.001,8.316-0.017,16.633,0.007,24.95
		c0.008,2.951,0.403,3.343,3.327,3.361C539.178,238.608,544.136,238.586,549.094,238.586z"/>
	<path fill-rule="evenodd" fill="#ffffff" d="M815.515,83.187c0-20.157-0.002-40.314,0.001-60.472
		c0.001-4.406,0.075-4.483,4.38-4.484c30.716-0.003,61.432-0.004,92.147,0c4.171,0,4.297,0.131,4.301,4.33
		c0.008,6.719,0.005,13.438-0.001,20.157c0,0.799-0.01,1.601-0.073,2.397c-0.09,1.112-0.722,1.764-1.839,1.845
		c-0.956,0.069-1.918,0.076-2.877,0.077c-18.797,0.004-37.595,0.001-56.392,0.004c-4.531,0.001-4.581,0.043-4.607,4.522
		c-0.024,4.159-0.018,8.319-0.019,12.478c0,0.64-0.01,1.284,0.06,1.917c0.173,1.592,0.641,2.051,2.284,2.187
		c0.875,0.072,1.759,0.043,2.639,0.044c16.718,0.002,33.436,0,50.153,0.005c0.959,0,1.92,0.016,2.876,0.088
		c1.111,0.084,1.746,0.741,1.873,1.835c0.084,0.713,0.111,1.436,0.113,2.154c0.016,6.799,0.022,13.598,0.024,20.397
		c0,0.639-0.021,1.281-0.083,1.917c-0.109,1.107-0.734,1.759-1.853,1.836c-0.956,0.066-1.918,0.074-2.877,0.074
		c-16.397,0.004-32.796,0.003-49.193,0.003c-0.8,0-1.6-0.008-2.399,0.006c-3.146,0.055-3.553,0.43-3.579,3.668
		c-0.043,5.279-0.049,10.559-0.021,15.837c0.017,3.094,0.369,3.445,3.486,3.448c17.518,0.017,35.035,0.009,52.553,0.012
		c2.88,0,5.76-0.031,8.639,0.021c2.499,0.046,2.957,0.479,2.969,2.99c0.037,7.599,0.036,15.198,0.002,22.797
		c-0.011,2.533-0.444,2.909-2.948,2.999c-0.64,0.023-1.279,0.012-1.92,0.012c-30.955,0-61.911,0.001-92.867,0
		c-4.946,0-4.95-0.004-4.951-4.87C815.514,123.341,815.515,103.264,815.515,83.187z"/>
	<path fill-rule="evenodd" fill="#ffffff" d="M935.707,307.644c-4.158,0-8.316,0.003-12.475-0.002c-0.799,0-1.599-0.03-2.397-0.039
		c-2.546-0.028-4.154-1.258-5.034-3.661c-1.73-4.729-3.567-9.422-5.343-14.135c-1.386-3.677-1.419-3.726-5.358-3.727
		c-14.713-0.006-29.426-0.003-44.14-0.002c-0.399,0-0.8-0.003-1.199,0.008c-2.527,0.069-2.844,0.254-3.653,2.602
		c-1.669,4.837-3.285,9.692-4.936,14.537c-1.226,3.598-2.066,4.337-5.9,4.369c-9.275,0.079-18.551,0.032-27.826,0.035
		c-0.24,0-0.481-0.009-0.719-0.04c-1.605-0.212-1.967-0.713-1.568-2.224c0.121-0.462,0.32-0.903,0.488-1.353
		c14.604-39.015,29.21-78.028,43.813-117.043c0.757-2.022,1.488-4.054,2.239-6.078c1.313-3.545,1.524-3.702,5.415-3.71
		c6.157-0.014,12.314-0.005,18.472-0.005c3.678,0,7.359,0.1,11.033-0.029c2.997-0.104,4.668,1.198,5.778,3.956
		c7.526,18.691,15.154,37.342,22.752,56.004c8.895,21.848,17.794,43.692,26.688,65.539c0.362,0.889,0.752,1.773,1.015,2.692
		c0.425,1.493,0.024,2.055-1.553,2.244c-0.712,0.085-1.438,0.058-2.157,0.059C944.663,307.646,940.185,307.644,935.707,307.644z
		 M881.75,212.131c-0.595,0.611-0.637,1.278-0.796,1.884c-2.204,8.354-4.893,16.555-7.739,24.71
		c-2.002,5.735-3.85,11.525-5.685,17.317c-0.626,1.974-0.207,2.564,1.813,2.575c8.794,0.047,17.589,0.018,26.384,0.016
		c0.079,0,0.159-0.006,0.239-0.015c1.637-0.198,1.999-0.634,1.551-2.198c-0.461-1.611-1.045-3.19-1.615-4.769
		c-4.566-12.628-9.545-25.112-13.27-38.035C882.484,213.104,882.446,212.497,881.75,212.131z"/>
	<path fill-rule="evenodd" fill="#ffffff" d="M582.471,126.743c-7.596-0.001-15.192-0.014-22.789,0.005
		c-3.085,0.007-3.342,0.204-4.308,3.065c-1.612,4.772-3.185,9.558-4.805,14.328c-1.208,3.556-2.03,4.165-5.733,4.173
		c-9.036,0.019-18.071,0.014-27.107,0c-3.592-0.005-3.863-0.388-2.618-3.72c6.967-18.65,13.948-37.294,20.924-55.941
		c8.124-21.718,16.246-43.436,24.371-65.153c0.42-1.123,0.875-2.233,1.298-3.355c0.481-1.277,1.409-1.885,2.756-1.9
		c0.64-0.007,1.279-0.035,1.918-0.035c9.755-0.002,19.511-0.001,29.266,0.001c0.64,0,1.279,0.033,1.919,0.033
		c1.713-0.001,2.87,0.836,3.574,2.356c0.303,0.652,0.596,1.31,0.867,1.976c12.084,29.699,24.162,59.4,36.249,89.097
		c4.432,10.887,8.888,21.763,13.324,32.647c1.494,3.665,1.285,3.991-2.587,3.996c-9.195,0.012-18.391,0.006-27.586,0.007
		c-0.16,0-0.32,0-0.48-0.002c-3.75-0.048-4.587-0.593-5.914-4.023c-1.269-3.281-2.478-6.585-3.724-9.875
		c-0.623-1.645-1.36-3.252-1.885-4.928c-0.657-2.1-2.007-2.801-4.143-2.78C597.664,126.791,590.067,126.744,582.471,126.743z
		 M581.192,53.127c-0.63,0.442-0.71,1.021-0.839,1.553c-2.124,8.795-5.254,17.276-8.081,25.851
		c-1.751,5.313-3.56,10.608-5.276,15.933c-0.705,2.188-0.262,2.842,2.013,2.853c8.392,0.041,16.784,0.035,25.176-0.033
		c2.661-0.022,3.173-0.783,2.343-3.274c-1.01-3.032-2.123-6.03-3.229-9.029c-3.955-10.72-8.174-21.349-11.225-32.383
		C581.932,54.082,581.897,53.475,581.192,53.127z"/>
	<path fill-rule="evenodd" fill="#ffffff" d="M757.292,177.567c18.717,0,37.433-0.002,56.148,0.002
		c4.45,0.001,4.527,0.082,4.53,4.601c0.006,6.559,0.002,13.118,0.001,19.677c0,0.479,0.007,0.96-0.009,1.439
		c-0.086,2.582-0.498,2.983-3.166,3.058c-0.799,0.022-1.6,0.011-2.399,0.011c-11.198,0-22.396-0.005-33.593,0.004
		c-3.873,0.004-4.083,0.211-4.084,4.07c-0.006,30.634-0.003,61.268-0.006,91.901c-0.001,1.039-0.02,2.079-0.071,3.117
		c-0.061,1.222-0.751,1.905-1.946,2.044c-0.713,0.083-1.436,0.116-2.153,0.117c-8.878,0.008-17.757,0.005-26.635,0.004
		c-0.399,0-0.801,0-1.199-0.024c-2.421-0.148-2.931-0.638-3.026-3.037c-0.054-1.358-0.031-2.719-0.031-4.079
		c0-29.594,0.002-59.188,0.002-88.781c0-0.96,0.029-1.923-0.037-2.878c-0.126-1.801-0.571-2.257-2.316-2.398
		c-0.796-0.065-1.599-0.039-2.398-0.039c-11.438-0.003-22.875,0.003-34.313-0.006c-3.98-0.003-4.162-0.191-4.167-4.232
		c-0.01-6.799-0.005-13.598,0-20.396c0.001-0.72,0.015-1.441,0.071-2.157c0.097-1.227,0.796-1.886,2.014-1.951
		c0.957-0.051,1.918-0.063,2.877-0.063C720.02,177.566,738.656,177.567,757.292,177.567z"/>
	<path fill-rule="evenodd" fill="#ffffff" d="M15.413,155.817c0.001-10.554,0.052-21.108-0.024-31.661
		c-0.029-4.084,0.381-8.143,0.415-12.22c0.003-0.395,0.043-0.805,0.159-1.18c0.146-0.474,0.557-0.617,0.935-0.318
		c0.624,0.494,1.2,1.053,1.764,1.617c25.161,25.155,50.318,50.314,75.475,75.474c6.897,6.897,13.801,13.789,20.674,20.712
		c0.571,0.575,1.746,1.062,1.288,2.045c-0.353,0.76-1.452,0.449-2.221,0.438c-12.952-0.187-25.893,0.511-38.844,0.436
		c-12.952-0.074-25.905-0.075-38.857,0.012c-5.681,0.037-11.338-0.509-17.017-0.431c-2.907,0.04-3.314-0.423-3.337-3.367
		c-0.089-11.35-0.59-22.693-0.424-34.047C15.482,167.491,15.412,161.653,15.413,155.817z"/>
	<path fill-rule="evenodd" fill="#ffffff" d="M157.517,18.231c15.517,0,31.034-0.004,46.552,0.002
		c4.159,0.001,4.306,0.149,4.306,4.338c0,30.794-0.005,61.589-0.015,92.383c0,0.878,0.001,1.767-0.132,2.63
		c-0.133,0.866-0.723,1.02-1.397,0.516c-0.509-0.381-0.957-0.848-1.408-1.3C173.409,84.79,141.396,52.778,109.4,20.75
		c-0.582-0.583-1.759-1.106-1.341-2.036c0.394-0.875,1.588-0.467,2.426-0.468C126.163,18.226,141.839,18.231,157.517,18.231z"/>
	<path fill-rule="evenodd" fill="#ffffff" d="M675.351,242.662c-0.001,20.069,0.002,40.14-0.002,60.21
		c-0.001,4.545-0.184,4.734-4.71,4.74c-8.556,0.011-17.111,0.004-25.667,0.002c-0.56,0-1.121,0.012-1.679-0.03
		c-1.925-0.145-2.397-0.573-2.498-2.475c-0.174-3.271-0.398-6.547-0.401-9.82c-0.031-37.262-0.025-74.522-0.019-111.784
		c0-1.196,0.022-2.405,0.191-3.587c0.248-1.736,0.769-2.168,2.498-2.319c0.636-0.056,1.278-0.04,1.918-0.04
		c8.716-0.002,17.431-0.003,26.146,0.001c0.72,0,1.439,0.018,2.157,0.06c1.221,0.073,1.923,0.725,1.997,1.956
		c0.057,0.957,0.064,1.918,0.064,2.877C675.351,202.521,675.351,222.592,675.351,242.662z"/>
	<path fill-rule="evenodd" fill="#ffffff" d="M1013.767,83.394c0,20.146,0.005,40.292-0.004,60.438
		c-0.002,4.392-0.083,4.461-4.399,4.464c-8.634,0.006-17.268,0.003-25.901,0c-0.72,0-1.444,0.021-2.156-0.059
		c-1.48-0.167-1.912-0.614-2.056-2.135c-0.075-0.793-0.05-1.597-0.05-2.396c-0.002-40.292-0.003-80.583-0.001-120.875
		c0.001-4.557,0.038-4.595,4.502-4.597c8.554-0.005,17.108-0.001,25.662-0.001c0.32,0,0.64-0.002,0.96,0.004
		c3.053,0.055,3.364,0.372,3.421,3.523c0.018,0.959,0.015,1.918,0.015,2.878c0,19.586,0,39.172,0,58.759
		C1013.762,83.394,1013.764,83.394,1013.767,83.394z"/>
	<path fill-rule="evenodd" fill="#ffffff" d="M974.375,242.308c0-20.071-0.002-40.142,0.002-60.213c0-4.473,0.071-4.541,4.581-4.544
		c8.396-0.005,16.792-0.002,25.188-0.001c0.56,0,1.12-0.008,1.68,0.015c2.456,0.099,2.944,0.56,3.065,2.968
		c0.053,1.037,0.039,2.078,0.039,3.118c0.01,39.422,0.018,78.845,0.025,118.267c0,0.72,0.006,1.44-0.018,2.159
		c-0.087,2.729-0.485,3.109-3.302,3.178c-0.239,0.006-0.479,0.005-0.72,0.005c-8.796,0.001-17.592,0.001-26.388,0
		c-0.56-0.001-1.122,0.012-1.679-0.034c-1.864-0.155-2.322-0.621-2.443-2.546c-0.056-0.876-0.031-1.758-0.031-2.638
		C974.374,282.13,974.375,262.219,974.375,242.308z"/>
</g>
</svg>
