<svg width="294" height="465" viewBox="0 0 294 465" fill="none" xmlns="http://www.w3.org/2000/svg">
<path d="M48.0066 137.173C40.6835 151.5 50.1558 166.306 52.3846 169.251C54.6133 172.196 36.8628 183.658 65.6776 193.051C94.4923 202.444 112.402 210.483 129.834 212.951C147.266 215.418 160.241 217.727 166.211 218.682C172.181 219.717 195.105 228.95 198.21 229.348C201.314 229.746 208.08 229.428 208.08 229.428C208.08 229.428 213.174 228.95 214.687 226.96C215.005 226.483 216.915 224.652 216.915 224.652C216.915 224.652 220.02 224.891 222.567 223.537C225.512 221.945 224.636 220.513 224.716 219.478C224.716 219.08 225.034 218.761 225.432 218.841C226.467 218.921 228.378 218.602 229.572 215.816C230.288 214.304 230.049 213.269 229.651 212.632C229.333 212.075 229.492 211.279 230.049 210.881C231.163 210.165 232.437 210.563 232.676 207.697C232.915 205.309 231.641 204.036 229.651 202.921C227.661 201.886 226.388 201.568 226.388 201.568L220.099 200.056C219.781 198.384 218.348 197.111 216.677 196.951C213.493 196.633 208.717 196.155 207.761 196.076C207.284 195.996 205.612 195.837 203.622 195.598C198.846 195.041 193.991 195.041 189.135 195.519C188.419 195.598 187.782 195.598 187.225 195.678C184.121 195.837 178.867 197.349 174.967 196.235C171.066 195.121 160.48 192.573 153.953 190.345C147.426 188.116 130.789 181.111 124.899 178.007C119.009 174.902 109.218 166.226 93.7759 162.007C93.7759 162.007 55.2501 122.924 48.0066 137.173Z" fill="#515151"/>
<path d="M150.293 295.574C150.293 295.574 137.318 301.146 132.145 307.912C126.971 314.678 120.444 326.618 118.374 335.772C116.304 344.926 112.961 362.676 109.777 370.954C106.593 379.153 106.355 386.715 104.603 392.605C102.852 398.416 98.4742 411.55 94.0963 417.838C89.7184 424.047 82.1565 435.589 81.7585 441.161C81.3605 446.732 85.022 449.757 88.9224 451.508C92.7431 453.26 105.24 454.135 111.13 454.852C116.941 455.488 133.657 460.742 137.239 461.299C140.821 461.856 147.189 464.324 151.407 464.483C155.626 464.642 159.925 462.971 161.994 462.732C164.064 462.493 165.576 464.801 169.874 464.642C173.775 464.483 177.595 463.448 177.118 459.628C177.038 458.752 176.481 458.036 175.685 457.717C174.889 457.399 173.616 457.16 171.864 457.399C171.387 457.478 170.909 457.319 170.511 456.921C169.556 455.966 167.486 454.056 164.78 453.18C161.039 451.986 157.218 450.076 154.193 448.563C151.169 447.13 148.383 443.151 143.925 441.32C139.468 439.489 131.349 432.564 130.314 429.221C129.279 425.878 128.165 422.455 131.826 411.391C135.488 400.326 137 396.267 141.06 389.023C145.119 381.78 156.263 364.029 160.243 354.557C164.223 345.085 169.795 331.473 172.581 328.767C175.367 326.061 180.302 320.17 182.292 316.827C184.282 313.484 188.421 306.479 188.023 297.564C187.625 288.649 186.829 277.903 178.471 269.068C170.113 260.232 150.293 295.574 150.293 295.574Z" fill="#515151"/>
<path d="M73.3206 50.6487C64.9627 52.7182 48.6449 54.8674 38.8543 67.1256C36.3071 70.3096 26.9941 85.115 25.4021 88.5377C17.5218 105.333 14.4971 107.084 13.7807 150.466C13.3031 182.226 5.58199 204.434 3.59202 210.722C1.60205 216.771 -0.149123 225.129 0.0100742 238.82C0.169272 252.511 0.646865 257.367 4.38801 264.292C8.12915 271.217 17.1238 282.6 21.263 284.828C25.4021 287.057 32.4864 292.311 44.1078 292.549C53.5005 292.788 58.5948 291.833 60.1868 291.833C61.7787 291.833 68.5446 291.674 73.1614 293.823C77.7781 295.972 93.2999 301.146 106.195 302.42C119.09 303.773 129.438 303.216 134.85 303.455C139.547 303.693 150.691 304.569 153.715 304.887C154.034 304.887 154.193 305.285 154.034 305.524C152.362 307.753 147.029 316.031 147.586 326.936C148.223 339.831 149.337 346.597 157.297 364.905C165.257 383.213 164.461 388.386 167.088 394.754C169.715 401.122 178.232 418.873 178.789 425.002C179.346 431.131 178.789 439.171 177.038 447.528C175.287 455.886 176.719 460.105 179.903 462.095C183.087 464.085 188.898 464.005 194.868 463.369C200.838 462.732 209.992 461.856 214.688 461.06C228.777 458.672 240.001 464.085 244.14 464.085C246.926 464.085 251.065 464.722 254.726 463.528C257.353 462.652 258.229 463.767 260.776 463.767C260.776 463.767 265.233 464.244 267.064 462.971C268.576 461.936 269.691 460.583 269.532 457.637C269.452 456.284 268.258 455.17 266.905 455.17L263.641 455.011C263.641 455.011 260.776 452.862 258.547 452.384C256.318 451.906 254.567 451.747 253.691 451.747C252.816 451.747 247.801 448.086 243.662 445.936C239.523 443.787 235.065 442.036 225.036 437.658C215.006 433.28 205.614 405.819 204.738 402.396C203.863 398.973 200.679 395.312 199.962 370.716C199.246 346.119 194.231 336.488 193.833 325.981C193.435 315.474 194.152 307.673 194.709 304.091C195.266 300.509 195.346 290.48 191.206 282.202C187.067 273.923 184.043 271.456 181.257 269.227C178.471 266.998 174.65 265.247 172.899 264.531C171.148 263.814 166.451 260.71 161.357 256.173C156.263 251.636 145.596 246.303 138.034 243.755C130.473 241.208 109.856 234.761 102.931 232.691C96.0062 230.622 82.4744 228.472 82.4744 228.472C82.4744 228.472 82.7132 216.055 83.5092 206.583C83.748 203.876 86.932 196.394 87.33 191.539C87.9668 183.897 90.5139 180.236 91.7079 177.609C92.9019 174.982 95.6082 167.42 96.0062 164.236C96.4042 161.052 99.031 155.082 99.6678 152.296C100.305 149.51 101.897 146.326 101.897 146.326C101.897 146.326 106.752 141.71 107.548 136.456C108.344 131.203 110.254 117.273 110.414 113.532C110.573 109.791 112.244 101.512 109.936 94.3484C107.707 87.2641 105.956 85.2742 107.866 83.125C108.105 82.8862 108.583 82.2494 108.981 81.7718C109.299 81.4534 109.697 81.3738 110.095 81.3738C113.836 81.6126 117.498 82.4086 119.329 84.0006C122.831 87.0253 125.458 90.9257 127.766 91.3237C130.075 91.6421 131.667 91.9605 132.94 90.6869C134.214 89.4133 134.532 87.9009 136.044 87.5825C137.557 87.2641 138.671 87.6621 139.865 87.7417C141.059 87.8213 142.572 87.5029 142.492 85.3538C142.492 85.3538 144.562 87.1049 145.437 86.309C146.313 85.513 146.551 83.6822 147.984 83.3638C149.417 82.9658 150.213 82.4086 150.213 82.4086C150.213 82.4086 151.566 83.921 152.681 84.2394C153.795 84.5578 155.307 85.0354 156.183 84.3986C157.059 83.8414 157.775 80.5778 158.73 78.7471C159.685 76.9959 160.561 75.5631 160.879 72.8568C161.118 70.1504 164.62 68.7972 166.053 67.5236C167.486 66.2501 168.68 64.8969 169.635 63.7029C170.59 62.4293 171.784 60.3597 174.013 57.335C176.242 54.3102 179.665 49.1363 180.54 42.848C181.416 36.4801 178.709 24.3811 176.242 20.0827C173.774 15.864 168.998 9.89409 164.461 6.86933C159.924 3.84458 155.705 0.501427 144.96 0.0238341C134.214 -0.453759 124.662 6.39174 123.547 7.50612C122.433 8.62051 113.836 15.7048 111.369 25.2567C110.812 27.4058 110.095 29.7142 109.538 31.147C109.22 31.8634 106.195 35.1269 105.08 35.6045C104.921 35.7637 84.942 48.6587 73.3206 50.6487Z" fill="#515151"/>
<path d="M161.913 238.82C161.674 238.82 161.515 238.661 161.515 238.422L153.794 67.8421C153.794 67.6033 153.953 67.4441 154.192 67.4441C154.43 67.4441 154.59 67.6033 154.59 67.8421L162.231 238.024C213.572 236.592 261.013 212.314 292.375 171.48L161.117 66.8073C160.958 66.6481 160.878 66.4093 161.037 66.2501C161.196 66.0909 161.435 66.0113 161.594 66.1705L293.33 171.161C293.49 171.321 293.569 171.559 293.41 171.719C261.73 213.03 213.891 237.467 161.913 238.82C161.992 238.82 161.992 238.82 161.913 238.82Z" fill="#4497CB"/>
<path d="M30.5771 92.9953C30.4179 92.9953 30.2587 92.9953 30.0995 92.9157C29.4627 92.6769 29.2239 91.9605 29.5423 91.3237C30.0199 90.3686 40.6861 67.0461 55.0935 60.7578C58.1182 59.4046 63.2126 57.9718 69.1825 56.2207C84.5451 51.7631 105.639 45.7136 111.37 36.7986C111.688 36.2414 112.484 36.0822 113.041 36.4006C113.599 36.719 113.758 37.5149 113.439 38.0721C107.231 47.7036 85.6594 53.9919 69.8989 58.529C64.0086 60.2006 58.9938 61.713 56.1283 62.907C42.5965 68.7973 31.9302 92.0401 31.771 92.2789C31.4526 92.7565 31.0547 92.9953 30.5771 92.9953Z" fill="#CE4515"/>
<path d="M233.474 218.921C233.315 218.921 233.076 218.841 232.996 218.602L232.28 217.169C232.121 216.931 232.28 216.612 232.519 216.453C232.758 216.294 233.076 216.453 233.235 216.692L233.952 218.125C234.111 218.363 233.952 218.682 233.713 218.841C233.633 218.921 233.554 218.921 233.474 218.921ZM231.006 213.906C230.847 213.906 230.608 213.826 230.529 213.587L229.812 212.155C229.653 211.916 229.812 211.597 230.051 211.438C230.29 211.279 230.608 211.438 230.768 211.677L231.484 213.11C231.643 213.349 231.484 213.667 231.245 213.826C231.166 213.906 231.086 213.906 231.006 213.906ZM228.459 208.971C228.3 208.971 228.061 208.891 227.982 208.652L227.265 207.22C227.106 206.981 227.265 206.662 227.504 206.503C227.743 206.344 228.061 206.503 228.221 206.742L228.937 208.175C229.096 208.413 228.937 208.732 228.698 208.891C228.618 208.971 228.539 208.971 228.459 208.971ZM225.992 203.956C225.833 203.956 225.594 203.876 225.514 203.638L224.798 202.205C224.639 201.966 224.798 201.648 225.037 201.488C225.275 201.329 225.594 201.488 225.753 201.727L226.469 203.16C226.629 203.399 226.469 203.717 226.231 203.876C226.151 203.956 226.071 203.956 225.992 203.956ZM223.524 199.021C223.365 199.021 223.126 198.941 223.047 198.702L222.33 197.27C222.171 197.031 222.33 196.712 222.569 196.553C222.808 196.394 223.126 196.553 223.285 196.792L224.002 198.225C224.161 198.464 224.002 198.782 223.763 198.941C223.683 199.021 223.604 199.021 223.524 199.021ZM220.977 194.006C220.818 194.006 220.579 193.927 220.499 193.688L219.783 192.255C219.624 192.016 219.783 191.698 220.022 191.539C220.261 191.379 220.579 191.539 220.738 191.777L221.455 193.21C221.614 193.449 221.455 193.767 221.216 193.927C221.136 194.006 221.057 194.006 220.977 194.006ZM218.509 189.071C218.35 189.071 218.111 188.991 218.032 188.753L217.315 187.32C217.156 187.081 217.315 186.763 217.554 186.603C217.793 186.444 218.111 186.603 218.271 186.842L218.987 188.275C219.146 188.514 218.987 188.832 218.748 188.991C218.669 188.991 218.589 189.071 218.509 189.071ZM215.962 184.056C215.803 184.056 215.564 183.977 215.485 183.738L214.768 182.305C214.609 182.066 214.768 181.748 215.007 181.589C215.246 181.43 215.564 181.589 215.723 181.827L216.44 183.26C216.599 183.499 216.44 183.817 216.201 183.977C216.121 184.056 216.042 184.056 215.962 184.056ZM213.495 179.042C213.336 179.042 213.097 178.962 213.017 178.723L212.301 177.29C212.142 177.052 212.301 176.733 212.54 176.574C212.778 176.415 213.097 176.574 213.256 176.813L213.972 178.246C214.132 178.484 213.972 178.803 213.734 178.962C213.654 179.042 213.574 179.042 213.495 179.042ZM211.027 174.106C210.868 174.106 210.629 174.027 210.55 173.788L209.833 172.355C209.674 172.116 209.833 171.798 210.072 171.639C210.311 171.48 210.629 171.639 210.788 171.878L211.505 173.31C211.664 173.549 211.505 173.868 211.266 174.027C211.186 174.106 211.107 174.106 211.027 174.106ZM208.48 169.092C208.321 169.092 208.082 169.012 208.002 168.773L207.286 167.341C207.127 167.102 207.286 166.783 207.525 166.624C207.764 166.465 208.082 166.624 208.241 166.863L208.958 168.296C209.117 168.534 208.958 168.853 208.719 169.012C208.639 169.092 208.56 169.092 208.48 169.092ZM206.012 164.157C205.853 164.157 205.614 164.077 205.535 163.838L204.818 162.405C204.659 162.167 204.818 161.848 205.057 161.689C205.296 161.53 205.614 161.689 205.774 161.928L206.49 163.361C206.649 163.599 206.49 163.918 206.251 164.077C206.172 164.077 206.092 164.157 206.012 164.157ZM203.545 159.142C203.386 159.142 203.147 159.062 203.067 158.823L202.351 157.391C202.192 157.152 202.351 156.833 202.59 156.674C202.828 156.515 203.147 156.674 203.306 156.913L204.022 158.346C204.182 158.585 204.022 158.903 203.784 159.062C203.704 159.142 203.624 159.142 203.545 159.142ZM200.998 154.207C200.839 154.207 200.6 154.127 200.52 153.888L199.804 152.456C199.645 152.217 199.804 151.898 200.043 151.739C200.281 151.58 200.6 151.739 200.759 151.978L201.475 153.411C201.635 153.65 201.475 153.968 201.237 154.127C201.157 154.127 201.077 154.207 200.998 154.207ZM198.53 149.192C198.371 149.192 198.132 149.112 198.053 148.874L197.336 147.441C197.177 147.202 197.336 146.884 197.575 146.724C197.814 146.565 198.132 146.724 198.291 146.963L199.008 148.396C199.167 148.635 199.008 148.953 198.769 149.112C198.689 149.192 198.61 149.192 198.53 149.192ZM195.983 144.177C195.824 144.177 195.585 144.098 195.505 143.859L194.789 142.426C194.63 142.187 194.789 141.869 195.028 141.71C195.267 141.55 195.585 141.71 195.744 141.949L196.461 143.381C196.62 143.62 196.461 143.938 196.222 144.098C196.142 144.177 196.063 144.177 195.983 144.177ZM193.515 139.242C193.356 139.242 193.117 139.163 193.038 138.924L192.321 137.491C192.162 137.252 192.321 136.934 192.56 136.775C192.799 136.615 193.117 136.775 193.277 137.013L193.993 138.446C194.152 138.685 193.993 139.003 193.754 139.163C193.675 139.242 193.595 139.242 193.515 139.242ZM191.048 134.227C190.889 134.227 190.65 134.148 190.57 133.909L189.854 132.476C189.695 132.237 189.854 131.919 190.093 131.76C190.331 131.601 190.65 131.76 190.809 131.999L191.525 133.431C191.685 133.67 191.525 133.989 191.287 134.148C191.207 134.227 191.127 134.227 191.048 134.227ZM188.501 129.292C188.342 129.292 188.103 129.213 188.023 128.974L187.307 127.541C187.148 127.302 187.307 126.984 187.546 126.825C187.784 126.666 188.103 126.825 188.262 127.064L188.978 128.496C189.137 128.735 188.978 129.053 188.739 129.213C188.66 129.213 188.58 129.292 188.501 129.292ZM186.033 124.278C185.874 124.278 185.635 124.198 185.556 123.959L184.839 122.526C184.68 122.288 184.839 121.969 185.078 121.81C185.317 121.651 185.635 121.81 185.794 122.049L186.511 123.482C186.67 123.72 186.511 124.039 186.272 124.198C186.192 124.278 186.113 124.278 186.033 124.278ZM183.566 119.342C183.406 119.342 183.168 119.263 183.088 119.024L182.372 117.591C182.212 117.352 182.372 117.034 182.61 116.875C182.849 116.716 183.168 116.875 183.327 117.114L184.043 118.546C184.202 118.785 184.043 119.104 183.804 119.263C183.725 119.263 183.645 119.342 183.566 119.342ZM181.018 114.328C180.859 114.328 180.62 114.248 180.541 114.009L179.824 112.577C179.665 112.338 179.824 112.019 180.063 111.86C180.302 111.701 180.62 111.86 180.78 112.099L181.496 113.532C181.655 113.771 181.496 114.089 181.257 114.248C181.178 114.328 181.098 114.328 181.018 114.328ZM178.551 109.313C178.392 109.313 178.153 109.233 178.073 108.995L177.357 107.562C177.198 107.323 177.357 107.005 177.596 106.845C177.834 106.686 178.153 106.845 178.312 107.084L179.028 108.517C179.188 108.756 179.028 109.074 178.79 109.233C178.71 109.313 178.63 109.313 178.551 109.313ZM176.004 104.378C175.844 104.378 175.606 104.298 175.526 104.059L174.81 102.627C174.651 102.388 174.81 102.069 175.048 101.91C175.287 101.751 175.606 101.91 175.765 102.149L176.481 103.582C176.64 103.821 176.481 104.139 176.242 104.298C176.163 104.378 176.083 104.378 176.004 104.378ZM173.536 99.3631C173.377 99.3631 173.138 99.2835 173.059 99.0447L172.342 97.612C172.183 97.3732 172.342 97.0548 172.581 96.8956C172.82 96.7364 173.138 96.8956 173.297 97.1344L174.014 98.5671C174.173 98.8059 174.014 99.1243 173.775 99.2835C173.695 99.3631 173.616 99.3631 173.536 99.3631ZM171.069 94.428C170.909 94.428 170.671 94.3484 170.591 94.1096L169.875 92.6768C169.715 92.438 169.875 92.1196 170.113 91.9604C170.352 91.8012 170.671 91.9604 170.83 92.1992L171.546 93.632C171.705 93.8708 171.546 94.1892 171.307 94.3484C171.228 94.3484 171.148 94.428 171.069 94.428ZM168.521 89.4133C168.362 89.4133 168.123 89.3337 168.044 89.0949L167.327 87.6621C167.168 87.4233 167.327 87.1049 167.566 86.9457C167.805 86.7865 168.123 86.9457 168.283 87.1845L168.999 88.6173C169.158 88.8561 168.999 89.1745 168.76 89.3337C168.681 89.4133 168.601 89.4133 168.521 89.4133ZM166.054 84.4782C165.895 84.4782 165.656 84.3986 165.576 84.1598L164.86 82.727C164.701 82.4882 164.86 82.1698 165.099 82.0106C165.337 81.8514 165.656 82.0106 165.815 82.2494L166.531 83.6822C166.691 83.921 166.531 84.2394 166.293 84.3986C166.213 84.3986 166.133 84.4782 166.054 84.4782ZM163.586 79.4634C163.427 79.4634 163.188 79.3838 163.109 79.145L162.392 77.7123C162.233 77.4735 162.392 77.1551 162.631 76.9959C162.87 76.8367 163.188 76.9959 163.347 77.2347L164.064 78.6674C164.223 78.9062 164.064 79.2246 163.825 79.3838C163.745 79.4634 163.666 79.4634 163.586 79.4634ZM161.039 74.4487C160.88 74.4487 160.641 74.3691 160.562 74.1303L159.845 72.6975C159.686 72.4587 159.845 72.1403 160.084 71.9811C160.323 71.8219 160.641 71.9811 160.8 72.2199L161.517 73.6527C161.676 73.8915 161.517 74.2099 161.278 74.3691C161.198 74.4487 161.119 74.4487 161.039 74.4487ZM158.572 69.5136C158.412 69.5136 158.174 69.434 158.094 69.1952L157.378 67.7624C157.218 67.5236 157.378 67.2052 157.616 67.046C157.855 66.8868 158.174 67.046 158.333 67.2848L159.049 68.7176C159.208 68.9564 159.049 69.2748 158.81 69.434C158.731 69.5136 158.651 69.5136 158.572 69.5136Z" fill="#4497CB"/>
<path d="M165.658 66.4091C165.498 66.4091 165.339 66.3295 165.18 66.1704C165.18 66.1704 163.031 62.4292 161.837 59.9616C160.722 57.7329 158.096 55.7429 158.016 55.7429C157.777 55.5837 157.698 55.2653 157.936 55.0265C158.096 54.7877 158.414 54.7081 158.653 54.9469C158.732 55.0265 161.518 57.0165 162.792 59.5637C163.986 61.9516 166.135 65.6928 166.135 65.6928C166.294 65.9316 166.215 66.25 165.976 66.4091C165.896 66.4091 165.737 66.4091 165.658 66.4091Z" fill="#111111"/>
<path d="M132.384 47.3056C131.588 47.3056 130.235 47.1464 129.439 46.1116C128.563 44.9972 128.563 43.246 129.598 40.8581C132.384 34.0922 138.354 32.8186 140.025 32.8186H140.105C142.413 32.8982 144.085 34.0126 145.359 36.2414C146.553 38.3905 144.563 41.8133 144.483 41.9725C144.324 42.2113 144.005 42.2909 143.767 42.1317C143.528 41.9725 143.448 41.6541 143.607 41.4153C144.085 40.5397 145.199 38.0721 144.483 36.7189C143.369 34.729 142.095 33.933 140.105 33.8534C138.752 33.8534 133.26 34.9678 130.633 41.2561C129.837 43.246 129.678 44.6788 130.314 45.4748C131.11 46.5096 132.941 46.1912 133.021 46.1912C133.339 46.1116 133.578 46.3504 133.578 46.5892C133.658 46.9076 133.419 47.1464 133.18 47.1464C133.1 47.3056 132.862 47.3056 132.384 47.3056Z" fill="#111111"/>
<path d="M155.627 68.5586C155.07 68.5586 154.513 68.479 154.115 68.3994C153.876 68.3198 153.717 68.1606 153.717 67.9218L153.399 60.9171C153.399 60.6783 153.478 60.5191 153.637 60.4395C153.797 60.3599 154.035 60.3599 154.195 60.5191L161.518 66.1706C161.757 66.3298 161.757 66.6482 161.597 66.887C161.438 67.1258 161.12 67.1258 160.881 66.9666L160.005 66.2502C159.13 68.0014 157.219 68.5586 155.627 68.5586ZM154.752 67.4442C155.707 67.6034 158.254 67.683 159.289 65.5338L154.593 61.9519L154.752 67.4442Z" fill="#111111"/>
</svg>
