<?xml version="1.0" encoding="utf-8"?>
<!-- Svg Vector Icons : http://www.onlinewebfonts.com/icon -->
<!DOCTYPE svg PUBLIC "-//W3C//DTD SVG 1.1//EN" "http://www.w3.org/Graphics/SVG/1.1/DTD/svg11.dtd">
<svg version="1.1" xmlns="http://www.w3.org/2000/svg" xmlns:xlink="http://www.w3.org/1999/xlink" x="0px" y="0px" viewBox="0 0 1000 1000" enable-background="new 0 0 1000 1000" xml:space="preserve">
  <metadata> Svg Vector Icons : http://www.onlinewebfonts.com/icon </metadata>
  <g>
    <path fill="#3A97C9" d="M500,73.5l-490,853h980L500,73.5L500,73.5z M500,146.4l427.3,743.8H72.7L500,146.4L500,146.4z"/>
    <path fill="#3A97C9" d="M500,779.6c-22.7,0-41.1-18.4-41.1-41.1c0-22.7,18.4-41.1,41.1-41.1c22.7,0,41.1,18.4,41.1,41.1C541.1,761.2,522.7,779.6,500,779.6L500,779.6z"/>
    <path fill="#3A97C9" d="M500,656.4c-11.3,0-20.5-18.4-20.5-41.1l-20.5-184.8c0-22.7,18.4-41.1,41.1-41.1c22.7,0,41.1,18.4,41.1,41.1l-20.5,184.8C520.5,638,511.3,656.4,500,656.4L500,656.4z"/>
    <path fill="#3A97C9" d="M500,656.4"/>
  </g>
</svg>