<svg width="78" height="78" viewBox="0 0 78 78" fill="none" xmlns="http://www.w3.org/2000/svg">
<path d="M62.5684 38.7319C62.5684 51.408 52.1455 61.7075 39.2588 61.7075C26.3722 61.7075 15.9492 51.408 15.9492 38.7319C15.9492 26.0559 26.3722 15.7563 39.2588 15.7563C52.1455 15.7563 62.5684 26.0559 62.5684 38.7319Z" stroke="#3A97C9" stroke-width="2" stroke-linecap="round" stroke-linejoin="round"/>
<path d="M1 21.3111V1H20.5274" stroke="#3A97C9" stroke-width="2" stroke-linecap="round" stroke-linejoin="round"/>
<path d="M56.4059 0.999999L77 1L77 20.2591" stroke="#3A97C9" stroke-width="2" stroke-linecap="round" stroke-linejoin="round"/>
<path d="M77 56.6889L77 77L57.4726 77" stroke="#3A97C9" stroke-width="2" stroke-linecap="round" stroke-linejoin="round"/>
<path d="M20.5293 77L1.00195 77L1.00195 57.7409" stroke="#3A97C9" stroke-width="2" stroke-linecap="round" stroke-linejoin="round"/>
<path d="M30.5941 30.6185L11.0059 11.2998" stroke="#3A97C9" stroke-width="2" stroke-linecap="round" stroke-linejoin="round"/>
<path d="M68.1703 67.4L48.582 48.0813" stroke="#3A97C9" stroke-width="2" stroke-linecap="round" stroke-linejoin="round"/>
<path d="M66.594 11.2998L47.5078 30.4788" stroke="#3A97C9" stroke-width="2" stroke-linecap="round" stroke-linejoin="round"/>
<path d="M30.5933 47.4756L12.9629 65.1918" stroke="#3A97C9" stroke-width="2" stroke-linecap="round" stroke-linejoin="round"/>
<ellipse cx="39.2574" cy="38.7326" rx="2.86674" ry="2.82735" fill="#3A97C9"/>
</svg>
