<svg width="306" height="524" viewBox="0 0 306 524" fill="none" xmlns="http://www.w3.org/2000/svg">
<path d="M41.6475 186.837C34.3245 201.165 43.7966 215.97 46.0253 218.915C48.2541 221.86 30.5038 233.322 59.3182 242.715C88.1326 252.107 106.042 260.147 123.474 262.614C140.906 265.082 153.88 267.39 159.85 268.345C165.82 269.38 188.744 278.613 191.849 279.011C194.953 279.409 201.719 279.091 201.719 279.091C201.719 279.091 206.813 278.613 208.325 276.624C208.644 276.146 210.554 274.315 210.554 274.315C210.554 274.315 213.658 274.554 216.206 273.201C219.151 271.609 218.275 270.176 218.355 269.141C218.355 268.743 218.673 268.425 219.071 268.505C220.106 268.584 222.016 268.266 223.21 265.48C223.926 263.967 223.688 262.933 223.29 262.296C222.971 261.739 223.131 260.943 223.688 260.545C224.802 259.828 226.076 260.226 226.314 257.361C226.553 254.973 225.28 253.699 223.29 252.585C221.3 251.55 220.026 251.232 220.026 251.232L213.738 249.719C213.42 248.048 211.987 246.774 210.315 246.615C207.131 246.297 202.355 245.819 201.4 245.74C200.923 245.66 199.251 245.501 197.261 245.262C192.485 244.705 187.63 244.705 182.774 245.182C182.058 245.262 181.421 245.262 180.864 245.342C177.76 245.501 172.506 247.013 168.606 245.899C164.706 244.784 154.119 242.237 147.592 240.009C141.065 237.78 124.429 230.775 118.539 227.671C112.649 224.567 102.858 215.89 87.4162 211.672C87.4958 211.672 48.9705 172.589 41.6475 186.837Z" fill="#515151"/>
<path d="M26.762 85.1907C26.2844 85.7479 25.8864 86.2255 25.4884 86.7827C23.8169 89.0114 18.643 95.3793 18.0858 95.9365C13.6283 100.792 0.813082 120.214 0.176299 139.317C-0.460483 158.421 0.574289 174.818 4.15619 186.121C7.73809 197.424 15.9367 217.642 17.3694 232.765C18.8022 247.889 10.2852 284.902 10.7628 299.07C11.2404 313.239 12.514 325.815 32.493 339.108C44.5123 347.068 58.2031 348.58 65.6853 346.51C71.6551 344.839 78.8189 345.555 84.4704 347.864C93.067 351.445 105.245 355.983 112.17 356.699C123.712 357.893 165.979 360.838 165.979 360.838C165.979 360.838 161.044 395.384 163.989 408.756C166.854 422.208 170.436 440.993 172.028 445.849C173.779 451.341 177.998 473.708 178.873 481.349C179.192 487.478 178.396 495.518 176.326 503.796C174.336 512.074 175.61 516.213 178.714 518.362C181.819 520.511 187.629 520.591 193.599 520.193C199.569 519.715 208.723 519.238 213.498 518.601C227.667 516.691 238.651 522.501 242.79 522.66C245.576 522.74 249.715 523.536 253.457 522.422C256.083 521.626 256.959 522.82 259.506 522.82C259.506 522.82 263.963 523.456 265.794 522.262C267.307 521.307 268.501 519.954 268.421 517.009C268.341 515.656 267.227 514.541 265.874 514.382L262.61 514.143C262.61 514.143 259.824 511.835 257.596 511.358C255.367 510.8 253.695 510.562 252.74 510.482C251.865 510.402 246.93 506.661 242.95 504.353C238.97 502.045 234.512 500.134 224.642 495.438C218.434 492.493 210.872 479.678 208.802 468.693C207.29 460.574 208.325 452.216 208.006 443.699C207.688 434.227 209.041 421.173 208.961 414.487C208.961 404.537 209.996 387.264 209.041 380.897C208.086 374.529 209.837 364.818 209.917 362.191C209.996 359.644 214.135 350.411 210.713 341.098C207.29 331.785 197.818 324.064 195.032 323.427C192.246 322.711 189.699 321.278 186.037 319.686C182.296 318.174 173.381 311.249 164.466 304.403C155.551 297.478 131.513 289.041 124.19 287.051C116.867 284.981 105.325 281.957 93.9425 281.001C93.9425 281.001 95.7733 268.345 95.5345 264.365C95.2957 260.386 94.6589 250.675 94.6589 250.675C94.6589 250.675 97.3652 237.382 96.8877 229.024C96.4101 220.666 95.6937 218.597 96.6489 214.139C97.604 209.682 97.8428 199.334 96.8877 195.593C95.9325 191.852 97.6836 157.545 89.7239 141.864C82.0029 126.582 79.5353 117.03 68.2324 104.453C66.4017 102.384 67.5957 97.2896 72.0531 94.5833C76.5106 91.877 82.1621 88.8522 83.9132 88.9318C88.5299 89.0114 92.9874 90.7626 95.0569 89.6482C97.1264 88.5339 98.5592 87.8175 98.798 85.9867C99.0368 84.2356 98.4 82.8028 99.4348 81.6884C100.47 80.5741 101.584 80.0965 102.539 79.5393C103.574 78.9025 104.609 77.7085 103.176 76.037C103.176 76.037 105.882 76.1962 106.121 75.0022C106.36 73.8083 105.405 72.2959 106.36 71.1019C107.235 69.9876 107.554 68.9528 107.554 68.9528C107.554 68.9528 109.544 69.3508 110.578 68.9528C111.613 68.4752 113.126 67.9976 113.524 66.9628C113.922 65.9281 112.489 62.9034 112.17 60.9134C111.852 58.9235 111.693 57.2519 110.26 54.9436C108.827 52.6352 110.738 49.4513 111.136 47.541C111.534 45.6306 111.613 43.8795 111.613 42.2875C111.613 40.6956 111.295 38.3076 111.215 34.5665C111.136 30.8254 110.738 24.6168 107.554 19.0449C104.449 13.4731 94.8977 5.43372 90.3606 3.52337C85.744 1.61302 78.421 -0.21773 72.9287 0.0210638C67.4365 0.259857 62.183 0.18026 53.3476 6.30929C44.5123 12.4383 41.01 23.6616 40.7712 25.2536C40.5324 26.8455 37.7465 36.3177 41.5672 45.4714C42.4427 47.541 41.01 57.9683 40.5324 59.0031C39.9752 60.0378 34.9605 75.5594 26.762 85.1907Z" fill="#515151"/>
<path d="M7.8191 136.691C7.7395 136.691 7.7395 136.691 7.65991 136.691C7.02312 136.611 6.54554 135.974 6.62513 135.337C9.49066 114.642 17.928 104.215 26.047 94.0261C28.5145 91.0014 30.8229 88.0563 32.972 84.952C44.7525 67.6793 46.9812 54.5456 46.9812 54.3864C47.0608 53.7496 47.6976 53.272 48.3344 53.4312C48.9712 53.5108 49.4488 54.1476 49.2896 54.7844C49.2896 55.3416 47.0608 68.5548 34.962 86.3051C32.7332 89.5687 30.4249 92.4342 27.9574 95.5385C19.9976 105.409 11.8786 115.677 9.01307 135.656C8.93347 136.293 8.45588 136.691 7.8191 136.691Z" fill="#4497CB"/>
<path d="M219.627 277.26C219.468 277.26 219.309 277.181 219.229 277.021C219.229 276.942 219.229 276.942 219.229 276.862L114.319 68.316C114.24 68.1568 114.319 67.918 114.479 67.7588C114.638 67.6792 114.877 67.7588 115.036 67.918L220.025 276.623C220.105 276.703 220.105 276.862 220.025 276.942C220.025 277.021 219.946 277.101 219.786 277.181C219.707 277.26 219.707 277.26 219.627 277.26Z" fill="#4497CB"/>
<path d="M109.225 44.5957H109.146C109.066 44.5957 104.927 43.6405 102.3 42.8445C99.9125 42.1281 96.649 42.7649 96.649 42.7649C96.3306 42.8445 96.0918 42.6057 96.0122 42.3669C95.9326 42.0485 96.1714 41.8097 96.4102 41.7301C96.5694 41.7301 99.9125 41.0138 102.539 41.8097C105.086 42.6057 109.305 43.4813 109.305 43.5609C109.623 43.6405 109.783 43.8793 109.703 44.1977C109.703 44.4365 109.464 44.5957 109.225 44.5957Z" fill="#111111"/>
<path d="M102.46 55.8987C102.301 55.8987 102.221 55.8191 102.142 55.7395L96.8088 51.2024C96.6496 51.0432 96.57 50.884 96.6496 50.6452C96.7292 50.486 96.8884 50.3268 97.0476 50.2472L106.201 48.6553C106.44 48.5757 106.759 48.8145 106.838 49.0533C106.918 49.3716 106.679 49.6104 106.44 49.69L105.326 49.9288C106.281 52.6352 104.211 54.9435 102.858 55.8191C102.619 55.8987 102.54 55.8987 102.46 55.8987ZM98.2416 51.1228L102.46 54.7047C103.177 54.0679 105.007 52.3168 104.132 50.088L98.2416 51.1228Z" fill="#111111"/>
<path d="M103.335 59.401C103.255 59.401 103.176 59.401 103.176 59.3214C103.017 59.2418 102.937 59.003 103.017 58.7642L108.907 48.0981C108.986 47.9389 109.225 47.8593 109.464 47.9389C109.623 48.0185 109.703 48.2573 109.623 48.4961L103.733 59.1622C103.574 59.3214 103.415 59.401 103.335 59.401Z" fill="#FAFAFA"/>
<path d="M109.226 48.7348H109.147L77.7057 39.1831C77.4669 39.1035 77.3873 38.8647 77.4669 38.7055C77.5465 38.5463 77.7853 38.3871 77.9444 38.4667L109.386 48.0185C109.624 48.0981 109.704 48.3369 109.624 48.4961C109.545 48.5757 109.386 48.7348 109.226 48.7348Z" fill="#FAFAFA"/>
<path d="M112.331 69.5894C111.614 69.5894 110.977 69.271 110.659 68.6342L107.714 63.4604C107.396 62.8236 107.157 62.1868 107.236 61.4704V60.7541C107.236 60.5949 107.316 60.5153 107.475 60.4357L112.331 57.9681C112.49 57.8885 112.649 57.8885 112.729 57.9681L113.286 58.3661C113.843 58.7641 114.321 59.3213 114.559 59.9581L117.027 65.3707C117.425 66.3259 117.107 67.4403 116.151 67.9179L113.206 69.4302C112.888 69.5098 112.649 69.5894 112.331 69.5894ZM107.953 60.9929V61.4704C107.953 62.0276 108.112 62.5848 108.351 63.0624L111.296 68.2363C111.614 68.7934 112.251 68.9526 112.808 68.7139L115.753 67.2015C116.311 66.8831 116.549 66.2463 116.311 65.6891L113.843 60.2765C113.604 59.7989 113.286 59.3213 112.808 59.0029L112.41 58.7641L107.953 60.9929Z" fill="#FAFAFA"/>
<path d="M107.555 61.152C107.396 61.152 107.316 61.0724 107.236 60.9928L104.451 56.5354C104.371 56.3762 104.371 56.2966 104.451 56.1374L107.873 49.8491C107.953 49.6899 108.032 49.6104 108.192 49.6104C108.351 49.6104 108.51 49.6899 108.51 49.8491L112.649 58.1273C112.729 58.2865 112.649 58.5253 112.49 58.6845L107.634 61.152C107.714 61.0724 107.634 61.152 107.555 61.152ZM105.247 56.217L107.714 60.1969L111.933 58.0477L108.271 50.8043L105.247 56.217Z" fill="#FAFAFA"/>
<path d="M69.0297 51.5208C68.7909 51.5208 68.4725 51.5208 68.2337 51.3616C66.8805 50.9636 65.9254 49.4513 65.3682 46.9041C63.8558 39.5811 68.3133 35.1236 69.5869 34.3277C71.5768 33.0541 73.5668 33.0541 75.8751 34.2481C78.0242 35.3624 78.3426 39.3423 78.3426 39.5015C78.3426 39.8199 78.1834 40.0587 77.865 40.0587C77.5467 40.0587 77.3079 39.8995 77.3079 39.5811C77.2283 38.626 76.7507 35.9196 75.3975 35.2032C73.4076 34.1685 71.8156 34.2481 70.1441 35.2828C69.0297 35.9992 65.0498 40.0587 66.403 46.7449C66.8009 48.8941 67.5969 50.1676 68.5521 50.4064C69.7461 50.8044 71.1788 49.5309 71.1788 49.5309C71.4176 49.3717 71.736 49.3717 71.8952 49.5309C72.0544 49.7696 72.0544 50.088 71.8952 50.2472C71.8156 50.3268 70.542 51.5208 69.0297 51.5208Z" fill="#111111"/>
<path d="M120.132 302.334C119.893 302.334 119.654 302.095 119.654 301.856V300.821C119.654 300.503 119.893 300.264 120.132 300.264C120.37 300.264 120.609 300.503 120.609 300.742V301.219H120.689C121.007 301.219 121.246 301.458 121.246 301.697C121.246 302.015 121.007 302.254 120.768 302.254L120.132 302.334ZM124.669 302.174C124.43 302.174 124.191 301.936 124.191 301.697C124.191 301.378 124.43 301.14 124.669 301.14C125.226 301.14 125.704 301.06 126.261 301.06C126.5 301.06 126.818 301.299 126.818 301.538C126.818 301.856 126.579 302.095 126.34 302.095C125.783 302.095 125.226 302.174 124.669 302.174ZM130.241 301.856C130.002 301.856 129.763 301.617 129.763 301.378C129.763 301.06 129.922 300.821 130.241 300.821C130.798 300.821 131.275 300.742 131.833 300.742C132.151 300.742 132.39 300.901 132.39 301.219C132.39 301.538 132.231 301.776 131.912 301.776C131.355 301.776 130.798 301.856 130.241 301.856ZM135.812 301.458C135.574 301.458 135.335 301.219 135.335 300.98C135.335 300.662 135.494 300.423 135.812 300.423C136.37 300.344 136.847 300.344 137.404 300.264C137.643 300.184 137.962 300.423 137.962 300.742C137.962 301.06 137.802 301.299 137.484 301.299C136.847 301.299 136.37 301.378 135.812 301.458ZM141.305 300.821C141.066 300.821 140.827 300.662 140.827 300.344C140.827 300.025 140.986 299.786 141.305 299.786C141.862 299.707 142.339 299.627 142.897 299.627C143.215 299.627 143.454 299.786 143.454 300.105C143.454 300.423 143.295 300.662 142.976 300.662C142.419 300.742 141.941 300.821 141.305 300.821C141.384 300.821 141.305 300.821 141.305 300.821ZM146.797 300.184C146.558 300.184 146.319 300.025 146.319 299.707C146.319 299.388 146.479 299.15 146.797 299.15C147.354 299.07 147.832 298.99 148.389 298.911C148.707 298.911 148.946 299.07 148.946 299.309C149.026 299.627 148.787 299.866 148.548 299.866C147.991 300.025 147.434 300.105 146.797 300.184C146.877 300.184 146.877 300.184 146.797 300.184ZM152.369 299.309C152.13 299.309 151.891 299.15 151.891 298.911C151.812 298.592 152.05 298.354 152.289 298.354C152.846 298.274 153.324 298.195 153.881 298.115C154.12 298.035 154.438 298.274 154.438 298.513C154.518 298.831 154.279 299.07 154.04 299.07C153.483 299.15 153.006 299.229 152.448 299.309C152.369 299.309 152.369 299.309 152.369 299.309ZM157.781 298.354C157.543 298.354 157.304 298.195 157.304 297.956C157.224 297.637 157.463 297.399 157.702 297.319C158.259 297.239 158.737 297.16 159.294 297.001C159.612 296.921 159.851 297.16 159.931 297.399C160.01 297.717 159.771 297.956 159.533 298.035C158.975 298.115 158.498 298.274 157.941 298.354C157.861 298.354 157.861 298.354 157.781 298.354ZM119.972 297.319C119.734 297.319 119.495 297.08 119.495 296.841L119.415 295.249C119.415 294.931 119.654 294.692 119.893 294.692C120.132 294.692 120.45 294.931 120.45 295.17L120.53 296.762C120.45 297.08 120.211 297.319 119.972 297.319ZM163.274 297.239C163.035 297.239 162.796 297.08 162.796 296.841C162.717 296.523 162.876 296.284 163.194 296.205C163.751 296.125 164.229 295.966 164.706 295.886C164.945 295.807 165.264 295.966 165.343 296.284C165.423 296.603 165.264 296.841 164.945 296.921C164.388 297.001 163.91 297.16 163.353 297.239H163.274ZM168.686 296.045C168.448 296.045 168.209 295.886 168.209 295.647C168.129 295.409 168.288 295.09 168.607 295.011C169.084 294.851 169.642 294.772 170.119 294.613C170.358 294.533 170.676 294.692 170.756 295.011C170.836 295.249 170.676 295.568 170.358 295.647C169.88 295.807 169.323 295.886 168.846 296.045C168.766 296.045 168.766 296.045 168.686 296.045ZM174.099 294.692C173.86 294.692 173.621 294.533 173.621 294.294C173.542 294.055 173.701 293.737 174.019 293.657C174.497 293.498 175.054 293.419 175.532 293.259C175.771 293.18 176.089 293.339 176.169 293.657C176.248 293.896 176.089 294.215 175.771 294.294C175.293 294.453 174.736 294.533 174.258 294.692C174.179 294.692 174.179 294.692 174.099 294.692ZM179.512 293.18C179.273 293.18 179.114 293.021 179.034 292.782C178.954 292.543 179.114 292.225 179.352 292.145C179.83 291.986 180.387 291.827 180.865 291.667C181.183 291.588 181.422 291.747 181.502 291.986C181.581 292.225 181.422 292.543 181.183 292.623C180.706 292.782 180.148 292.941 179.671 293.1C179.591 293.18 179.512 293.18 179.512 293.18ZM119.734 291.747C119.495 291.747 119.256 291.508 119.256 291.27L119.177 289.678C119.177 289.359 119.415 289.12 119.654 289.12C119.893 289.12 120.132 289.359 120.132 289.598L120.211 291.19C120.291 291.508 120.052 291.747 119.734 291.747ZM184.765 291.588C184.526 291.588 184.367 291.429 184.288 291.19C184.208 290.951 184.367 290.633 184.606 290.553C185.084 290.394 185.641 290.235 186.118 290.076C186.357 289.996 186.675 290.155 186.755 290.394C186.835 290.633 186.675 290.951 186.437 291.031C185.959 291.19 185.402 291.349 184.924 291.508C184.924 291.588 184.845 291.588 184.765 291.588ZM190.098 289.837C189.859 289.837 189.7 289.678 189.621 289.518C189.541 289.28 189.7 288.961 189.939 288.882C190.417 288.722 190.974 288.563 191.451 288.324C191.69 288.245 192.009 288.404 192.088 288.643C192.168 288.882 192.009 289.2 191.77 289.28C191.292 289.439 190.735 289.598 190.257 289.837C190.178 289.837 190.178 289.837 190.098 289.837ZM195.352 288.006C195.113 288.006 194.954 287.847 194.874 287.688C194.794 287.449 194.874 287.13 195.192 287.051C195.67 286.892 196.148 286.653 196.705 286.494C196.944 286.414 197.262 286.494 197.342 286.812C197.421 287.051 197.342 287.369 197.023 287.449C196.546 287.608 195.988 287.847 195.511 288.006C195.431 288.006 195.431 288.006 195.352 288.006ZM119.575 286.175C119.336 286.175 119.097 285.936 119.097 285.698L119.017 284.106C119.017 283.787 119.256 283.549 119.495 283.549C119.813 283.549 120.052 283.787 120.052 284.026L120.132 285.618C120.132 285.936 119.893 286.175 119.575 286.175ZM200.525 286.016C200.287 286.016 200.128 285.857 200.048 285.698C199.968 285.459 200.048 285.14 200.366 285.061C200.844 284.902 201.321 284.663 201.879 284.504C202.117 284.424 202.436 284.504 202.515 284.822C202.595 285.061 202.515 285.379 202.197 285.459C201.719 285.698 201.242 285.857 200.685 286.016C200.685 286.016 200.605 286.016 200.525 286.016ZM205.699 283.867C205.461 283.867 205.301 283.787 205.222 283.549C205.142 283.31 205.222 282.991 205.461 282.832C205.938 282.593 206.416 282.434 206.893 282.195C207.132 282.116 207.451 282.195 207.61 282.434C207.689 282.673 207.61 282.991 207.371 283.151C206.893 283.389 206.416 283.549 205.938 283.787C205.859 283.867 205.779 283.867 205.699 283.867ZM210.794 281.638C210.634 281.638 210.396 281.559 210.316 281.32C210.236 281.081 210.316 280.763 210.555 280.603C211.032 280.365 211.51 280.126 211.988 279.967C212.226 279.807 212.545 279.967 212.704 280.205C212.863 280.444 212.704 280.763 212.465 280.922C211.988 281.161 211.51 281.399 211.032 281.559C210.953 281.638 210.873 281.638 210.794 281.638ZM119.415 280.603C119.177 280.603 118.938 280.365 118.938 280.126L118.858 278.534C118.858 278.215 119.097 277.977 119.336 277.977C119.654 277.977 119.893 278.215 119.893 278.454L119.972 280.046C119.893 280.365 119.654 280.603 119.415 280.603ZM215.808 279.25C215.649 279.25 215.41 279.171 215.331 278.932C215.172 278.693 215.331 278.375 215.569 278.215C216.047 277.977 216.525 277.738 217.002 277.499C217.241 277.34 217.559 277.499 217.719 277.738C217.878 277.977 217.719 278.295 217.48 278.454C217.002 278.693 216.525 278.932 216.047 279.171C215.967 279.25 215.888 279.25 215.808 279.25ZM220.823 276.783C220.664 276.783 220.425 276.703 220.345 276.464C220.186 276.226 220.345 275.907 220.584 275.748C221.062 275.509 221.539 275.27 222.017 275.032C222.256 274.872 222.574 275.032 222.733 275.27C222.892 275.509 222.733 275.828 222.494 275.987C222.017 276.226 221.539 276.464 221.062 276.703C220.982 276.783 220.903 276.783 220.823 276.783ZM119.177 275.032C118.938 275.032 118.699 274.793 118.699 274.554L118.619 272.962C118.619 272.644 118.858 272.405 119.097 272.405C119.415 272.405 119.654 272.644 119.654 272.882L119.734 274.474C119.734 274.793 119.495 275.032 119.177 275.032ZM225.758 274.156C225.599 274.156 225.36 274.076 225.28 273.917C225.121 273.678 225.201 273.36 225.519 273.201C225.997 272.962 226.474 272.723 226.872 272.405C227.111 272.246 227.43 272.325 227.589 272.644C227.748 272.882 227.668 273.201 227.35 273.36C226.872 273.599 226.395 273.838 225.917 274.156C225.917 274.156 225.838 274.156 225.758 274.156ZM230.613 271.45C230.454 271.45 230.295 271.37 230.136 271.211C229.977 270.972 230.056 270.654 230.295 270.494C230.773 270.256 231.25 269.937 231.648 269.698C231.887 269.539 232.205 269.619 232.365 269.858C232.524 270.096 232.444 270.415 232.205 270.574C231.728 270.813 231.25 271.131 230.852 271.37C230.773 271.45 230.693 271.45 230.613 271.45ZM119.017 269.46C118.779 269.46 118.54 269.221 118.54 268.982L118.46 267.39C118.46 267.072 118.699 266.833 118.938 266.833C119.177 266.833 119.415 267.072 119.415 267.311L119.495 268.903C119.495 269.221 119.336 269.46 119.017 269.46ZM235.389 268.664C235.23 268.664 235.071 268.584 234.912 268.425C234.753 268.186 234.832 267.868 235.071 267.709C235.549 267.47 235.947 267.151 236.424 266.913C236.663 266.753 236.981 266.833 237.14 267.072C237.3 267.311 237.22 267.629 236.981 267.788C236.504 268.027 236.106 268.345 235.628 268.584C235.549 268.584 235.469 268.664 235.389 268.664ZM240.086 265.719C239.926 265.719 239.767 265.639 239.688 265.48C239.528 265.241 239.608 264.923 239.847 264.763C240.324 264.445 240.722 264.206 241.2 263.888C241.439 263.729 241.757 263.808 241.916 264.047C242.076 264.286 241.996 264.604 241.757 264.763C241.28 265.082 240.882 265.321 240.404 265.639C240.324 265.639 240.245 265.719 240.086 265.719ZM118.779 263.888C118.54 263.888 118.301 263.649 118.301 263.41L118.221 261.818C118.221 261.5 118.46 261.261 118.699 261.261C118.938 261.261 119.177 261.5 119.177 261.739L119.256 263.331C119.336 263.649 119.097 263.888 118.779 263.888C118.858 263.888 118.779 263.888 118.779 263.888ZM244.782 262.614C244.623 262.614 244.464 262.535 244.384 262.376C244.225 262.137 244.304 261.818 244.543 261.659C245.021 261.341 245.419 261.102 245.817 260.784C246.055 260.624 246.374 260.704 246.533 260.943C246.692 261.182 246.613 261.5 246.374 261.659C245.896 261.978 245.498 262.296 245.021 262.535C244.941 262.614 244.861 262.614 244.782 262.614ZM249.319 259.43C249.16 259.43 249.001 259.351 248.921 259.192C248.762 258.953 248.841 258.634 249.08 258.475C249.478 258.157 249.956 257.838 250.354 257.52C250.593 257.361 250.911 257.44 251.07 257.6C251.229 257.759 251.15 258.157 250.991 258.316C250.593 258.634 250.115 258.953 249.717 259.271C249.558 259.43 249.478 259.43 249.319 259.43ZM118.619 258.396C118.381 258.396 118.142 258.157 118.142 257.918L118.062 256.326C118.062 256.008 118.301 255.769 118.54 255.769C118.858 255.769 119.097 256.008 119.097 256.246L119.177 257.838C119.177 258.077 118.938 258.316 118.619 258.396C118.619 258.316 118.619 258.396 118.619 258.396ZM253.856 256.167C253.697 256.167 253.538 256.087 253.458 255.928C253.299 255.689 253.299 255.371 253.538 255.212C253.936 254.893 254.413 254.575 254.811 254.257C255.05 254.097 255.368 254.097 255.528 254.336C255.687 254.575 255.687 254.893 255.448 255.052C255.05 255.371 254.572 255.689 254.174 256.008C254.095 256.167 253.936 256.167 253.856 256.167ZM258.314 252.824C258.154 252.824 257.995 252.744 257.916 252.665C257.756 252.426 257.756 252.107 257.995 251.948C258.393 251.63 258.791 251.311 259.269 250.993C259.507 250.834 259.826 250.834 259.985 251.073C260.144 251.311 260.144 251.63 259.905 251.789C259.507 252.107 259.109 252.426 258.632 252.744C258.473 252.744 258.393 252.824 258.314 252.824ZM118.46 252.824C118.221 252.824 117.983 252.585 117.983 252.346L117.903 250.754C117.903 250.436 118.142 250.197 118.381 250.197C118.619 250.197 118.858 250.436 118.858 250.675L118.938 252.267C118.938 252.505 118.699 252.744 118.46 252.824ZM262.612 249.321C262.453 249.321 262.293 249.242 262.214 249.162C262.055 248.923 262.055 248.605 262.293 248.446C262.691 248.127 263.089 247.809 263.487 247.411C263.726 247.252 264.045 247.252 264.204 247.491C264.363 247.729 264.363 248.048 264.124 248.207C263.726 248.525 263.328 248.923 262.93 249.242C262.851 249.242 262.771 249.321 262.612 249.321ZM118.221 247.252C117.983 247.252 117.744 247.013 117.744 246.774L117.664 245.182C117.664 244.864 117.903 244.625 118.142 244.625C118.381 244.625 118.699 244.864 118.699 245.103L118.779 246.695C118.779 246.934 118.54 247.172 118.221 247.252ZM266.91 245.74C266.751 245.74 266.592 245.66 266.512 245.58C266.353 245.342 266.353 245.023 266.592 244.864C266.99 244.546 267.388 244.148 267.786 243.829C268.024 243.67 268.343 243.67 268.502 243.909C268.661 244.148 268.661 244.466 268.422 244.625C268.024 244.944 267.626 245.342 267.228 245.66C267.149 245.66 266.99 245.74 266.91 245.74ZM271.049 241.998C270.89 241.998 270.731 241.919 270.651 241.839C270.492 241.6 270.492 241.282 270.651 241.123C271.049 240.804 271.447 240.406 271.845 240.088C272.084 239.929 272.402 239.929 272.562 240.088C272.721 240.327 272.721 240.645 272.562 240.804C272.164 241.202 271.766 241.521 271.368 241.919C271.288 241.998 271.208 241.998 271.049 241.998ZM118.062 241.68C117.823 241.68 117.585 241.441 117.585 241.202L117.505 239.611C117.505 239.292 117.744 239.053 117.983 239.053C118.221 239.053 118.46 239.292 118.46 239.531L118.54 241.123C118.54 241.362 118.381 241.6 118.062 241.68ZM275.188 238.257C275.029 238.257 274.949 238.178 274.79 238.098C274.631 237.859 274.631 237.541 274.79 237.382C275.188 236.984 275.586 236.665 275.905 236.267C276.143 236.108 276.462 236.108 276.621 236.267C276.78 236.427 276.78 236.825 276.621 236.984C276.223 237.382 275.825 237.7 275.507 238.098C275.427 238.178 275.268 238.257 275.188 238.257ZM117.823 236.108C117.585 236.108 117.346 235.869 117.346 235.631L117.266 234.039C117.266 233.72 117.505 233.481 117.744 233.481C118.062 233.481 118.301 233.72 118.301 233.959L118.381 235.551C118.381 235.869 118.142 236.108 117.823 236.108C117.903 236.108 117.903 236.108 117.823 236.108ZM279.168 234.357C279.009 234.357 278.929 234.277 278.77 234.198C278.531 233.959 278.531 233.641 278.77 233.481C279.168 233.083 279.487 232.765 279.885 232.367C280.123 232.128 280.442 232.128 280.601 232.367C280.84 232.606 280.84 232.924 280.601 233.083C280.203 233.481 279.885 233.8 279.487 234.198C279.407 234.277 279.248 234.357 279.168 234.357ZM117.664 230.536C117.425 230.536 117.187 230.298 117.187 230.059L117.107 228.467C117.107 228.148 117.346 227.91 117.585 227.91C117.903 227.91 118.142 228.148 118.142 228.387L118.221 229.979C118.221 230.298 117.983 230.536 117.664 230.536ZM283.068 230.377C282.909 230.377 282.83 230.298 282.75 230.218C282.511 230.059 282.511 229.661 282.75 229.502C283.148 229.104 283.466 228.706 283.864 228.387C284.024 228.148 284.422 228.148 284.581 228.387C284.82 228.546 284.82 228.944 284.581 229.104C284.183 229.502 283.864 229.9 283.466 230.298C283.307 230.298 283.148 230.377 283.068 230.377ZM286.889 226.318C286.73 226.318 286.65 226.238 286.571 226.158C286.332 225.999 286.332 225.601 286.571 225.442C286.889 225.044 287.287 224.646 287.606 224.248C287.765 224.009 288.083 224.009 288.322 224.248C288.561 224.407 288.561 224.805 288.322 224.965C288.003 225.363 287.606 225.76 287.287 226.158C287.128 226.238 286.969 226.318 286.889 226.318ZM117.505 224.965C117.266 224.965 117.027 224.726 117.027 224.487L116.948 222.895C116.948 222.577 117.187 222.338 117.425 222.338C117.744 222.338 117.983 222.577 117.983 222.815L118.062 224.407C117.983 224.726 117.823 224.965 117.505 224.965ZM290.551 222.179C290.391 222.179 290.312 222.099 290.232 222.019C289.993 221.86 289.993 221.542 290.153 221.303C290.471 220.905 290.869 220.507 291.187 220.109C291.347 219.87 291.665 219.87 291.904 220.029C292.143 220.189 292.143 220.507 291.983 220.746C291.665 221.144 291.267 221.542 290.949 221.94C290.869 222.099 290.71 222.179 290.551 222.179ZM117.266 219.393C117.027 219.393 116.789 219.154 116.789 218.915L116.709 217.323C116.709 217.005 116.948 216.766 117.187 216.766C117.425 216.766 117.664 217.005 117.664 217.244L117.744 218.835C117.823 219.154 117.585 219.393 117.266 219.393C117.346 219.393 117.266 219.393 117.266 219.393ZM294.133 217.88C294.053 217.88 293.894 217.88 293.814 217.721C293.575 217.562 293.575 217.244 293.735 217.005C294.053 216.607 294.371 216.209 294.769 215.811C294.929 215.572 295.247 215.572 295.486 215.731C295.724 215.89 295.725 216.209 295.565 216.448C295.247 216.846 294.929 217.244 294.531 217.642C294.451 217.88 294.292 217.88 294.133 217.88ZM117.107 213.821C116.868 213.821 116.629 213.582 116.629 213.343L116.55 211.751C116.55 211.433 116.789 211.194 117.027 211.194C117.346 211.194 117.585 211.433 117.585 211.672L117.664 213.264C117.664 213.582 117.425 213.821 117.107 213.821ZM297.714 213.582C297.635 213.582 297.476 213.582 297.396 213.502C297.157 213.343 297.157 213.025 297.316 212.786C297.635 212.388 297.953 211.99 298.272 211.512C298.431 211.274 298.749 211.274 298.988 211.433C299.227 211.592 299.227 211.91 299.068 212.149C298.749 212.547 298.431 213.025 298.112 213.423C297.953 213.502 297.794 213.582 297.714 213.582ZM301.058 209.204C300.978 209.204 300.819 209.204 300.739 209.125C300.5 208.965 300.5 208.647 300.66 208.408L301.615 207.135C301.774 206.896 302.092 206.896 302.331 207.055C302.57 207.214 302.57 207.533 302.411 207.771L301.456 209.045C301.376 209.125 301.217 209.204 301.058 209.204ZM116.948 208.249C116.709 208.249 116.47 208.01 116.47 207.771L116.391 206.179C116.391 205.861 116.629 205.622 116.868 205.622C117.107 205.622 117.346 205.861 117.346 206.1L117.425 207.692C117.425 208.01 117.187 208.249 116.948 208.249ZM304.401 204.667C304.321 204.667 304.162 204.667 304.082 204.587C303.843 204.428 303.764 204.11 303.923 203.871C304.241 203.473 304.56 202.996 304.878 202.598C305.037 202.359 305.356 202.279 305.595 202.438C305.833 202.598 305.913 202.916 305.754 203.155C305.435 203.553 305.117 204.03 304.799 204.428C304.719 204.587 304.56 204.667 304.401 204.667ZM116.709 202.677C116.47 202.677 116.231 202.438 116.231 202.2L116.152 200.608C116.152 200.289 116.391 200.05 116.629 200.05C116.948 200.05 117.187 200.289 117.187 200.528L117.266 202.12C117.266 202.438 117.027 202.677 116.709 202.677ZM304.241 200.687C304.162 200.687 304.003 200.687 303.923 200.608L302.65 199.652C302.411 199.493 302.331 199.175 302.49 198.936C302.65 198.697 302.968 198.618 303.207 198.777L304.48 199.732C304.719 199.891 304.799 200.21 304.639 200.448C304.56 200.608 304.401 200.687 304.241 200.687ZM299.704 197.424C299.625 197.424 299.466 197.424 299.386 197.344L298.112 196.389C297.874 196.23 297.794 195.911 297.953 195.673C298.112 195.434 298.431 195.354 298.67 195.513L299.943 196.468C300.182 196.628 300.262 196.946 300.102 197.185C300.023 197.344 299.864 197.424 299.704 197.424ZM116.55 197.105C116.311 197.105 116.072 196.866 116.072 196.628L115.993 195.036C115.993 194.717 116.231 194.479 116.47 194.479C116.789 194.479 117.027 194.717 117.027 194.956L117.107 196.548C117.027 196.866 116.868 197.105 116.55 197.105ZM295.167 194.24C295.088 194.24 294.929 194.24 294.849 194.16L293.575 193.205C293.337 193.046 293.257 192.727 293.416 192.489C293.575 192.25 293.894 192.17 294.133 192.329L295.406 193.285C295.645 193.444 295.725 193.762 295.565 194.001C295.486 194.16 295.327 194.24 295.167 194.24ZM116.311 191.533C116.072 191.533 115.833 191.295 115.833 191.056L115.754 189.464C115.754 189.145 115.993 188.907 116.231 188.907C116.47 188.907 116.709 189.145 116.709 189.384L116.789 190.976C116.868 191.295 116.629 191.533 116.311 191.533C116.391 191.533 116.391 191.533 116.311 191.533ZM290.63 190.976C290.551 190.976 290.391 190.976 290.312 190.897L289.038 189.941C288.799 189.782 288.72 189.464 288.879 189.225C289.038 188.986 289.357 188.907 289.595 189.066L290.869 190.021C291.108 190.18 291.187 190.499 291.028 190.737C290.949 190.897 290.789 190.976 290.63 190.976ZM286.093 187.713C286.014 187.713 285.854 187.713 285.775 187.633L284.501 186.678C284.262 186.519 284.183 186.2 284.342 185.962C284.501 185.723 284.82 185.643 285.058 185.802L286.332 186.758C286.571 186.917 286.65 187.235 286.491 187.474C286.412 187.633 286.252 187.713 286.093 187.713ZM116.152 185.962C115.913 185.962 115.674 185.723 115.674 185.484L115.595 183.892C115.595 183.574 115.833 183.335 116.072 183.335C116.311 183.335 116.55 183.574 116.55 183.812L116.629 185.404C116.709 185.723 116.47 185.962 116.152 185.962ZM281.556 184.449C281.476 184.449 281.317 184.449 281.238 184.37L279.964 183.414C279.725 183.255 279.646 182.937 279.805 182.698C279.964 182.459 280.283 182.38 280.521 182.539L281.795 183.494C282.034 183.653 282.113 183.972 281.954 184.21C281.874 184.37 281.715 184.449 281.556 184.449ZM277.019 181.265C276.939 181.265 276.78 181.265 276.701 181.186L275.427 180.231C275.188 180.071 275.109 179.753 275.268 179.514C275.427 179.275 275.745 179.196 275.984 179.355L277.258 180.31C277.497 180.469 277.576 180.788 277.417 181.027C277.337 181.186 277.178 181.265 277.019 181.265ZM115.993 180.39C115.754 180.39 115.515 180.151 115.515 179.912L115.435 178.32C115.435 178.002 115.674 177.763 115.913 177.763C116.152 177.763 116.391 178.002 116.391 178.241L116.47 179.833C116.47 180.151 116.311 180.39 115.993 180.39ZM272.562 178.002C272.482 178.002 272.323 178.002 272.243 177.922L270.97 176.967C270.731 176.808 270.651 176.489 270.81 176.251C270.97 176.012 271.288 175.932 271.527 176.091L272.8 177.047C273.039 177.206 273.119 177.524 272.96 177.763C272.88 177.922 272.721 178.002 272.562 178.002ZM115.754 174.818C115.515 174.818 115.276 174.579 115.276 174.34L115.197 172.748C115.197 172.43 115.435 172.191 115.674 172.191C115.993 172.191 116.231 172.43 116.231 172.669L116.311 174.261C116.311 174.579 116.072 174.818 115.754 174.818ZM268.024 174.738C267.945 174.738 267.786 174.738 267.706 174.659L266.432 173.704C266.194 173.544 266.114 173.226 266.273 172.987C266.433 172.748 266.751 172.669 266.99 172.828L268.263 173.783C268.502 173.942 268.582 174.261 268.422 174.499C268.343 174.659 268.184 174.738 268.024 174.738ZM263.487 171.475C263.408 171.475 263.249 171.475 263.169 171.395L261.895 170.44C261.657 170.281 261.577 169.962 261.736 169.724C261.895 169.485 262.214 169.405 262.453 169.564L263.726 170.52C263.965 170.679 264.045 170.997 263.885 171.236C263.806 171.395 263.647 171.475 263.487 171.475ZM115.595 169.246C115.356 169.246 115.117 169.007 115.117 168.768L115.037 167.176C115.037 166.858 115.276 166.619 115.515 166.619C115.754 166.619 115.993 166.858 115.993 167.097L116.072 168.689C116.152 169.007 115.913 169.246 115.595 169.246ZM258.95 168.291C258.871 168.291 258.712 168.291 258.632 168.211L257.358 167.256C257.12 167.097 257.04 166.778 257.199 166.54C257.358 166.301 257.677 166.221 257.916 166.381L259.189 167.336C259.428 167.495 259.507 167.813 259.348 168.052C259.269 168.211 259.109 168.291 258.95 168.291ZM254.413 165.027C254.334 165.027 254.174 165.027 254.095 164.948L252.821 163.993C252.582 163.833 252.503 163.515 252.662 163.276C252.821 163.037 253.14 162.958 253.378 163.117L254.652 164.072C254.891 164.231 254.97 164.55 254.811 164.789C254.732 164.948 254.572 165.027 254.413 165.027ZM115.435 163.674C115.197 163.674 114.958 163.435 114.958 163.197L114.878 161.605C114.878 161.286 115.117 161.047 115.356 161.047C115.674 161.047 115.913 161.286 115.913 161.525L115.993 163.117C115.913 163.435 115.674 163.674 115.435 163.674ZM249.876 161.764C249.797 161.764 249.637 161.764 249.558 161.684L248.284 160.729C248.045 160.57 247.966 160.251 248.125 160.013C248.284 159.774 248.603 159.694 248.841 159.853L250.115 160.809C250.354 160.968 250.433 161.286 250.274 161.525C250.195 161.684 250.035 161.764 249.876 161.764ZM245.339 158.5C245.259 158.5 245.1 158.5 245.021 158.421L243.747 157.466C243.508 157.306 243.429 156.988 243.588 156.749C243.747 156.51 244.066 156.431 244.304 156.59L245.578 157.545C245.817 157.704 245.896 158.023 245.737 158.262C245.657 158.5 245.498 158.5 245.339 158.5ZM115.197 158.102C114.958 158.102 114.719 157.864 114.719 157.625L114.639 156.033C114.639 155.714 114.878 155.476 115.117 155.476C115.435 155.476 115.674 155.714 115.674 155.953L115.754 157.545C115.754 157.864 115.515 158.102 115.197 158.102ZM240.802 155.316C240.722 155.316 240.563 155.316 240.484 155.237L239.21 154.282C238.971 154.122 238.892 153.804 239.051 153.565C239.21 153.326 239.528 153.247 239.767 153.406L241.041 154.361C241.28 154.52 241.359 154.839 241.2 155.078C241.12 155.237 240.961 155.316 240.802 155.316ZM115.037 152.53C114.799 152.53 114.56 152.292 114.56 152.053L114.48 150.461C114.48 150.143 114.719 149.904 114.958 149.904C115.276 149.904 115.515 150.143 115.515 150.381L115.595 151.973C115.515 152.292 115.356 152.53 115.037 152.53ZM236.265 152.053C236.185 152.053 236.026 152.053 235.947 151.973L234.673 151.018C234.434 150.859 234.355 150.541 234.514 150.302C234.673 150.063 234.991 149.983 235.23 150.143L236.504 151.098C236.743 151.257 236.822 151.575 236.663 151.814C236.583 151.973 236.424 152.053 236.265 152.053ZM231.728 148.789C231.648 148.789 231.489 148.789 231.409 148.71L230.136 147.755C229.897 147.595 229.817 147.277 229.977 147.038C230.136 146.799 230.454 146.72 230.693 146.879L231.967 147.834C232.205 147.993 232.285 148.312 232.126 148.551C232.046 148.71 231.887 148.789 231.728 148.789ZM114.799 146.959C114.56 146.959 114.321 146.72 114.321 146.481L114.241 144.889C114.241 144.571 114.48 144.332 114.719 144.332C115.037 144.332 115.276 144.571 115.276 144.809L115.356 146.401C115.356 146.72 115.117 146.959 114.799 146.959C114.878 146.959 114.878 146.959 114.799 146.959ZM227.191 145.605C227.111 145.605 226.952 145.605 226.872 145.526L225.599 144.571C225.36 144.412 225.28 144.093 225.44 143.854C225.599 143.616 225.917 143.536 226.156 143.695L227.43 144.65C227.668 144.809 227.748 145.128 227.589 145.367C227.509 145.526 227.35 145.605 227.191 145.605ZM222.654 142.342C222.574 142.342 222.415 142.342 222.335 142.262L221.062 141.307C220.823 141.148 220.743 140.83 220.903 140.591C221.062 140.352 221.38 140.272 221.619 140.432L222.892 141.387C223.131 141.546 223.211 141.864 223.052 142.103C222.972 142.262 222.813 142.342 222.654 142.342ZM114.639 141.387C114.401 141.387 114.162 141.148 114.162 140.909L114.082 139.317C114.082 138.999 114.321 138.76 114.56 138.76C114.878 138.76 115.117 138.999 115.117 139.238L115.197 140.83C115.197 141.148 114.958 141.387 114.639 141.387ZM218.117 139.078C218.037 139.078 217.878 139.078 217.798 138.999L216.525 138.044C216.286 137.884 216.206 137.566 216.365 137.327C216.525 137.089 216.843 137.009 217.082 137.168L218.355 138.123C218.594 138.282 218.674 138.601 218.515 138.84C218.435 138.999 218.276 139.078 218.117 139.078ZM114.48 135.815C114.241 135.815 114.003 135.576 114.003 135.337L113.923 133.745C113.923 133.427 114.162 133.188 114.401 133.188C114.639 133.188 114.878 133.427 114.878 133.666L114.958 135.258C114.958 135.576 114.799 135.815 114.48 135.815ZM213.58 135.815C213.5 135.815 213.341 135.815 213.261 135.735L211.988 134.78C211.749 134.621 211.669 134.303 211.828 134.064C211.988 133.825 212.306 133.745 212.545 133.905L213.818 134.86C214.057 135.019 214.137 135.337 213.978 135.576C213.898 135.735 213.739 135.815 213.58 135.815ZM209.122 132.631C209.042 132.631 208.883 132.631 208.804 132.551L207.53 131.596C207.291 131.437 207.212 131.119 207.371 130.88C207.53 130.641 207.848 130.561 208.087 130.721L209.361 131.676C209.6 131.835 209.679 132.153 209.52 132.392C209.44 132.551 209.281 132.631 209.122 132.631ZM114.241 130.243C114.003 130.243 113.764 130.004 113.764 129.766L113.684 128.174C113.684 127.855 113.923 127.616 114.162 127.616C114.48 127.616 114.719 127.855 114.719 128.094L114.799 129.686C114.799 130.004 114.56 130.243 114.241 130.243ZM204.585 129.368C204.505 129.368 204.346 129.368 204.267 129.288L202.993 128.333C202.754 128.174 202.675 127.855 202.834 127.616C202.993 127.378 203.311 127.298 203.55 127.457L204.824 128.412C205.063 128.572 205.142 128.89 204.983 129.129C204.903 129.288 204.744 129.368 204.585 129.368ZM200.048 126.104C199.968 126.104 199.809 126.104 199.73 126.024L198.456 125.069C198.217 124.91 198.138 124.592 198.297 124.353C198.456 124.114 198.774 124.034 199.013 124.194L200.287 125.149C200.525 125.308 200.605 125.626 200.446 125.865C200.366 126.024 200.207 126.104 200.048 126.104ZM114.082 124.671C113.843 124.671 113.605 124.432 113.605 124.194L113.525 122.602C113.525 122.283 113.764 122.045 114.003 122.045C114.321 122.045 114.56 122.283 114.56 122.522L114.639 124.114C114.639 124.432 114.401 124.671 114.082 124.671ZM195.511 122.84C195.431 122.84 195.272 122.84 195.192 122.761L193.919 121.806C193.68 121.647 193.6 121.328 193.76 121.089C193.919 120.851 194.237 120.771 194.476 120.93L195.75 121.885C195.988 122.045 196.068 122.363 195.909 122.602C195.829 122.761 195.67 122.84 195.511 122.84ZM190.974 119.657C190.894 119.657 190.735 119.657 190.655 119.577L189.382 118.622C189.143 118.463 189.063 118.144 189.223 117.905C189.382 117.667 189.7 117.587 189.939 117.746L191.213 118.701C191.451 118.861 191.531 119.179 191.372 119.418C191.292 119.577 191.133 119.657 190.974 119.657ZM113.923 119.179C113.684 119.179 113.445 118.94 113.445 118.701L113.366 117.109C113.366 116.791 113.605 116.552 113.843 116.552C114.162 116.552 114.401 116.791 114.401 117.03L114.48 118.622C114.401 118.861 114.162 119.099 113.923 119.179ZM186.437 116.393C186.357 116.393 186.198 116.393 186.118 116.313L184.845 115.358C184.606 115.199 184.526 114.881 184.686 114.642C184.845 114.403 185.163 114.324 185.402 114.483L186.675 115.438C186.914 115.597 186.994 115.915 186.835 116.154C186.755 116.313 186.596 116.393 186.437 116.393ZM113.684 113.607C113.445 113.607 113.207 113.368 113.207 113.13L113.127 111.538C113.127 111.219 113.366 110.98 113.605 110.98C113.843 110.98 114.082 111.219 114.082 111.458L114.162 113.05C114.241 113.289 114.003 113.528 113.684 113.607ZM181.9 113.13C181.82 113.13 181.661 113.13 181.581 113.05L180.308 112.095C180.069 111.936 179.989 111.617 180.148 111.378C180.308 111.14 180.626 111.06 180.865 111.219L182.138 112.174C182.377 112.334 182.457 112.652 182.298 112.891C182.218 113.05 182.059 113.13 181.9 113.13ZM177.363 109.866C177.283 109.866 177.124 109.866 177.044 109.786L175.771 108.831C175.532 108.672 175.452 108.354 175.611 108.115C175.771 107.876 176.089 107.797 176.328 107.956L177.601 108.911C177.84 109.07 177.92 109.388 177.761 109.627C177.681 109.866 177.522 109.866 177.363 109.866ZM113.525 108.035C113.286 108.035 113.047 107.797 113.047 107.558L112.968 105.966C112.968 105.647 113.207 105.409 113.445 105.409C113.764 105.409 114.003 105.647 114.003 105.886L114.082 107.478C114.003 107.717 113.843 107.956 113.525 108.035ZM172.825 106.682C172.746 106.682 172.587 106.682 172.507 106.603L171.233 105.647C170.995 105.488 170.915 105.17 171.074 104.931C171.233 104.692 171.552 104.613 171.791 104.772L173.064 105.727C173.303 105.886 173.383 106.205 173.223 106.443C173.144 106.603 172.985 106.682 172.825 106.682ZM168.288 103.419C168.209 103.419 168.05 103.419 167.97 103.339L166.696 102.384C166.458 102.225 166.378 101.906 166.537 101.667C166.696 101.429 167.015 101.349 167.254 101.508L168.527 102.463C168.766 102.623 168.846 102.941 168.686 103.18C168.607 103.339 168.448 103.419 168.288 103.419ZM113.286 102.463C113.047 102.463 112.809 102.225 112.809 101.986L112.729 100.394C112.729 100.076 112.968 99.8367 113.207 99.8367C113.445 99.8367 113.684 100.076 113.684 100.314L113.764 101.906C113.843 102.225 113.605 102.463 113.286 102.463C113.366 102.463 113.286 102.463 113.286 102.463ZM163.751 100.155C163.672 100.155 163.512 100.155 163.433 100.076L162.159 99.1203C161.921 98.9611 161.841 98.6428 162 98.404C162.159 98.1652 162.478 98.0856 162.717 98.2448L163.99 99.1999C164.229 99.3591 164.308 99.6775 164.149 99.9163C164.07 100.076 163.91 100.155 163.751 100.155ZM159.214 96.9712C159.135 96.9712 158.975 96.9712 158.896 96.8916L157.622 95.9364C157.383 95.7772 157.304 95.4588 157.463 95.22C157.622 94.9813 157.941 94.9017 158.179 95.0609L159.453 96.016C159.692 96.1752 159.771 96.4936 159.612 96.7324C159.533 96.8916 159.373 96.9712 159.214 96.9712ZM113.127 96.8916C112.888 96.8916 112.649 96.6528 112.649 96.414L112.57 94.8221C112.57 94.5037 112.809 94.2649 113.047 94.2649C113.366 94.2649 113.605 94.5037 113.605 94.7425L113.684 96.3344C113.684 96.6528 113.445 96.8916 113.127 96.8916ZM154.677 93.7077C154.598 93.7077 154.438 93.7077 154.359 93.6281L153.085 92.6729C152.846 92.5137 152.767 92.1953 152.926 91.9565C153.085 91.7177 153.404 91.6381 153.642 91.7973L154.916 92.7525C155.155 92.9117 155.234 93.2301 155.075 93.4689C154.996 93.6281 154.836 93.7077 154.677 93.7077ZM112.968 91.3198C112.729 91.3198 112.49 91.081 112.49 90.8422L112.411 89.2502C112.411 88.9318 112.649 88.693 112.888 88.693C113.127 88.693 113.445 88.9318 113.445 89.1706L113.525 90.7626C113.445 91.081 113.207 91.3198 112.968 91.3198ZM150.14 90.4442C150.06 90.4442 149.901 90.4442 149.822 90.3646L148.548 89.4094C148.309 89.2502 148.23 88.9318 148.389 88.693C148.548 88.4542 148.866 88.3746 149.105 88.5338L150.379 89.489C150.618 89.6482 150.697 89.9666 150.538 90.2054C150.458 90.3646 150.299 90.4442 150.14 90.4442ZM145.683 87.1807C145.603 87.1807 145.444 87.1807 145.364 87.1011L144.091 86.1459C143.852 85.9867 143.772 85.6683 143.931 85.4295C144.091 85.1907 144.409 85.1111 144.648 85.2703L145.921 86.2255C146.16 86.3847 146.24 86.7031 146.081 86.9419C146.001 87.1011 145.842 87.1807 145.683 87.1807ZM112.729 85.7479C112.49 85.7479 112.252 85.5091 112.252 85.2703L112.172 83.6784C112.172 83.36 112.411 83.1212 112.649 83.1212C112.888 83.1212 113.127 83.36 113.127 83.5988L113.207 85.1907C113.286 85.5091 113.047 85.7479 112.729 85.7479ZM141.146 83.9968C141.066 83.9968 140.907 83.9968 140.827 83.9172L139.554 82.962C139.315 82.8028 139.235 82.4844 139.394 82.2456C139.554 82.0068 139.872 81.9272 140.111 82.0864L141.384 83.0416C141.623 83.2008 141.703 83.5192 141.543 83.758C141.464 83.9172 141.305 83.9968 141.146 83.9968ZM136.608 80.7332C136.529 80.7332 136.37 80.7332 136.29 80.6536L135.016 79.6985C134.778 79.5393 134.698 79.2209 134.857 78.9821C135.016 78.7433 135.335 78.6637 135.574 78.8229L136.847 79.7781C137.086 79.9373 137.166 80.2557 137.006 80.4944C136.927 80.6536 136.768 80.7332 136.608 80.7332ZM112.57 80.1761C112.331 80.1761 112.092 79.9373 112.092 79.6985L112.013 78.1065C112.013 77.7881 112.251 77.5493 112.49 77.5493C112.809 77.5493 113.047 77.7881 113.047 78.0269L113.127 79.6189C113.127 79.9373 112.888 80.1761 112.57 80.1761ZM132.071 77.4697C131.992 77.4697 131.833 77.4697 131.753 77.3901L130.479 76.435C130.241 76.2758 130.161 75.9574 130.32 75.7186C130.479 75.4798 130.798 75.4002 131.037 75.5594L132.31 76.5146C132.549 76.6738 132.629 76.9921 132.469 77.2309C132.39 77.3901 132.231 77.4697 132.071 77.4697ZM112.411 74.6042C112.172 74.6042 111.933 74.3654 111.933 74.1266L111.854 72.5347C111.854 72.2163 112.092 71.9775 112.331 71.9775C112.649 71.9775 112.888 72.2163 112.888 72.4551L112.968 74.047C112.888 74.3654 112.649 74.6042 112.411 74.6042ZM127.534 74.2062C127.455 74.2062 127.295 74.2062 127.216 74.1266L125.942 73.1715C125.704 73.0123 125.624 72.6939 125.783 72.4551C125.942 72.2163 126.261 72.1367 126.5 72.2959L127.773 73.251C128.012 73.4102 128.091 73.7286 127.932 73.9674C127.853 74.1266 127.693 74.2062 127.534 74.2062ZM122.997 71.0223C122.918 71.0223 122.758 71.0223 122.679 70.9427L121.405 69.9875C121.166 69.8283 121.087 69.5099 121.246 69.2712C121.405 69.0324 121.724 68.9528 121.962 69.112L123.316 70.0671C123.554 70.2263 123.634 70.5447 123.475 70.7835C123.316 70.9427 123.156 71.0223 122.997 71.0223ZM118.46 67.7588C118.381 67.7588 118.221 67.7588 118.142 67.6792L116.868 66.724C116.629 66.5648 116.55 66.2464 116.709 66.0076C116.868 65.7689 117.187 65.6893 117.425 65.8484L118.699 66.8036C118.938 66.9628 119.017 67.2812 118.858 67.52C118.779 67.6792 118.619 67.7588 118.46 67.7588Z" fill="#4497CB"/>
<path d="M209.679 297.08C209.44 297.08 209.281 296.921 209.281 296.682C209.281 296.443 209.44 296.284 209.679 296.284C216.365 295.807 222.733 293.817 228.543 290.394C233.001 287.847 236.901 284.504 240.164 280.603C240.324 280.444 240.562 280.444 240.722 280.524C240.881 280.683 240.881 280.922 240.801 281.081C237.458 285.061 233.478 288.404 229.021 291.031C222.971 294.613 216.524 296.602 209.679 297.08Z" fill="#FAFAFA"/>
<path d="M240.643 284.504C240.405 284.504 240.245 284.344 240.245 284.106L240.007 281.32L237.221 281.558C236.982 281.558 236.823 281.399 236.823 281.16C236.823 280.922 236.982 280.762 237.221 280.762L240.405 280.524C240.484 280.524 240.643 280.524 240.723 280.603C240.803 280.683 240.882 280.762 240.882 280.842L241.121 284.026C241.121 284.344 240.882 284.504 240.643 284.504C240.723 284.504 240.643 284.504 240.643 284.504Z" fill="#FAFAFA"/>
<path d="M212.227 299.07C212.147 299.07 212.068 299.07 211.988 298.99L209.441 297.08C209.282 296.921 209.202 296.682 209.361 296.523L211.272 293.976C211.431 293.816 211.67 293.737 211.829 293.896C211.988 294.055 212.067 294.294 211.908 294.453L210.237 296.682L212.465 298.354C212.625 298.513 212.704 298.752 212.545 298.911C212.466 298.99 212.386 299.07 212.227 299.07Z" fill="#FAFAFA"/>
</svg>
