<svg width="437" height="627" viewBox="0 0 437 627" fill="none" xmlns="http://www.w3.org/2000/svg">
<path d="M5.99827 278.8C-1.30173 262.7 1.19827 246.5 1.19827 246.5C1.19827 246.5 2.69827 235.6 11.6983 235.7C20.6983 235.8 34.4983 267.2 34.4983 267.2C38.6983 273.6 59.0983 381.9 54.7983 386.8C54.7983 386.8 50.3983 394 43.2983 388.1C36.1983 382.3 33.1983 374.1 32.7983 367.1C32.3983 360.1 37.2983 351.3 33.1983 338.2" fill="#1A1A1A"/>
<path d="M8.79786 251.5C8.79786 251.5 8.99786 261 6.09786 284.7C3.19786 308.3 18.1979 315.1 25.3979 329.4C32.5979 343.7 34.8979 351.3 34.8979 351.3L41.1979 354.3" fill="#1A1A1A"/>
<path d="M430.197 278.8C437.497 262.7 434.997 246.5 434.997 246.5C434.997 246.5 433.497 235.6 424.497 235.7C415.497 235.8 401.697 267.2 401.697 267.2C397.497 273.6 377.097 381.9 381.397 386.8C381.397 386.8 385.797 394 392.897 388.1C399.997 382.3 402.997 374.1 403.397 367.1C403.797 360.1 398.897 351.3 402.997 338.2" fill="#1A1A1A"/>
<path d="M427.4 251.5C427.4 251.5 427.2 261 430.1 284.7C433 308.3 418 315.1 410.8 329.4C403.6 343.6 401.3 351.3 401.3 351.3L395 354.3" fill="#1A1A1A"/>
<path d="M69.1992 423.398C69.1992 423.398 72.6992 431.898 74.1992 445.998C75.5992 460.098 79.6992 504.698 79.6992 515.698C79.6992 526.598 73.9992 584.098 102.999 605.198C131.999 626.298 283.599 635.598 323.499 605.198C363.399 574.798 352.099 562.498 354.599 517.098C357.199 471.698 363.499 430.698 363.499 430.698" fill="#1A1A1A"/>
<path d="M396.898 283.698C403.198 227.398 426.298 181.098 403.398 123.098C382.498 70.0984 329.398 2.39844 217.698 2.39844C105.998 2.39844 54.4976 78.2984 31.3976 135.498C9.29758 189.998 40.4976 274.298 39.8976 279.498C38.3976 298.798 37.6976 311.898 38.6976 318.598C40.1976 328.298 51.2976 374.898 51.2976 374.898C51.2976 374.898 58.6976 400.798 62.4976 408.998C66.2976 417.198 83.3976 451.798 84.9976 455.098C86.6976 458.498 98.8976 479.298 116.798 492.598C134.698 505.898 163.998 526.798 175.398 533.498C198.098 546.798 235.898 547.498 257.798 534.798C287.598 517.398 301.198 506.098 301.198 506.098C301.198 506.098 331.998 486.598 345.698 462.698C359.398 438.798 380.498 392.098 384.898 373.298C389.298 354.498 397.698 325.298 397.098 295.298C397.098 290.898 396.998 287.098 396.898 283.698Z" fill="#1A1A1A"/>
<path d="M83.1992 260.698C88.1992 253.898 94.5992 247.998 101.799 243.398C108.999 238.898 117.299 235.698 125.899 234.998C134.499 234.498 143.199 235.298 151.099 238.898C154.999 240.698 158.499 243.198 161.899 245.698C165.199 248.298 168.899 250.498 173.299 250.598C168.999 250.798 164.899 248.798 161.399 246.398C157.899 243.998 154.399 241.698 150.499 240.198C142.799 236.998 134.299 236.198 125.999 236.798C117.699 237.298 109.699 240.398 102.499 244.598C95.3992 248.898 88.7992 254.298 83.1992 260.698Z" fill="#A1A0A0"/>
<path d="M116.4 237.702C116.4 237.702 105.6 253.902 121.5 260.702C138 267.702 153.2 249.802 140.9 236.602" stroke="#A1A0A0" stroke-miterlimit="10" stroke-linecap="round" stroke-linejoin="round"/>
<path d="M92.3008 251.2C96.5008 257 102.801 260.9 109.401 263.3C116.101 265.7 123.201 266.5 130.201 266.3C137.301 266.2 144.501 265.5 150.901 262.8C157.501 260.3 162.201 253.8 162.301 246.5C162.501 250.1 161.801 253.8 159.801 256.9C157.901 260.1 154.801 262.4 151.501 264C144.801 267.2 137.401 267.9 130.201 268.1C123.001 268.2 115.601 267.3 108.801 264.6C102.201 261.9 95.9008 257.5 92.3008 251.2Z" fill="#A1A0A0"/>
<path d="M351.802 260.698C346.202 254.298 339.602 248.898 332.402 244.598C325.202 240.498 317.202 237.398 308.902 236.798C300.602 236.198 292.102 236.998 284.402 240.198C280.502 241.798 277.002 244.098 273.502 246.398C270.002 248.698 265.902 250.798 261.602 250.598C265.902 250.498 269.702 248.198 273.002 245.698C276.402 243.198 279.902 240.698 283.802 238.898C291.702 235.298 300.502 234.498 309.002 234.998C317.602 235.698 325.902 238.898 333.102 243.398C340.402 247.998 346.702 253.898 351.802 260.698Z" fill="#A1A0A0"/>
<path d="M83.1992 250.302C88.4992 244.002 95.1992 238.802 102.499 234.802C109.899 230.902 117.999 228.302 126.399 227.802C134.699 227.402 143.199 228.102 151.099 231.202C154.999 232.702 158.599 235.002 161.999 237.202C165.399 239.502 169.099 241.402 173.299 241.502C169.099 241.702 165.099 240.002 161.499 238.002C157.899 235.902 154.399 233.902 150.499 232.602C142.899 229.902 134.499 229.202 126.499 229.702C118.399 230.002 110.499 232.602 103.099 236.102C95.8992 239.802 89.0992 244.502 83.1992 250.302Z" fill="#A1A0A0"/>
<path d="M351.802 250.302C346.002 244.502 339.102 239.802 331.802 236.102C324.502 232.602 316.602 230.102 308.402 229.702C300.302 229.202 292.002 229.902 284.402 232.602C280.602 233.902 277.002 236.002 273.402 238.002C269.802 240.102 265.802 241.702 261.602 241.502C265.802 241.402 269.502 239.502 272.902 237.202C276.402 235.002 279.902 232.802 283.802 231.202C291.702 228.102 300.202 227.402 308.502 227.802C316.902 228.302 325.002 230.902 332.402 234.802C339.802 238.802 346.402 244.002 351.802 250.302Z" fill="#A1A0A0"/>
<path d="M318.499 237.702C318.499 237.702 329.299 253.902 313.399 260.702C296.899 267.702 281.699 249.802 293.999 236.602" stroke="#A1A0A0" stroke-miterlimit="10" stroke-linecap="round" stroke-linejoin="round"/>
<path d="M342.602 251.2C339.002 257.5 332.702 261.9 326.002 264.6C319.202 267.3 311.802 268.2 304.602 268.1C297.402 267.9 290.002 267.2 283.302 264C280.002 262.4 277.002 260 275.002 256.9C273.002 253.8 272.302 250 272.502 246.5C272.602 253.8 277.302 260.2 283.902 262.8C290.302 265.6 297.502 266.2 304.602 266.3C311.702 266.5 318.802 265.7 325.402 263.3C332.102 260.9 338.402 257 342.602 251.2Z" fill="#A1A0A0"/>
<path d="M66 227.2C73.2 218.8 82.5 212.3 92.6 207.7C102.7 203 113.7 200.5 124.9 199.7C136 199.4 147.2 200.5 157.9 203.4C163.3 204.7 168.4 206.9 173.7 208.6C178.7 210.9 183.7 213.3 188.7 215.7C183.6 213.6 178.5 211.5 173.4 209.5C168.1 208 163 205.9 157.6 204.8C146.9 202.2 135.9 201.1 125 201.6C114.1 202.3 103.3 204.7 93.2 209C83.1 213.3 73.7 219.3 66 227.2Z" fill="#A1A0A0"/>
<path d="M369.001 227.2C361.301 219.3 351.801 213.3 341.801 209C331.701 204.7 320.901 202.2 310.001 201.6C299.101 201.2 288.101 202.3 277.401 204.8C272.001 205.9 266.901 207.9 261.601 209.5C256.501 211.5 251.401 213.7 246.301 215.7C251.301 213.3 256.201 210.9 261.301 208.6C266.601 206.9 271.701 204.7 277.101 203.4C287.801 200.5 299.001 199.4 310.101 199.7C321.201 200.5 332.201 203 342.401 207.7C352.501 212.3 361.801 218.8 369.001 227.2Z" fill="#A1A0A0"/>
<path d="M189.798 287.699C190.298 294.599 190.298 301.499 189.798 308.399C189.198 315.299 188.298 322.199 185.498 328.799C182.598 334.999 179.398 341.199 178.698 347.899C178.398 351.199 179.098 354.599 181.298 357.099C183.398 359.699 186.598 361.299 189.798 362.499C186.498 361.599 183.198 360.199 180.698 357.699C178.098 355.099 177.098 351.299 177.298 347.799C177.698 340.599 180.998 334.199 183.798 327.999C186.498 321.899 187.498 314.999 188.298 308.199C189.198 301.499 189.498 294.599 189.798 287.699Z" fill="#A1A0A0"/>
<path d="M199.699 355.799C197.899 356.699 196.099 357.499 194.099 358.199C193.099 358.499 192.199 358.799 191.099 358.899C190.599 358.899 189.799 358.799 189.499 357.999C189.299 357.199 189.499 356.899 189.499 356.299C189.699 354.299 189.899 351.899 191.999 350.499C194.099 349.199 196.799 350.199 198.199 351.699C201.199 354.599 203.199 358.199 206.299 360.399C209.299 362.599 213.499 362.899 217.299 362.799C219.299 362.799 221.199 362.599 223.199 362.299C224.199 362.199 225.099 361.999 226.099 361.799C226.699 361.699 226.999 361.599 227.199 361.399C227.499 361.199 227.899 360.899 228.299 360.599C231.099 357.899 233.599 354.699 236.899 352.099C237.699 351.399 238.599 350.799 239.599 350.399C240.599 349.899 241.999 349.899 242.999 350.399C245.099 351.399 246.299 353.399 246.799 355.499C246.899 355.999 246.999 356.599 246.699 357.299C246.399 357.799 245.699 357.699 245.699 357.699H244.999C243.999 357.799 242.999 357.899 241.999 357.799C239.899 357.699 237.899 356.999 236.399 355.699C237.999 356.899 239.999 357.399 241.999 357.399C242.999 357.399 243.999 357.199 244.999 357.099C245.399 356.999 246.399 356.999 246.099 356.999C246.199 356.799 246.099 356.199 245.999 355.799C245.499 353.999 244.299 352.299 242.699 351.599C241.099 350.799 239.499 352.099 237.999 353.399C235.099 355.999 232.599 359.199 229.699 362.099C229.299 362.499 228.899 362.799 228.399 363.099C227.799 363.499 227.099 363.699 226.699 363.699C225.699 363.899 224.699 364.099 223.699 364.299C221.699 364.599 219.599 364.899 217.599 364.899C213.499 364.899 209.199 364.599 205.499 361.999C201.999 359.499 199.899 355.799 197.299 352.999C196.099 351.599 194.199 350.999 192.699 351.699C191.199 352.499 190.799 354.699 190.499 356.599C189.499 359.099 192.299 358.299 194.099 357.999C195.899 357.299 197.799 356.599 199.699 355.799Z" fill="#A1A0A0"/>
<path d="M246.299 287.602C246.799 294.402 247.199 301.302 247.799 308.102C248.199 311.502 248.399 314.902 248.999 318.202C249.299 319.902 249.599 321.502 249.999 323.102C250.399 324.602 251.299 326.102 252.099 327.602C255.199 333.602 258.499 340.102 258.599 347.302C258.599 350.802 257.499 354.502 255.199 357.202C252.899 359.902 249.599 361.302 246.399 362.502C249.399 360.902 252.599 359.302 254.499 356.602C256.499 354.002 257.399 350.602 257.199 347.402C256.799 340.802 253.699 334.502 250.499 328.602C249.699 327.102 248.899 325.502 248.399 323.702C247.999 322.002 247.699 320.302 247.399 318.502C246.899 315.102 246.599 311.602 246.499 308.202C246.099 301.302 245.999 294.502 246.299 287.602Z" fill="#A1A0A0"/>
<path d="M151.501 423.401C151.001 419.901 151.801 416.501 152.801 413.201C154.101 410.001 155.901 406.801 158.701 404.801C157.101 407.901 155.601 410.701 154.601 413.901C153.401 416.901 152.601 420.101 151.501 423.401Z" fill="#A1A0A0"/>
<path d="M155.102 414.1C155.102 414.1 170.102 414.5 181.302 404.8C192.502 395.1 199.302 393.8 202.702 393.8C202.702 393.8 209.302 393.4 210.802 395.5C212.402 397.6 215.402 400.9 218.102 400.9C220.802 400.9 224.402 395.9 225.102 395.2C225.802 394.5 228.302 392.8 236.302 393.8C244.302 394.8 253.502 404.8 259.302 407.6C265.102 410.4 273.902 415.2 279.502 413.4C279.502 413.4 274.702 417.2 256.702 411.7C238.702 406.2 228.702 412.9 228.702 412.9C228.702 412.9 219.102 420.7 206.802 412.9C194.602 405.1 174.302 412.8 174.302 412.8C174.302 412.8 166.002 416.6 155.102 414.1Z" stroke="#A1A0A0" stroke-miterlimit="10" stroke-linecap="round" stroke-linejoin="round"/>
<path d="M184.898 435C186.398 437.5 188.898 439.2 191.598 440.1C194.298 441.1 197.098 441.4 199.998 441.5C205.698 441.7 211.398 440.1 217.398 440.1C220.398 440.1 223.398 440.6 226.198 440.9C228.998 441.2 231.898 441.2 234.798 441C240.498 440.6 245.998 438.4 250.798 435.1C246.498 439.1 240.898 441.7 234.898 442.5C231.898 442.9 228.998 442.9 225.998 442.7C222.998 442.4 220.198 442 217.398 442.1C211.698 441.9 205.898 443.5 199.898 443.1C196.898 442.9 193.898 442.4 191.198 441.2C188.598 439.7 185.998 437.7 184.898 435Z" fill="#A1A0A0"/>
<path d="M278.301 405.602C280.301 408.202 281.501 411.202 282.501 414.102C283.401 417.202 284.101 420.302 283.901 423.502C282.601 420.602 281.801 417.602 280.701 414.602C279.901 411.702 278.901 408.802 278.301 405.602Z" fill="#A1A0A0"/>
<path d="M427.397 251.5C427.897 260.5 428.997 269.3 430.097 278.2C430.697 282.6 431.497 287.1 431.297 291.7C431.197 296.3 430.297 300.9 428.397 305.1C424.597 313.6 417.597 319.7 412.897 327.2C408.597 334.9 404.597 343 401.297 351.3C403.997 342.7 407.497 334.5 411.697 326.4C416.297 318.5 423.197 312.4 426.697 304.3C428.497 300.3 429.497 296 429.597 291.6C429.797 287.2 428.997 282.8 428.697 278.3C427.897 269.4 427.197 260.5 427.397 251.5Z" fill="#A1A0A0"/>
<path d="M401.699 267.299C404.499 260.399 407.599 253.599 411.599 247.199C413.499 243.999 415.699 240.899 418.399 238.199C419.899 236.899 421.299 235.499 423.499 235.099C425.599 234.699 427.599 235.099 429.499 236.099C433.199 238.199 434.899 242.199 435.699 245.899C436.199 249.799 436.299 253.499 435.999 257.299C435.399 264.799 433.499 272.199 430.199 278.899C432.899 271.999 434.299 264.599 434.599 257.199C434.699 253.499 434.699 249.799 434.099 246.299C433.399 242.899 431.599 239.399 428.699 237.799C427.299 236.999 425.399 236.599 423.899 236.899C422.399 237.099 420.899 238.399 419.599 239.499C416.999 241.999 414.899 245.099 412.799 248.099C408.699 254.099 405.099 260.599 401.699 267.299Z" fill="#A1A0A0"/>
<path d="M398.898 326.598C402.998 325.798 407.398 324.598 410.098 321.498C411.298 319.898 411.098 317.898 410.098 315.998C409.198 314.098 408.098 312.398 406.898 310.598C404.498 307.198 402.198 302.998 402.298 298.498C402.298 293.998 403.598 289.898 404.798 285.798C407.498 277.698 411.598 269.998 416.698 263.098C421.798 256.198 427.998 250.198 434.798 245.098C428.398 250.698 422.698 256.998 417.898 263.898C413.098 270.798 409.198 278.398 406.698 286.398C405.498 290.398 404.198 294.498 404.098 298.498C403.998 302.598 405.998 306.298 408.198 309.898C409.298 311.698 410.398 313.598 411.198 315.598C412.198 317.398 412.498 320.298 410.798 322.098C407.498 325.298 402.998 325.998 398.898 326.598Z" fill="#A1A0A0"/>
<path d="M381.398 386.797C383.098 388.997 385.798 390.497 388.398 389.897C390.998 389.397 392.998 387.297 394.798 385.397C398.398 381.397 400.998 376.397 401.898 371.097C403.298 365.797 401.598 360.497 400.998 354.897C400.298 349.297 400.898 343.497 402.998 338.297C401.698 343.697 401.498 349.297 402.498 354.697L403.998 362.897C404.498 365.697 404.398 368.697 403.798 371.497C402.598 377.097 399.898 382.397 395.898 386.397C393.898 388.297 391.598 390.397 388.598 390.797C385.498 391.197 382.698 389.197 381.398 386.797Z" fill="#A1A0A0"/>
<path d="M406.098 284.699C409.698 283.499 414.298 283.699 417.498 286.599C420.698 289.399 421.898 293.699 421.798 297.799C421.698 299.799 421.298 301.899 420.498 303.799C419.798 305.599 418.298 307.699 416.498 308.499C414.898 309.499 412.798 310.199 411.998 311.699C411.198 313.299 411.198 315.399 411.098 317.299C410.898 315.399 410.598 313.399 411.198 311.299C412.198 309.199 414.298 308.499 415.698 307.299C418.798 305.499 419.798 301.399 419.898 297.799C420.098 294.099 418.998 290.299 416.498 287.699C413.998 284.899 409.898 284.199 406.098 284.699Z" fill="#A1A0A0"/>
<path d="M34.501 267.301C31.101 260.701 27.501 254.101 23.401 248.001C21.301 245.001 19.201 241.901 16.601 239.401C15.301 238.301 13.801 237.001 12.301 236.801C10.801 236.501 8.90096 236.901 7.50096 237.701C4.60096 239.301 2.80096 242.801 2.10096 246.201C1.50096 249.701 1.50096 253.501 1.60096 257.101C1.90096 264.501 3.30096 271.801 6.00096 278.801C2.60096 272.101 0.700963 264.701 0.200963 257.201C-0.0990375 253.401 -0.0990375 249.701 0.500963 245.801C1.30096 242.101 3.00096 238.101 6.70096 236.001C8.60096 235.001 10.601 234.601 12.701 235.001C14.901 235.401 16.401 236.901 17.801 238.101C20.501 240.801 22.701 243.901 24.601 247.101C28.601 253.601 31.701 260.301 34.501 267.301Z" fill="#A1A0A0"/>
<path d="M37.4 326.602C33.3 326.002 28.8 325.302 25.5 322.102C23.9 320.302 24.2 317.402 25.1 315.602C25.9 313.602 27.1 311.702 28.1 309.902C30.3 306.302 32.3 302.602 32.2 298.502C32.1 294.502 30.9 290.302 29.6 286.402C27.1 278.402 23.1 270.902 18.4 263.902C13.6 257.002 7.9 250.702 1.5 245.102C8.3 250.202 14.5 256.202 19.6 263.102C24.7 270.002 28.7 277.702 31.5 285.802C32.7 289.902 34 294.002 34 298.502C34.1 303.002 31.8 307.202 29.4 310.602C28.2 312.402 27.1 314.102 26.2 316.002C25.2 317.902 25 319.802 26.2 321.502C28.8 324.602 33.3 325.802 37.4 326.602Z" fill="#A1A0A0"/>
<path d="M54.8013 386.801C53.5013 389.201 50.7013 391.201 47.7013 390.801C44.7013 390.401 42.4013 388.301 40.4013 386.401C36.3013 382.401 33.6013 377.101 32.5013 371.501C32.0013 368.701 31.8013 365.701 32.3013 362.901L33.8013 354.701C34.7013 349.301 34.6013 343.701 33.3013 338.301C35.4013 343.501 35.9013 349.301 35.3013 354.901C34.7013 360.501 32.9013 365.801 34.4013 371.101C35.4013 376.401 37.9013 381.401 41.5013 385.401C43.4013 387.301 45.3013 389.401 47.9013 389.901C50.4013 390.501 53.1013 389.001 54.8013 386.801Z" fill="#A1A0A0"/>
<path d="M8.80242 251.5C9.00242 260.5 8.40242 269.4 7.50242 278.4C7.20242 282.9 6.30242 287.3 6.60242 291.7C6.80242 296.1 7.70242 300.4 9.50242 304.4C13.0024 312.5 19.9024 318.6 24.5024 326.5C28.7024 334.5 32.2024 342.8 34.9024 351.4C31.6024 343.1 27.6024 335 23.3024 327.3C18.7024 319.8 11.7024 313.7 7.80242 305.2C5.90242 301 5.00242 296.4 4.90242 291.8C4.70242 287.2 5.50242 282.7 6.10242 278.3C7.20242 269.3 8.30242 260.4 8.80242 251.5Z" fill="#A1A0A0"/>
<path d="M30.0999 284.701C26.2999 284.201 22.1999 285.001 19.6999 287.601C17.1999 290.201 16.0999 294.001 16.2999 297.701C16.3999 301.301 17.3999 305.301 20.4999 307.201C21.9999 308.401 23.9999 309.101 24.9999 311.201C25.5999 313.301 25.2999 315.201 25.0999 317.201C24.8999 315.301 24.8999 313.201 24.1999 311.601C23.3999 310.201 21.3999 309.501 19.6999 308.401C17.7999 307.601 16.3999 305.601 15.6999 303.701C14.8999 301.801 14.4999 299.801 14.3999 297.701C14.2999 293.701 15.5999 289.301 18.6999 286.501C21.8999 283.701 26.4999 283.401 30.0999 284.701Z" fill="#A1A0A0"/>
<path d="M37.4 326.602C33.3 326.002 28.8 325.302 25.5 322.102C23.9 320.302 24.2 317.402 25.1 315.602C25.9 313.602 27.1 311.702 28.1 309.902C30.3 306.302 32.3 302.602 32.2 298.502C32.1 294.502 30.9 290.302 29.6 286.402C27.1 278.402 23.1 270.902 18.4 263.902C13.6 257.002 7.9 250.702 1.5 245.102C8.3 250.202 14.5 256.202 19.6 263.102C24.7 270.002 28.7 277.702 31.5 285.802C32.7 289.902 34 294.002 34 298.502C34.1 303.002 31.8 307.202 29.4 310.602C28.2 312.402 27.1 314.102 26.2 316.002C25.2 317.902 25 319.802 26.2 321.502C28.8 324.602 33.3 325.802 37.4 326.602Z" fill="#A1A0A0"/>
<path d="M30.0999 284.701C26.2999 284.201 22.1999 285.001 19.6999 287.601C17.1999 290.201 16.0999 294.001 16.2999 297.701C16.3999 301.301 17.3999 305.301 20.4999 307.201C21.9999 308.401 23.9999 309.101 24.9999 311.201C25.5999 313.301 25.2999 315.201 25.0999 317.201C24.8999 315.301 24.8999 313.201 24.1999 311.601C23.3999 310.201 21.3999 309.501 19.6999 308.401C17.7999 307.601 16.3999 305.601 15.6999 303.701C14.8999 301.801 14.4999 299.801 14.3999 297.701C14.2999 293.701 15.5999 289.301 18.6999 286.501C21.8999 283.701 26.4999 283.401 30.0999 284.701Z" fill="#A1A0A0"/>
<path d="M179.898 462.798C191.398 455.498 205.198 451.998 218.898 451.898C225.698 451.998 232.598 452.698 239.198 454.698C245.798 456.398 251.998 459.398 257.898 462.798C251.698 460.098 245.398 457.498 238.798 456.098C232.298 454.398 225.598 453.698 218.898 453.798C212.198 453.698 205.498 454.598 198.998 456.098C192.398 457.498 185.998 459.698 179.898 462.798Z" fill="#A1A0A0"/>
<path d="M153.5 262.298C156.1 259.198 159.5 256.798 163.3 255.098C164.3 254.698 165.3 254.398 166.4 254.298C167.4 254.198 168.3 253.998 169.1 253.798C170 253.498 170.8 253.098 171.2 252.398C171.8 251.798 171.4 250.798 170.4 250.298C171.4 250.198 172.6 251.498 172 252.798C171.5 253.898 170.5 254.598 169.6 255.098C168.6 255.598 167.5 255.798 166.5 255.998C165.6 256.198 164.7 256.498 163.8 256.798C160.3 258.198 157 260.398 153.5 262.298Z" fill="#A1A0A0"/>
<path d="M280.001 262.298C276.401 260.398 273.101 258.198 269.501 256.898C268.601 256.498 267.701 256.198 266.801 256.098C265.801 255.898 264.702 255.698 263.702 255.198C262.702 254.698 261.801 253.998 261.301 252.898C260.701 251.598 261.901 250.398 262.901 250.398C261.901 250.898 261.601 251.798 262.101 252.498C262.501 253.198 263.402 253.598 264.202 253.898C265.102 254.098 266.001 254.298 266.901 254.398C268.001 254.498 269.001 254.798 270.001 255.198C274.001 256.798 277.301 259.198 280.001 262.298Z" fill="#A1A0A0"/>
<path d="M69.1992 423.398C73.7992 435.198 74.5992 447.898 75.8992 460.298C77.1992 472.798 78.3992 485.298 79.3992 497.798C79.8992 504.098 80.3992 510.298 80.3992 516.598C80.1992 522.898 79.9992 529.098 80.0992 535.398C80.2992 547.898 81.1992 560.398 84.3992 572.398C85.7992 578.498 88.2992 584.198 91.0992 589.698C94.1992 594.998 97.9992 599.898 102.899 603.598C107.599 607.398 113.699 609.398 119.499 611.298C125.399 613.098 131.499 614.498 137.599 615.798C162.099 620.498 187.199 622.598 212.099 622.998C237.099 623.398 262.199 622.598 286.699 617.798C298.799 615.298 311.199 611.998 321.399 605.198C331.299 597.898 341.199 589.698 347.399 579.098C353.899 568.398 353.399 555.398 353.399 542.998C353.199 530.498 353.599 517.898 354.699 505.398C356.699 480.398 359.699 455.498 363.599 430.698C360.199 455.498 357.699 480.498 356.199 505.498C355.299 517.998 354.899 530.498 355.199 542.998C355.299 549.298 355.399 555.598 354.799 561.898C354.199 568.198 352.399 574.498 349.199 580.098C342.699 591.198 332.799 599.498 322.699 607.098C311.999 614.398 299.499 617.698 287.299 620.298C262.599 625.298 237.299 626.298 212.199 626.098C187.099 625.498 161.899 623.298 137.199 618.398C130.999 617.098 124.899 615.598 118.899 613.698C112.999 611.698 106.799 609.598 101.699 605.498C96.5992 601.598 92.6992 596.298 89.3992 590.798C86.4992 585.098 84.0992 579.198 82.5992 572.998C79.3992 560.698 78.5992 548.098 78.3992 535.498C78.2992 529.198 78.6992 522.898 78.8992 516.698C78.8992 510.498 78.3992 504.198 77.9992 497.998C77.1992 485.498 76.1992 472.998 75.1992 460.498C74.0992 447.898 73.5992 435.198 69.1992 423.398Z" fill="#A1A0A0"/>
<path d="M40.0018 194C44.7018 215.6 43.9018 238 41.9018 259.8C41.0018 270.8 40.2018 281.8 39.5018 292.7C39.1018 303.7 37.9018 314.7 40.8018 325.4C43.1018 336.2 45.6018 346.9 48.1018 357.6L51.9018 373.7C53.3018 378.9 55.0018 384.2 56.6018 389.5C58.2018 394.7 59.9018 400 61.9018 405.1C63.8018 410.1 66.6018 415 68.9018 420L83.5018 449.6C93.1018 469.3 108.002 486.1 126.302 498.1C135.202 504.6 144.202 511 153.202 517.2L166.802 526.5C171.402 529.5 176.002 532.5 180.802 534.8C190.602 539.3 201.402 541.6 212.302 542.3C223.102 542.9 234.102 542 244.502 538.9C249.702 537.4 254.502 535.1 259.202 532.3C263.902 529.5 268.602 526.7 273.302 523.8C282.602 518 291.802 511.9 300.402 505.2L300.502 505.1H300.602C312.302 497.3 323.402 488.3 332.902 478C342.702 467.8 348.902 455 355.302 442.4C361.602 429.7 367.602 416.8 373.102 403.8C378.602 390.7 383.502 377.5 386.402 363.6C389.802 349.8 393.002 336 394.802 322C396.802 308 396.702 293.8 396.002 279.6C395.402 265.4 392.702 251.4 392.102 237.2C391.302 223.1 391.502 208.6 395.702 195C391.602 208.7 391.602 223.1 392.602 237.2C393.302 251.4 396.302 265.3 397.002 279.6C397.402 286.7 397.702 293.8 397.702 300.9C397.702 308 397.102 315.1 396.202 322.2C394.402 336.3 391.302 350.3 388.002 364.1C385.202 378 380.202 391.6 374.802 404.7C369.302 417.8 363.502 430.8 357.202 443.5C350.802 456.1 344.602 469.3 334.602 479.7C324.902 490.3 313.802 499.4 301.902 507.3L302.002 507.2C293.202 514.1 284.102 520.2 274.802 526.1C270.102 529 265.402 531.9 260.702 534.7C256.002 537.5 250.802 540.1 245.402 541.6C234.602 544.8 223.402 545.9 212.202 545.2C201.102 544.5 190.002 542.1 179.802 537.3C174.702 534.8 170.102 531.8 165.502 528.7L151.902 519.3C142.902 513 133.902 506.5 125.002 500C106.502 487.8 91.3018 470.5 81.7018 450.5L67.3018 420.8C65.0018 415.8 62.3018 411 60.3018 405.8C58.4018 400.6 56.7018 395.3 55.1018 390.1C53.5018 384.8 51.9018 379.6 50.4018 374.2L46.6018 358C44.1018 347.3 41.6018 336.5 39.4018 325.7C36.5018 314.9 37.7018 303.5 38.4018 292.6C39.2018 281.6 40.2018 270.6 41.2018 259.7C43.4018 237.9 44.4018 215.7 40.0018 194Z" fill="#A1A0A0"/>
<path d="M39.9008 279.401C38.4008 271.301 35.7008 263.501 33.7008 255.501C31.6008 247.501 29.8008 239.501 28.2008 231.401C25.0008 215.201 22.9008 198.801 22.8008 182.201C22.8008 165.701 24.8008 148.901 31.3008 133.501C37.5008 118.201 45.1008 103.401 54.0008 89.5012C71.9008 61.7012 96.2008 37.6012 125.701 22.3012C155.101 6.80117 188.701 0.301167 221.801 0.901167C254.901 1.40117 288.201 8.40117 317.601 23.9012C347.001 39.3012 371.601 63.3012 388.701 91.6012C397.201 105.801 404.301 120.901 408.801 136.901C413.301 152.901 414.601 169.601 413.501 186.101C411.101 219.201 400.501 250.801 396.701 283.501C400.001 250.701 410.201 218.901 412.101 186.001C413.101 169.601 411.701 153.101 407.201 137.301C402.701 121.601 395.601 106.601 387.101 92.6012C370.001 64.6012 345.601 41.1012 316.501 26.0012C287.401 10.8012 254.501 4.00117 221.801 3.70117C189.101 2.90117 155.901 9.20117 126.801 24.3012C97.6008 39.3012 73.4008 63.0012 55.6008 90.4012C46.6008 104.101 39.1008 118.801 32.8008 134.001C26.4008 149.101 24.3008 165.701 24.2008 182.001C24.1008 198.401 26.0008 214.801 28.9008 231.001C30.4008 239.101 32.1008 247.101 34.1008 255.101C35.9008 263.501 38.5008 271.301 39.9008 279.401Z" fill="#A1A0A0"/>
</svg>
