<svg width="350" height="512" viewBox="0 0 350 512" fill="none" xmlns="http://www.w3.org/2000/svg">
<path d="M28.8275 187.882C37.8275 103.782 72.4275 69.782 93.7275 42.582C108.327 23.982 144.727 19.682 166.327 18.782C166.327 18.682 166.327 18.6821 166.327 18.6821C166.327 18.6821 169.527 18.582 174.727 18.582C179.927 18.582 183.127 18.6821 183.127 18.6821C183.127 18.6821 183.127 18.682 183.127 18.782C204.727 19.682 241.227 24.082 255.727 42.582C277.027 69.682 311.627 103.782 320.627 187.882C329.627 271.982 328.127 269.282 324.927 295.382C321.827 320.882 320.727 465.282 174.727 460.282C28.7275 465.282 27.6275 320.882 24.5275 295.382C21.3275 269.282 19.7275 271.982 28.8275 187.882Z" fill="#1A1A1A"/>
<path d="M28.8275 187.882C37.8275 103.782 72.4275 69.782 93.7275 42.582C108.327 23.982 144.727 19.682 166.327 18.782C166.327 18.682 166.327 18.6821 166.327 18.6821C166.327 18.6821 169.527 18.582 174.727 18.582C179.927 18.582 183.127 18.6821 183.127 18.6821C183.127 18.6821 183.127 18.682 183.127 18.782C204.727 19.682 241.227 24.082 255.727 42.582C277.027 69.682 311.627 103.782 320.627 187.882C329.627 271.982 328.127 269.282 324.927 295.382C321.827 320.882 320.727 465.282 174.727 460.282C28.7275 465.282 27.6275 320.882 24.5275 295.382C21.3275 269.282 19.7275 271.982 28.8275 187.882Z" stroke="#EAEAE9" stroke-width="0.5" stroke-miterlimit="10"/>
<path d="M270.126 293.283C270.126 293.283 274.926 259.183 265.326 235.783C255.726 212.383 231.826 191.083 213.126 189.483C194.526 187.883 189.726 199.083 189.726 205.483C189.726 211.883 188.626 232.583 174.826 232.583C161.026 232.583 153.526 259.183 167.926 276.783C182.326 294.383 241.926 302.283 241.926 302.283L270.126 293.283Z" stroke="#EAEAE9" stroke-width="0.5" stroke-miterlimit="10"/>
<path d="M69.2261 186.781C91.0261 125.081 105.926 95.2812 105.926 95.2812L126.726 79.8812L171.926 70.2812H177.526L222.726 79.8812L243.526 95.2812C243.526 95.2812 258.426 125.081 280.226 186.781C302.026 248.481 286.126 289.481 286.126 289.481C286.126 289.481 284.526 370.381 269.626 351.781C254.726 333.181 239.826 345.881 239.826 345.881L270.126 303.881L277.026 293.281C277.026 293.281 283.926 261.881 285.026 255.981C286.126 250.081 283.926 221.381 276.526 203.781C269.026 186.181 264.326 193.181 245.126 153.781C209.426 80.3812 140.126 80.3812 104.426 153.781C85.2261 193.181 80.5261 186.281 73.0261 203.781C65.5261 221.381 63.4261 250.081 64.5261 255.981C65.6261 261.881 72.5261 293.281 72.5261 293.281L79.4261 303.881L109.726 345.881C109.726 345.881 94.8261 333.081 79.9261 351.781C65.0261 370.381 63.4261 289.481 63.4261 289.481C63.4261 289.481 47.4261 248.581 69.2261 186.781Z" fill="#1A1A1A"/>
<path d="M79.325 293.283C79.325 293.283 74.525 259.183 84.125 235.783C93.725 212.383 117.625 191.083 136.325 189.483C154.925 187.883 159.725 199.083 159.725 205.483C159.725 211.883 160.825 232.583 174.625 232.583C188.425 232.583 195.925 259.183 181.525 276.783C167.125 294.383 107.525 302.283 107.525 302.283L79.325 293.283Z" fill="#1A1A1A"/>
<path d="M79.325 293.283C79.325 293.283 74.525 259.183 84.125 235.783C93.725 212.383 117.625 191.083 136.325 189.483C154.925 187.883 159.725 199.083 159.725 205.483C159.725 211.883 160.825 232.583 174.625 232.583C188.425 232.583 195.925 259.183 181.525 276.783C167.125 294.383 107.525 302.283 107.525 302.283L79.325 293.283Z" stroke="#EAEAE9" stroke-width="0.5" stroke-miterlimit="10"/>
<path d="M74.0281 361.882L114.428 393.782L172.928 410.282L174.628 412.382L176.328 410.282L234.828 393.782L275.228 361.882L300.228 340.582C281.628 430.482 200.728 439.582 191.128 441.682C181.528 443.782 175.728 441.682 175.728 441.682L174.528 435.482L173.328 441.682C173.328 441.682 167.428 443.782 157.928 441.682C148.328 439.582 67.4281 430.482 48.8281 340.582L74.0281 361.882Z" fill="#1A1A1A"/>
<path d="M268.925 292.181C268.925 292.181 273.625 258.881 264.225 235.981C254.825 213.081 231.425 192.281 213.225 190.681C195.025 189.081 190.325 200.081 190.325 206.281C190.325 212.481 188.725 232.981 175.225 232.981C161.725 232.981 154.925 258.881 169.025 276.081C183.125 293.281 241.325 301.081 241.325 301.081L268.925 292.181Z" fill="#1A1A1A"/>
<path d="M56.7266 170.483C62.6266 166.783 68.5266 175.383 74.3266 176.783Z" fill="#1A1A1A"/>
<path d="M74.225 176.782C74.225 176.782 73.925 176.782 73.425 176.582C72.925 176.482 72.225 176.182 71.425 175.782C69.825 174.982 67.725 173.582 65.525 172.082C64.425 171.382 63.325 170.682 62.325 170.282C61.325 169.882 60.325 169.682 59.425 169.582C58.625 169.582 57.925 169.782 57.425 169.982C56.925 170.182 56.625 170.282 56.625 170.382C56.625 170.382 56.825 170.282 57.225 169.982C57.625 169.782 58.325 169.382 59.225 169.282C60.125 169.182 61.325 169.282 62.425 169.682C63.625 170.082 64.725 170.682 65.925 171.482C68.225 172.982 70.025 174.482 71.525 175.382C73.025 176.382 74.125 176.782 74.225 176.782Z" fill="#EAEAE9"/>
<path d="M94.8281 115.582C97.0281 117.782 100.328 118.682 103.428 118.682Z" fill="#1A1A1A"/>
<path d="M103.428 118.58C103.428 118.58 102.928 118.68 102.028 118.68C101.128 118.68 99.9281 118.58 98.7281 118.18C97.4281 117.78 96.4281 117.08 95.8281 116.58C95.2281 115.98 94.9281 115.58 94.8281 115.48C94.8281 115.48 95.2281 115.78 95.9281 116.18C96.6281 116.58 97.7281 117.08 98.9281 117.48C101.328 118.38 103.328 118.58 103.428 118.58Z" fill="#EAEAE9"/>
<path d="M74.2273 276.782C75.8273 269.882 88.7273 253.982 119.027 247.882C138.527 243.882 158.627 244.282 174.627 251.282C237.527 230.282 273.427 269.882 275.027 276.782C277.727 288.282 275.527 310.882 275.527 310.882C275.527 310.882 279.227 317.282 263.327 344.982C247.727 372.082 177.127 384.382 175.127 384.382C163.027 384.382 102.027 372.682 86.0273 344.982C70.0273 317.282 73.8273 310.882 73.8273 310.882C73.8273 310.882 71.5273 288.282 74.2273 276.782Z" fill="#1A1A1A" stroke="#EAEAE9" stroke-width="0.5" stroke-miterlimit="10"/>
<path d="M74.2277 276.782C75.8277 269.882 88.7277 253.982 119.028 247.882C138.528 243.882 158.628 244.282 174.628 251.282C237.528 230.282 273.428 269.882 275.028 276.782C277.728 288.282 275.528 310.882 275.528 310.882C275.528 310.882 273.528 338.782 257.528 366.482C241.928 393.582 176.228 394.582 175.228 394.482C163.128 393.982 93.8277 384.482 85.8277 355.482C77.3277 324.682 73.7277 310.882 73.7277 310.882C73.7277 310.882 71.5277 288.282 74.2277 276.782Z" stroke="#EAEAE9" stroke-width="0.5" stroke-miterlimit="10"/>
<path d="M83.7266 337.281C83.9266 337.381 84.3266 337.781 84.9266 338.481C84.4266 338.081 84.0266 337.681 83.7266 337.281Z" fill="#1A1A1A"/>
<path d="M83.7266 337.281C83.9266 337.381 84.3266 337.781 84.9266 338.481C84.4266 338.081 84.0266 337.681 83.7266 337.281Z" stroke="#EAEAE9" stroke-width="0.5" stroke-miterlimit="10"/>
<path d="M206.127 146.58C206.127 146.58 198.427 125.48 174.827 125.48C151.227 125.48 143.527 144.58 143.527 144.58C143.527 144.58 152.027 131.18 174.427 131.18C196.827 131.18 206.127 146.58 206.127 146.58Z" fill="#1A1A1A"/>
<path d="M281.928 186.781C294.328 219.681 296.328 255.281 291.628 276.581C291.128 278.681 290.628 280.681 290.028 282.581C289.428 284.481 289.028 286.281 288.928 287.981C287.428 303.581 302.428 312.481 312.628 290.881C313.528 288.881 314.428 286.681 315.328 284.181C316.028 282.281 316.528 280.281 317.028 278.181C325.228 244.081 315.228 187.681 313.828 183.581C312.328 179.281 306.228 175.081 306.228 175.081C306.228 175.081 268.228 150.681 281.928 186.781Z" fill="#1A1A1A"/>
<path d="M273.625 183.683C273.925 185.983 274.625 187.783 275.025 189.083C275.725 191.883 280.325 195.583 285.025 195.283C289.025 194.983 291.025 192.683 299.525 193.683C308.025 194.783 312.325 186.583 313.025 178.783C313.325 175.983 312.725 173.083 311.925 170.383C310.425 165.483 308.025 161.483 308.025 161.483C294.225 156.183 278.925 167.883 275.425 174.583C273.525 178.183 273.325 181.183 273.625 183.683Z" fill="#1A1A1A"/>
<path d="M273.625 183.683C273.925 185.983 274.625 187.783 275.025 189.083C275.725 191.883 280.325 195.583 285.025 195.283C289.025 194.983 291.025 192.683 299.525 193.683C308.025 194.783 312.325 186.583 313.025 178.783C313.325 175.983 312.725 173.083 311.925 170.383C310.425 165.483 308.025 161.483 308.025 161.483C294.225 156.183 278.925 167.883 275.425 174.583C273.525 178.183 273.325 181.183 273.625 183.683Z" stroke="#EAEAE9" stroke-width="0.5" stroke-miterlimit="10"/>
<path d="M268.925 174.581C270.025 178.481 275.325 185.181 280.625 182.081C282.125 181.181 283.425 180.681 284.725 180.381C287.925 179.681 290.825 180.481 295.125 180.681C298.725 180.881 300.425 180.581 302.425 179.181C303.725 178.281 305.125 176.781 307.225 174.681C312.525 169.381 309.725 165.481 308.325 157.681C307.625 153.781 305.625 150.181 303.825 147.581C302.125 145.181 300.725 143.681 300.525 143.481C298.825 142.881 297.025 142.881 294.925 143.181C293.025 143.481 291.025 144.181 289.025 144.981C288.725 145.081 288.425 145.181 288.125 145.381C287.825 145.481 287.525 145.681 287.225 145.781C284.725 146.981 282.225 148.381 279.925 149.881C276.925 151.781 274.125 153.781 272.025 155.181C268.825 157.381 267.325 160.981 266.725 164.481C266.625 165.181 266.525 165.981 266.425 166.681C266.325 169.881 268.525 172.881 268.925 174.581Z" fill="#1A1A1A"/>
<path d="M268.925 174.581C270.025 178.481 275.325 185.181 280.625 182.081C282.125 181.181 283.425 180.681 284.725 180.381C287.925 179.681 290.825 180.481 295.125 180.681C298.725 180.881 300.425 180.581 302.425 179.181C303.725 178.281 305.125 176.781 307.225 174.681C312.525 169.381 309.725 165.481 308.325 157.681C307.625 153.781 305.625 150.181 303.825 147.581C302.125 145.181 300.725 143.681 300.525 143.481C298.825 142.881 297.025 142.881 294.925 143.181C293.025 143.481 291.025 144.181 289.025 144.981C288.725 145.081 288.425 145.181 288.125 145.381C287.825 145.481 287.525 145.681 287.225 145.781C284.725 146.981 282.225 148.381 279.925 149.881C276.925 151.781 274.125 153.781 272.025 155.181C268.825 157.381 267.325 160.981 266.725 164.481C266.625 165.181 266.525 165.981 266.425 166.681C266.325 169.881 268.525 172.881 268.925 174.581Z" stroke="#EAEAE9" stroke-width="0.5" stroke-miterlimit="10"/>
<path d="M258.128 143.58C258.228 144.78 258.328 145.88 258.628 146.88C259.028 148.48 259.628 149.78 260.528 150.38C263.328 152.48 263.328 158.58 264.128 162.08C264.828 165.58 273.328 166.68 277.628 163.88C277.828 163.78 278.028 163.58 278.228 163.48C281.928 161.48 285.928 162.58 289.728 163.28C296.028 164.38 301.328 163.98 302.328 144.38C302.928 133.18 291.828 122.28 287.828 120.28C280.428 118.08 274.128 119.88 268.828 124.08C265.228 126.88 262.128 130.78 259.528 135.18C258.128 137.28 257.928 141.08 258.128 143.58Z" fill="#1A1A1A"/>
<path d="M258.128 143.58C258.228 144.78 258.328 145.88 258.628 146.88C259.028 148.48 259.628 149.78 260.528 150.38C263.328 152.48 263.328 158.58 264.128 162.08C264.828 165.58 273.328 166.68 277.628 163.88C277.828 163.78 278.028 163.58 278.228 163.48C281.928 161.48 285.928 162.58 289.728 163.28C296.028 164.38 301.328 163.98 302.328 144.38C302.928 133.18 291.828 122.28 287.828 120.28C280.428 118.08 274.128 119.88 268.828 124.08C265.228 126.88 262.128 130.78 259.528 135.18C258.128 137.28 257.928 141.08 258.128 143.58Z" stroke="#EAEAE9" stroke-width="0.5" stroke-miterlimit="10"/>
<path d="M248.126 123.083C249.026 126.383 253.126 126.783 254.626 127.883C259.126 131.283 255.726 143.783 269.026 137.783C273.026 135.983 278.126 137.183 282.226 136.283C282.226 136.283 283.926 135.983 285.326 134.983C292.526 129.583 290.326 97.8828 272.926 97.8828C270.026 97.8828 267.926 98.7828 267.926 98.7828C264.326 99.0828 256.026 103.383 253.026 105.183C244.626 110.183 245.526 113.483 248.126 123.083Z" fill="#1A1A1A"/>
<path d="M248.126 123.083C249.026 126.383 253.126 126.783 254.626 127.883C259.126 131.283 255.726 143.783 269.026 137.783C273.026 135.983 278.126 137.183 282.226 136.283C282.226 136.283 283.926 135.983 285.326 134.983C292.526 129.583 290.326 97.8828 272.926 97.8828C270.026 97.8828 267.926 98.7828 267.926 98.7828C264.326 99.0828 256.026 103.383 253.026 105.183C244.626 110.183 245.526 113.483 248.126 123.083Z" stroke="#EAEAE9" stroke-width="0.5" stroke-miterlimit="10"/>
<path d="M289.227 119.582C289.327 120.582 289.327 121.482 289.327 122.382C289.327 121.482 289.227 120.582 289.227 119.582Z" fill="#1A1A1A"/>
<path d="M289.227 119.582C289.327 120.582 289.327 121.482 289.327 122.382C289.327 121.482 289.227 120.582 289.227 119.582Z" stroke="#EAEAE9" stroke-width="0.5" stroke-miterlimit="10"/>
<path d="M238.027 92.2797C238.027 94.1797 238.427 99.8797 239.527 104.98C239.527 105.08 239.527 105.08 239.627 105.18C240.027 107.08 240.627 108.98 241.327 110.48C241.527 110.88 241.627 111.18 241.827 111.48C242.227 112.28 242.627 112.98 243.027 113.68C243.427 114.38 243.727 115.08 244.127 115.68C244.727 116.68 245.227 117.68 245.827 118.58C245.927 118.78 246.027 118.98 246.127 119.08C246.227 119.28 246.327 119.48 246.527 119.58C246.827 119.98 247.027 120.28 247.327 120.68C247.427 120.78 247.527 120.98 247.727 121.08C247.927 121.28 248.127 121.48 248.427 121.68C248.527 121.78 248.627 121.78 248.627 121.88C249.127 122.28 249.627 122.48 250.227 122.58C250.327 122.58 250.427 122.58 250.627 122.58C251.027 122.58 251.527 122.48 252.027 122.28C255.927 120.48 258.427 121.18 264.827 121.58C267.227 121.68 269.127 121.48 270.727 120.78C271.227 120.58 271.727 120.28 272.227 119.88C272.927 119.28 273.527 118.58 274.127 117.88C281.527 108.08 275.527 87.3797 261.427 83.6797C260.727 83.4797 260.027 83.5797 259.227 83.5797C256.927 83.5797 254.327 84.1797 251.527 85.1797C241.827 87.3797 238.027 92.2797 238.027 92.2797Z" fill="#1A1A1A"/>
<path d="M238.027 92.2797C238.027 94.1797 238.427 99.8797 239.527 104.98C239.527 105.08 239.527 105.08 239.627 105.18C240.027 107.08 240.627 108.98 241.327 110.48C241.527 110.88 241.627 111.18 241.827 111.48C242.227 112.28 242.627 112.98 243.027 113.68C243.427 114.38 243.727 115.08 244.127 115.68C244.727 116.68 245.227 117.68 245.827 118.58C245.927 118.78 246.027 118.98 246.127 119.08C246.227 119.28 246.327 119.48 246.527 119.58C246.827 119.98 247.027 120.28 247.327 120.68C247.427 120.78 247.527 120.98 247.727 121.08C247.927 121.28 248.127 121.48 248.427 121.68C248.527 121.78 248.627 121.78 248.627 121.88C249.127 122.28 249.627 122.48 250.227 122.58C250.327 122.58 250.427 122.58 250.627 122.58C251.027 122.58 251.527 122.48 252.027 122.28C255.927 120.48 258.427 121.18 264.827 121.58C267.227 121.68 269.127 121.48 270.727 120.78C271.227 120.58 271.727 120.28 272.227 119.88C272.927 119.28 273.527 118.58 274.127 117.88C281.527 108.08 275.527 87.3797 261.427 83.6797C260.727 83.4797 260.027 83.5797 259.227 83.5797C256.927 83.5797 254.327 84.1797 251.527 85.1797C241.827 87.3797 238.027 92.2797 238.027 92.2797Z" stroke="#EAEAE9" stroke-width="0.5" stroke-miterlimit="10"/>
<path d="M234.026 90.5828C234.126 91.7828 234.226 92.8828 234.426 93.7828C234.426 93.9828 234.526 94.1828 234.526 94.3828C235.426 98.8828 237.226 99.6828 239.226 102.283C242.826 106.983 248.626 105.983 251.526 103.783C252.326 102.983 253.126 102.083 253.926 101.083C258.226 95.1828 260.426 85.5828 253.026 76.6828C248.726 71.4828 246.326 69.8828 243.326 69.4828C242.326 69.3828 241.026 69.2828 239.726 69.5828C237.426 70.0828 235.126 71.4828 233.926 75.0828C232.826 78.1828 233.726 85.0828 234.026 90.5828Z" fill="#1A1A1A"/>
<path d="M234.026 90.5828C234.126 91.7828 234.226 92.8828 234.426 93.7828C234.426 93.9828 234.526 94.1828 234.526 94.3828C235.426 98.8828 237.226 99.6828 239.226 102.283C242.826 106.983 248.626 105.983 251.526 103.783C252.326 102.983 253.126 102.083 253.926 101.083C258.226 95.1828 260.426 85.5828 253.026 76.6828C248.726 71.4828 246.326 69.8828 243.326 69.4828C242.326 69.3828 241.026 69.2828 239.726 69.5828C237.426 70.0828 235.126 71.4828 233.926 75.0828C232.826 78.1828 233.726 85.0828 234.026 90.5828Z" stroke="#EAEAE9" stroke-width="0.5" stroke-miterlimit="10"/>
<path d="M210.827 81.5806C211.227 87.9806 219.727 92.3806 228.727 93.2806C232.627 93.6806 234.727 92.8806 235.727 90.7806C236.827 88.5806 236.827 84.8805 236.527 79.3805C235.827 67.5805 231.027 59.4805 224.327 58.3805C221.727 57.9805 218.727 58.4806 216.227 59.7806C215.927 59.9806 215.627 60.1806 215.327 60.2806C212.727 61.9806 210.927 64.5805 211.127 67.8805C211.127 68.0805 210.427 75.2806 210.827 81.5806Z" fill="#1A1A1A"/>
<path d="M210.827 81.5806C211.227 87.9806 219.727 92.3806 228.727 93.2806C232.627 93.6806 234.727 92.8806 235.727 90.7806C236.827 88.5806 236.827 84.8805 236.527 79.3805C235.827 67.5805 231.027 59.4805 224.327 58.3805C221.727 57.9805 218.727 58.4806 216.227 59.7806C215.927 59.9806 215.627 60.1806 215.327 60.2806C212.727 61.9806 210.927 64.5805 211.127 67.8805C211.127 68.0805 210.427 75.2806 210.827 81.5806Z" stroke="#EAEAE9" stroke-width="0.5" stroke-miterlimit="10"/>
<path d="M175.328 64.2793C175.328 70.8793 175.428 75.3793 176.028 78.2793C176.828 82.2793 178.428 83.4793 181.728 83.4793C187.728 83.4793 198.028 84.2793 204.128 84.5793C210.928 84.8793 212.728 83.2793 212.928 79.0793C212.928 78.6793 212.928 78.2792 212.928 77.8792C212.928 72.1792 212.528 59.4792 209.428 53.3792C204.928 44.7792 190.828 42.9792 182.428 48.3792C175.328 52.8792 175.328 64.2793 175.328 64.2793Z" fill="#1A1A1A"/>
<path d="M175.328 64.2793C175.328 70.8793 175.428 75.3793 176.028 78.2793C176.828 82.2793 178.428 83.4793 181.728 83.4793C187.728 83.4793 198.028 84.2793 204.128 84.5793C210.928 84.8793 212.728 83.2793 212.928 79.0793C212.928 78.6793 212.928 78.2792 212.928 77.8792C212.928 72.1792 212.528 59.4792 209.428 53.3792C204.928 44.7792 190.828 42.9792 182.428 48.3792C175.328 52.8792 175.328 64.2793 175.328 64.2793Z" stroke="#EAEAE9" stroke-width="0.5" stroke-miterlimit="10"/>
<path d="M74.3252 299.78C74.3252 299.78 74.2252 299.78 74.3252 299.78C74.0252 300.68 73.6252 301.88 73.2252 303.38C73.2252 303.48 73.1252 303.68 73.1252 303.78C71.8252 307.28 66.9252 308.78 66.4252 308.98H66.3252C66.3252 308.98 56.1252 312.88 47.3252 314.58C46.7252 314.68 46.0252 314.78 45.4252 314.88C43.4252 315.18 41.6252 315.38 40.0252 315.28C38.9252 315.28 37.7252 313.78 36.6252 311.48C34.3252 306.58 33.3252 299.08 33.4252 292.18C33.4252 288.78 33.0252 285.18 34.3252 283.38C35.0252 282.48 35.7252 281.08 36.5252 280.58C39.3252 278.58 43.0252 278.58 46.9252 279.38C49.7252 279.98 52.6252 279.68 55.4252 279.28C58.9252 278.78 62.1252 277.98 64.5252 278.28C68.8252 278.78 70.6252 284.68 70.6252 287.88C70.6252 290.48 71.6252 292.98 72.9252 294.88C72.9252 294.88 72.9252 294.98 73.0252 294.98C73.3252 295.38 73.6252 295.78 73.9252 296.08C74.7252 297.38 74.7252 298.28 74.3252 299.78Z" fill="#1A1A1A"/>
<path d="M74.3252 299.78C74.3252 299.78 74.2252 299.78 74.3252 299.78C74.0252 300.68 73.6252 301.88 73.2252 303.38C73.2252 303.48 73.1252 303.68 73.1252 303.78C71.8252 307.28 66.9252 308.78 66.4252 308.98H66.3252C66.3252 308.98 56.1252 312.88 47.3252 314.58C46.7252 314.68 46.0252 314.78 45.4252 314.88C43.4252 315.18 41.6252 315.38 40.0252 315.28C38.9252 315.28 37.7252 313.78 36.6252 311.48C34.3252 306.58 33.3252 299.08 33.4252 292.18C33.4252 288.78 33.0252 285.18 34.3252 283.38C35.0252 282.48 35.7252 281.08 36.5252 280.58C39.3252 278.58 43.0252 278.58 46.9252 279.38C49.7252 279.98 52.6252 279.68 55.4252 279.28C58.9252 278.78 62.1252 277.98 64.5252 278.28C68.8252 278.78 70.6252 284.68 70.6252 287.88C70.6252 290.48 71.6252 292.98 72.9252 294.88C72.9252 294.88 72.9252 294.98 73.0252 294.98C73.3252 295.38 73.6252 295.78 73.9252 296.08C74.7252 297.38 74.7252 298.28 74.3252 299.78Z" stroke="#EAEAE9" stroke-width="0.5" stroke-miterlimit="10"/>
<path d="M81.825 327.48C81.825 327.68 81.725 327.88 81.725 328.08C81.225 330.18 78.825 335.28 78.825 335.28C78.825 335.28 69.625 341.28 57.325 342.18C57.125 342.18 56.925 342.18 56.725 342.18C55.125 342.28 53.425 342.28 51.725 342.18C49.225 341.98 47.125 341.08 45.425 339.68C37.025 332.78 37.625 313.48 38.925 307.28C39.125 306.48 39.325 305.78 39.625 305.18C40.125 304.08 40.925 303.18 41.725 302.48L41.825 302.38C45.025 299.98 49.825 300.28 52.925 300.88C53.325 300.98 53.625 300.98 54.025 301.08C58.025 301.68 61.625 301.68 69.125 300.88C77.425 300.08 78.225 306.98 78.225 310.98C78.225 314.98 79.025 317.38 80.325 319.78C81.225 321.28 81.725 323.38 81.825 325.28C81.925 326.18 81.925 326.88 81.825 327.48Z" fill="#1A1A1A"/>
<path d="M81.825 327.48C81.825 327.68 81.725 327.88 81.725 328.08C81.225 330.18 78.825 335.28 78.825 335.28C78.825 335.28 69.625 341.28 57.325 342.18C57.125 342.18 56.925 342.18 56.725 342.18C55.125 342.28 53.425 342.28 51.725 342.18C49.225 341.98 47.125 341.08 45.425 339.68C37.025 332.78 37.625 313.48 38.925 307.28C39.125 306.48 39.325 305.78 39.625 305.18C40.125 304.08 40.925 303.18 41.725 302.48L41.825 302.38C45.025 299.98 49.825 300.28 52.925 300.88C53.325 300.98 53.625 300.98 54.025 301.08C58.025 301.68 61.625 301.68 69.125 300.88C77.425 300.08 78.225 306.98 78.225 310.98C78.225 314.98 79.025 317.38 80.325 319.78C81.225 321.28 81.725 323.38 81.825 325.28C81.925 326.18 81.925 326.88 81.825 327.48Z" stroke="#EAEAE9" stroke-width="0.5" stroke-miterlimit="10"/>
<path d="M89.7283 361.68C89.7283 361.68 87.6283 377.68 65.5283 373.08C62.5283 372.48 61.0283 371.48 59.6283 370.28C58.9283 369.68 58.1283 368.88 57.2283 368.18C56.9283 367.88 56.6283 367.68 56.3283 367.38C47.4283 359.08 46.9283 344.08 47.2283 336.48C47.2283 336.18 47.2283 335.88 47.2283 335.58C47.2283 334.98 47.3283 334.48 47.4283 333.98C47.4283 333.78 47.5283 333.58 47.5283 333.38C48.1283 331.18 49.3283 329.78 50.9283 328.88C51.0283 328.78 51.1283 328.78 51.2283 328.78C54.6283 327.18 59.2283 328.08 60.9283 329.08C62.3283 329.88 64.0283 330.18 66.0283 330.18C68.2283 330.18 70.8283 329.68 73.9283 328.88C80.0283 327.28 84.3283 330.48 85.1283 334.78C85.9283 339.08 87.5283 341.48 90.7283 345.68C93.9283 349.68 89.7283 361.68 89.7283 361.68Z" fill="#1A1A1A"/>
<path d="M89.7283 361.68C89.7283 361.68 87.6283 377.68 65.5283 373.08C62.5283 372.48 61.0283 371.48 59.6283 370.28C58.9283 369.68 58.1283 368.88 57.2283 368.18C56.9283 367.88 56.6283 367.68 56.3283 367.38C47.4283 359.08 46.9283 344.08 47.2283 336.48C47.2283 336.18 47.2283 335.88 47.2283 335.58C47.2283 334.98 47.3283 334.48 47.4283 333.98C47.4283 333.78 47.5283 333.58 47.5283 333.38C48.1283 331.18 49.3283 329.78 50.9283 328.88C51.0283 328.78 51.1283 328.78 51.2283 328.78C54.6283 327.18 59.2283 328.08 60.9283 329.08C62.3283 329.88 64.0283 330.18 66.0283 330.18C68.2283 330.18 70.8283 329.68 73.9283 328.88C80.0283 327.28 84.3283 330.48 85.1283 334.78C85.9283 339.08 87.5283 341.48 90.7283 345.68C93.9283 349.68 89.7283 361.68 89.7283 361.68Z" stroke="#EAEAE9" stroke-width="0.5" stroke-miterlimit="10"/>
<path d="M99.8256 366.083C99.8256 368.683 98.8256 370.783 98.8256 370.883C98.8256 370.883 92.2256 384.683 89.8256 385.783C88.4256 386.383 82.3256 389.883 76.0256 388.283C74.9256 388.083 73.9256 387.683 72.8256 387.083C69.7256 385.383 66.6256 382.183 64.3256 376.483C58.5256 362.483 63.6256 356.683 67.9256 354.683C69.5256 353.883 71.0256 353.683 71.8256 353.683C74.3256 353.683 76.3256 355.583 80.7256 354.883C81.5256 354.783 82.5256 354.583 83.5256 354.183C89.9256 352.083 92.5256 355.283 97.3256 359.783C98.7256 361.083 99.4256 362.583 99.7256 363.983C99.7256 364.683 99.8256 365.383 99.8256 366.083Z" fill="#1A1A1A"/>
<path d="M99.8256 366.083C99.8256 368.683 98.8256 370.783 98.8256 370.883C98.8256 370.883 92.2256 384.683 89.8256 385.783C88.4256 386.383 82.3256 389.883 76.0256 388.283C74.9256 388.083 73.9256 387.683 72.8256 387.083C69.7256 385.383 66.6256 382.183 64.3256 376.483C58.5256 362.483 63.6256 356.683 67.9256 354.683C69.5256 353.883 71.0256 353.683 71.8256 353.683C74.3256 353.683 76.3256 355.583 80.7256 354.883C81.5256 354.783 82.5256 354.583 83.5256 354.183C89.9256 352.083 92.5256 355.283 97.3256 359.783C98.7256 361.083 99.4256 362.583 99.7256 363.983C99.7256 364.683 99.8256 365.383 99.8256 366.083Z" stroke="#EAEAE9" stroke-width="0.5" stroke-miterlimit="10"/>
<path d="M112.027 389.581L109.327 399.181C108.927 399.281 108.527 399.481 108.027 399.581C107.827 399.681 107.727 399.681 107.527 399.681C107.427 399.681 107.427 399.681 107.427 399.681C104.227 400.581 101.327 401.081 98.7269 401.181C97.5269 401.181 96.4269 401.181 95.3269 401.081C85.3269 400.081 80.4269 392.781 79.2269 383.181C77.9269 372.181 81.7269 367.381 84.8269 366.281C85.4269 366.081 86.1269 365.981 86.6269 366.081C89.2269 366.481 91.2269 366.781 94.3269 366.281C95.6269 366.081 97.1269 365.681 98.9269 365.181C103.527 363.781 105.127 368.081 107.427 371.981C107.627 372.381 107.927 372.781 108.227 373.181C108.727 373.881 109.227 374.581 109.827 375.281C110.227 375.781 110.627 376.281 110.927 376.881C113.527 381.581 112.027 389.581 112.027 389.581Z" fill="#1A1A1A"/>
<path d="M112.027 389.581L109.327 399.181C108.927 399.281 108.527 399.481 108.027 399.581C107.827 399.681 107.727 399.681 107.527 399.681C107.427 399.681 107.427 399.681 107.427 399.681C104.227 400.581 101.327 401.081 98.7269 401.181C97.5269 401.181 96.4269 401.181 95.3269 401.081C85.3269 400.081 80.4269 392.781 79.2269 383.181C77.9269 372.181 81.7269 367.381 84.8269 366.281C85.4269 366.081 86.1269 365.981 86.6269 366.081C89.2269 366.481 91.2269 366.781 94.3269 366.281C95.6269 366.081 97.1269 365.681 98.9269 365.181C103.527 363.781 105.127 368.081 107.427 371.981C107.627 372.381 107.927 372.781 108.227 373.181C108.727 373.881 109.227 374.581 109.827 375.281C110.227 375.781 110.627 376.281 110.927 376.881C113.527 381.581 112.027 389.581 112.027 389.581Z" stroke="#EAEAE9" stroke-width="0.5" stroke-miterlimit="10"/>
<path d="M129.927 399.379L131.027 387.379C131.027 387.379 131.327 383.779 126.227 382.579C120.627 381.279 117.427 378.879 115.027 377.279C112.627 375.679 109.127 374.379 106.527 378.079C103.827 381.779 102.027 398.279 105.427 403.879C108.827 409.479 126.427 417.779 129.927 399.379Z" fill="#1A1A1A"/>
<path d="M129.927 399.379L131.027 387.379C131.027 387.379 131.327 383.779 126.227 382.579C120.627 381.279 117.427 378.879 115.027 377.279C112.627 375.679 109.127 374.379 106.527 378.079C103.827 381.779 102.027 398.279 105.427 403.879C108.827 409.479 126.427 417.779 129.927 399.379Z" stroke="#EAEAE9" stroke-width="0.5" stroke-miterlimit="10"/>
<path d="M153.825 405.28L154.125 394.88C154.125 394.88 155.425 390.38 150.925 389.58C144.625 388.48 139.525 387.48 136.825 385.88C134.125 384.28 129.125 383.98 128.825 390.68C128.525 397.38 125.625 413.58 138.625 416.18C151.925 418.88 153.025 411.18 153.825 405.28Z" fill="#1A1A1A"/>
<path d="M153.825 405.28L154.125 394.88C154.125 394.88 155.425 390.38 150.925 389.58C144.625 388.48 139.525 387.48 136.825 385.88C134.125 384.28 129.125 383.98 128.825 390.68C128.525 397.38 125.625 413.58 138.625 416.18C151.925 418.88 153.025 411.18 153.825 405.28Z" stroke="#EAEAE9" stroke-width="0.5" stroke-miterlimit="10"/>
<path d="M175.127 393.882V410.382C175.127 410.382 174.327 418.382 163.627 418.382C152.927 418.382 152.727 408.282 152.427 403.782C152.127 399.282 152.927 393.982 152.927 393.982C152.927 393.982 153.127 389.482 158.127 389.682C163.327 389.982 171.427 389.982 171.427 389.982C171.427 389.982 174.927 389.882 175.127 393.882Z" fill="#1A1A1A"/>
<path d="M175.127 393.881V410.381C175.127 410.381 174.327 418.281 163.627 418.281C152.927 418.281 152.727 408.181 152.427 403.681C152.127 399.181 152.927 393.881 152.927 393.881C152.927 393.881 153.127 389.381 158.127 389.581C163.327 389.881 171.427 389.881 171.427 389.881C171.427 389.881 174.927 389.881 175.127 393.881Z" stroke="#EAEAE9" stroke-width="0.5" stroke-miterlimit="10"/>
<path d="M65.2266 349.68C66.8266 347.78 69.2266 346.18 70.8266 344.08C73.2266 340.38 73.5266 334.28 78.0266 332.68" fill="#1A1A1A"/>
<path d="M89.7266 369.383C91.3266 370.483 92.9266 369.883 94.8266 370.183C99.3266 370.983 100.727 373.083 102.027 377.083" fill="#1A1A1A"/>
<path d="M101.927 377.082C101.927 377.082 101.827 376.882 101.627 376.482C101.427 376.082 101.227 375.582 100.927 374.982C100.327 373.682 99.1266 372.082 97.2266 371.282C96.2266 370.882 95.3266 370.582 94.4266 370.482C93.5266 370.382 92.7266 370.382 92.0266 370.282C90.5266 370.182 89.8266 369.482 89.7266 369.382C89.7266 369.282 90.4266 369.882 91.9266 369.882C92.6266 369.882 93.5266 369.782 94.5266 369.882C95.5266 369.982 96.5266 370.182 97.6266 370.682C98.7266 371.082 99.5266 371.882 100.127 372.582C100.727 373.382 101.027 374.182 101.327 374.782C101.727 376.082 101.927 376.982 101.927 377.082Z" fill="#EAEAE9"/>
<path d="M276.126 299.78C276.426 300.68 276.826 301.88 277.226 303.38C277.226 303.48 277.326 303.68 277.326 303.78C278.626 307.28 283.526 308.78 284.026 308.98H284.126C284.126 308.98 294.326 312.88 303.126 314.58C303.726 314.68 304.426 314.78 305.026 314.88C307.026 315.18 308.826 315.38 310.426 315.28C311.526 315.28 312.726 313.78 313.826 311.48C316.126 306.58 317.126 299.08 317.026 292.18C317.026 288.78 317.426 285.18 316.126 283.38C315.426 282.48 314.726 281.08 313.926 280.58C311.126 278.58 307.426 278.58 303.526 279.38C300.726 279.98 297.826 279.68 295.026 279.28C291.526 278.78 288.326 277.98 285.926 278.28C281.626 278.78 279.826 284.68 279.826 287.88C279.826 290.48 278.826 292.98 277.526 294.88C277.526 294.88 277.526 294.98 277.426 294.98C277.126 295.38 276.826 295.78 276.526 296.08C275.726 297.38 275.726 298.28 276.126 299.78Z" fill="#1A1A1A"/>
<path d="M276.126 299.78C276.426 300.68 276.826 301.88 277.226 303.38C277.226 303.48 277.326 303.68 277.326 303.78C278.626 307.28 283.526 308.78 284.026 308.98H284.126C284.126 308.98 294.326 312.88 303.126 314.58C303.726 314.68 304.426 314.78 305.026 314.88C307.026 315.18 308.826 315.38 310.426 315.28C311.526 315.28 312.726 313.78 313.826 311.48C316.126 306.58 317.126 299.08 317.026 292.18C317.026 288.78 317.426 285.18 316.126 283.38C315.426 282.48 314.726 281.08 313.926 280.58C311.126 278.58 307.426 278.58 303.526 279.38C300.726 279.98 297.826 279.68 295.026 279.28C291.526 278.78 288.326 277.98 285.926 278.28C281.626 278.78 279.826 284.68 279.826 287.88C279.826 290.48 278.826 292.98 277.526 294.88C277.526 294.88 277.526 294.98 277.426 294.98C277.126 295.38 276.826 295.78 276.526 296.08C275.726 297.38 275.726 298.28 276.126 299.78Z" stroke="#EAEAE9" stroke-width="0.5" stroke-miterlimit="10"/>
<path d="M268.626 327.48C268.626 327.68 268.726 327.88 268.726 328.08C269.226 330.18 271.626 335.28 271.626 335.28C271.626 335.28 280.826 341.28 293.126 342.18C293.326 342.18 293.526 342.18 293.726 342.18C295.326 342.28 297.026 342.28 298.726 342.18C301.226 341.98 303.326 341.08 305.026 339.68C313.426 332.78 312.826 313.48 311.526 307.28C311.326 306.48 311.126 305.78 310.826 305.18C310.326 304.08 309.526 303.18 308.726 302.48L308.626 302.38C305.426 299.98 300.626 300.28 297.526 300.88C297.126 300.98 296.826 300.98 296.426 301.08C292.426 301.68 288.826 301.68 281.326 300.88C273.026 300.08 272.226 306.98 272.226 310.98C272.226 314.98 271.426 317.38 270.126 319.78C269.226 321.28 268.726 323.38 268.626 325.28C268.526 326.18 268.526 326.88 268.626 327.48Z" fill="#1A1A1A"/>
<path d="M268.626 327.48C268.626 327.68 268.726 327.88 268.726 328.08C269.226 330.18 271.626 335.28 271.626 335.28C271.626 335.28 280.826 341.28 293.126 342.18C293.326 342.18 293.526 342.18 293.726 342.18C295.326 342.28 297.026 342.28 298.726 342.18C301.226 341.98 303.326 341.08 305.026 339.68C313.426 332.78 312.826 313.48 311.526 307.28C311.326 306.48 311.126 305.78 310.826 305.18C310.326 304.08 309.526 303.18 308.726 302.48L308.626 302.38C305.426 299.98 300.626 300.28 297.526 300.88C297.126 300.98 296.826 300.98 296.426 301.08C292.426 301.68 288.826 301.68 281.326 300.88C273.026 300.08 272.226 306.98 272.226 310.98C272.226 314.98 271.426 317.38 270.126 319.78C269.226 321.28 268.726 323.38 268.626 325.28C268.526 326.18 268.526 326.88 268.626 327.48Z" stroke="#EAEAE9" stroke-width="0.5" stroke-miterlimit="10"/>
<path d="M260.726 361.68C260.726 361.68 262.826 377.68 284.926 373.08C287.926 372.48 289.426 371.48 290.826 370.28C291.526 369.68 292.326 368.88 293.226 368.18C293.526 367.88 293.826 367.68 294.126 367.38C303.026 359.08 303.526 344.08 303.226 336.48C303.226 336.18 303.226 335.88 303.226 335.58C303.226 334.98 303.126 334.48 303.026 333.98C303.026 333.78 302.926 333.58 302.926 333.38C302.326 331.18 301.126 329.78 299.526 328.88C299.426 328.78 299.326 328.78 299.226 328.78C295.826 327.18 291.226 328.08 289.526 329.08C288.126 329.88 286.426 330.18 284.426 330.18C282.226 330.18 279.626 329.68 276.526 328.88C270.426 327.28 266.126 330.48 265.326 334.78C264.526 339.08 262.926 341.48 259.726 345.68C256.426 349.68 260.726 361.68 260.726 361.68Z" fill="#1A1A1A"/>
<path d="M260.726 361.68C260.726 361.68 262.826 377.68 284.926 373.08C287.926 372.48 289.426 371.48 290.826 370.28C291.526 369.68 292.326 368.88 293.226 368.18C293.526 367.88 293.826 367.68 294.126 367.38C303.026 359.08 303.526 344.08 303.226 336.48C303.226 336.18 303.226 335.88 303.226 335.58C303.226 334.98 303.126 334.48 303.026 333.98C303.026 333.78 302.926 333.58 302.926 333.38C302.326 331.18 301.126 329.78 299.526 328.88C299.426 328.78 299.326 328.78 299.226 328.78C295.826 327.18 291.226 328.08 289.526 329.08C288.126 329.88 286.426 330.18 284.426 330.18C282.226 330.18 279.626 329.68 276.526 328.88C270.426 327.28 266.126 330.48 265.326 334.78C264.526 339.08 262.926 341.48 259.726 345.68C256.426 349.68 260.726 361.68 260.726 361.68Z" stroke="#EAEAE9" stroke-width="0.5" stroke-miterlimit="10"/>
<path d="M250.625 366.083C250.625 368.683 251.625 370.783 251.625 370.883C251.625 370.883 258.225 384.683 260.625 385.783C262.025 386.383 268.125 389.883 274.425 388.283C275.525 388.083 276.525 387.683 277.625 387.083C280.725 385.383 283.825 382.183 286.225 376.483C292.025 362.483 286.925 356.683 282.625 354.683C281.025 353.883 279.525 353.683 278.725 353.683C276.225 353.683 274.225 355.583 269.825 354.883C269.025 354.783 268.025 354.583 267.025 354.183C260.625 352.083 258.025 355.283 253.225 359.783C251.825 361.083 251.125 362.583 250.825 363.983C250.725 364.683 250.625 365.383 250.625 366.083Z" fill="#1A1A1A"/>
<path d="M250.625 366.083C250.625 368.683 251.625 370.783 251.625 370.883C251.625 370.883 258.225 384.683 260.625 385.783C262.025 386.383 268.125 389.883 274.425 388.283C275.525 388.083 276.525 387.683 277.625 387.083C280.725 385.383 283.825 382.183 286.225 376.483C292.025 362.483 286.925 356.683 282.625 354.683C281.025 353.883 279.525 353.683 278.725 353.683C276.225 353.683 274.225 355.583 269.825 354.883C269.025 354.783 268.025 354.583 267.025 354.183C260.625 352.083 258.025 355.283 253.225 359.783C251.825 361.083 251.125 362.583 250.825 363.983C250.725 364.683 250.625 365.383 250.625 366.083Z" stroke="#EAEAE9" stroke-width="0.5" stroke-miterlimit="10"/>
<path d="M238.328 389.581L241.028 399.181C241.428 399.281 241.828 399.481 242.328 399.581C242.528 399.681 242.628 399.681 242.828 399.681C242.928 399.681 242.928 399.681 242.928 399.681C246.128 400.581 249.028 401.081 251.628 401.181C252.828 401.181 253.928 401.181 255.028 401.081C265.028 400.081 269.928 392.781 271.128 383.181C272.428 372.181 268.628 367.381 265.528 366.281C264.928 366.081 264.228 365.981 263.728 366.081C261.128 366.481 259.128 366.781 256.028 366.281C254.728 366.081 253.228 365.681 251.428 365.181C246.828 363.781 245.228 368.081 242.928 371.981C242.728 372.381 242.428 372.781 242.128 373.181C241.628 373.881 241.128 374.581 240.528 375.281C240.128 375.781 239.728 376.281 239.428 376.881C236.928 381.581 238.328 389.581 238.328 389.581Z" fill="#1A1A1A"/>
<path d="M238.328 389.581L241.028 399.181C241.428 399.281 241.828 399.481 242.328 399.581C242.528 399.681 242.628 399.681 242.828 399.681C242.928 399.681 242.928 399.681 242.928 399.681C246.128 400.581 249.028 401.081 251.628 401.181C252.828 401.181 253.928 401.181 255.028 401.081C265.028 400.081 269.928 392.781 271.128 383.181C272.428 372.181 268.628 367.381 265.528 366.281C264.928 366.081 264.228 365.981 263.728 366.081C261.128 366.481 259.128 366.781 256.028 366.281C254.728 366.081 253.228 365.681 251.428 365.181C246.828 363.781 245.228 368.081 242.928 371.981C242.728 372.381 242.428 372.781 242.128 373.181C241.628 373.881 241.128 374.581 240.528 375.281C240.128 375.781 239.728 376.281 239.428 376.881C236.928 381.581 238.328 389.581 238.328 389.581Z" stroke="#EAEAE9" stroke-width="0.5" stroke-miterlimit="10"/>
<path d="M220.525 399.379L219.425 387.379C219.425 387.379 219.125 383.779 224.225 382.579C229.825 381.279 233.025 378.879 235.425 377.279C237.825 375.679 241.325 374.379 243.925 378.079C246.625 381.779 248.425 398.279 245.025 403.879C241.525 409.579 224.025 417.779 220.525 399.379Z" fill="#1A1A1A"/>
<path d="M220.525 399.379L219.425 387.379C219.425 387.379 219.125 383.779 224.225 382.579C229.825 381.279 233.025 378.879 235.425 377.279C237.825 375.679 241.325 374.379 243.925 378.079C246.625 381.779 248.425 398.279 245.025 403.879C241.525 409.579 224.025 417.779 220.525 399.379Z" stroke="#EAEAE9" stroke-width="0.5" stroke-miterlimit="10"/>
<path d="M196.627 405.28L196.327 394.88C196.327 394.88 195.027 390.38 199.527 389.58C205.827 388.48 210.927 387.48 213.627 385.88C216.327 384.28 221.327 383.98 221.627 390.68C221.927 397.38 224.827 413.58 211.827 416.18C198.427 418.88 197.427 411.18 196.627 405.28Z" fill="#1A1A1A"/>
<path d="M196.627 405.28L196.327 394.88C196.327 394.88 195.027 390.38 199.527 389.58C205.827 388.48 210.927 387.48 213.627 385.88C216.327 384.28 221.327 383.98 221.627 390.68C221.927 397.38 224.827 413.58 211.827 416.18C198.427 418.88 197.427 411.18 196.627 405.28Z" stroke="#EAEAE9" stroke-width="0.5" stroke-miterlimit="10"/>
<path d="M175.328 393.882V410.382C175.328 410.382 176.128 418.382 186.728 418.382C197.428 418.382 197.628 408.282 197.928 403.782C198.228 399.282 197.428 393.982 197.428 393.982C197.428 393.982 197.228 389.482 192.228 389.682C187.028 389.982 178.928 389.982 178.928 389.982C178.928 389.982 175.628 389.882 175.328 393.882Z" fill="#1A1A1A"/>
<path d="M175.125 393.882V410.382C175.125 410.382 176.025 418.382 186.725 418.382C197.425 418.382 197.625 408.282 197.925 403.782C198.225 399.282 197.425 393.982 197.425 393.982C197.425 393.982 197.225 389.482 192.225 389.682C187.025 389.982 178.925 389.982 178.925 389.982C178.925 389.982 175.425 389.882 175.125 393.882Z" stroke="#EAEAE9" stroke-width="0.5" stroke-miterlimit="10"/>
<path d="M297.425 319.38C296.925 316.98 293.125 315.38 290.725 314.88C285.425 313.58 281.725 314.88 280.125 307.98" fill="#1A1A1A"/>
<path d="M294.827 305.98C291.127 308.38 290.527 311.08 289.727 314.98C288.627 320.88 287.027 321.88 281.727 324.28" fill="#1A1A1A"/>
<path d="M286.526 333.98C283.626 335.58 284.126 340.381 282.026 342.781C278.326 346.781 271.626 344.881 268.426 348.081" fill="#1A1A1A"/>
<path d="M285.226 349.68C283.626 347.78 281.226 346.18 279.626 344.08C277.226 340.38 276.926 334.28 272.426 332.68" fill="#1A1A1A"/>
<path d="M273.527 356.281C274.627 361.581 265.527 361.381 265.027 364.581Z" fill="#1A1A1A"/>
<path d="M265.027 364.581C265.027 364.581 265.027 364.381 265.127 364.081C265.227 363.781 265.527 363.381 266.027 362.981C266.927 362.181 268.527 361.581 270.027 360.781C271.627 360.081 272.827 359.181 273.327 358.181C273.727 357.181 273.627 356.381 273.627 356.281C273.527 356.281 274.027 356.881 273.727 358.181C273.627 358.781 273.227 359.481 272.627 359.981C272.027 360.581 271.227 360.981 270.427 361.381C268.827 362.181 267.327 362.581 266.327 363.181C265.827 363.481 265.527 363.781 265.327 364.081C265.027 364.281 265.027 364.481 265.027 364.581Z" fill="#EAEAE9"/>
<path d="M260.726 369.383C259.126 370.483 257.526 369.883 255.626 370.183C251.126 370.983 249.726 373.083 248.426 377.083" fill="#1A1A1A"/>
<path d="M248.527 377.081C248.527 377.081 248.627 376.881 248.727 376.481C248.827 376.081 249.027 375.481 249.227 374.881C249.527 374.181 249.827 373.381 250.427 372.581C251.027 371.781 251.927 371.081 252.927 370.581C254.027 370.081 255.027 369.881 255.927 369.781C256.927 369.681 257.727 369.781 258.427 369.781C259.827 369.781 260.627 369.281 260.727 369.281C260.727 369.281 260.627 369.381 260.227 369.581C259.927 369.781 259.327 369.981 258.527 370.081C257.827 370.181 256.927 370.181 256.027 370.281C255.127 370.481 254.127 370.681 253.127 371.081C251.127 371.881 250.127 373.481 249.427 374.681C248.827 376.081 248.527 376.981 248.527 377.081Z" fill="#EAEAE9"/>
<path d="M76.8263 183.683C76.5263 185.983 75.8263 187.783 75.4263 189.083C74.7263 191.883 70.1263 195.983 65.4263 195.283C61.4263 194.683 59.4263 192.683 50.9263 193.683C42.4263 194.783 38.1263 186.583 37.4263 178.783C37.1263 175.983 37.7263 173.083 38.5263 170.383C40.0263 165.483 42.4263 161.483 42.4263 161.483C56.2263 156.183 71.5263 167.883 75.0263 174.583C76.9263 178.183 77.1263 181.183 76.8263 183.683Z" fill="#1A1A1A"/>
<path d="M76.8263 183.683C76.5263 185.983 75.8263 187.783 75.4263 189.083C74.7263 191.883 70.1263 195.983 65.4263 195.283C61.4263 194.683 59.4263 192.683 50.9263 193.683C42.4263 194.783 38.1263 186.583 37.4263 178.783C37.1263 175.983 37.7263 173.083 38.5263 170.383C40.0263 165.483 42.4263 161.483 42.4263 161.483C56.2263 156.183 71.5263 167.883 75.0263 174.583C76.9263 178.183 77.1263 181.183 76.8263 183.683Z" stroke="#EAEAE9" stroke-width="0.5" stroke-miterlimit="10"/>
<path d="M81.4281 174.581C80.3281 178.481 75.0281 185.181 69.7281 182.081C68.2281 181.181 66.8281 180.681 65.6281 180.381C62.4281 179.681 59.5281 180.481 55.2281 180.681C51.6281 180.881 49.9281 180.581 47.9281 179.181C46.6281 178.281 45.2281 176.781 43.1281 174.681C37.8281 169.381 40.6281 165.481 42.0281 157.681C42.7281 153.781 44.7281 150.181 46.5281 147.581C48.2281 145.181 49.6281 143.681 49.8281 143.481C51.5281 142.881 53.3281 142.881 55.4281 143.181C57.3281 143.481 59.3281 144.181 61.3281 144.981C61.6281 145.081 61.9281 145.181 62.2281 145.381C62.5281 145.481 62.8281 145.681 63.1281 145.781C65.6281 146.981 68.1281 148.381 70.4281 149.881C73.4281 151.781 76.2281 153.781 78.3281 155.181C81.5281 157.381 83.0281 160.981 83.6281 164.481C83.7281 165.181 83.8281 165.981 83.9281 166.681C84.1281 169.881 81.9281 172.881 81.4281 174.581Z" fill="#1A1A1A"/>
<path d="M81.4281 174.581C80.3281 178.481 75.0281 185.181 69.7281 182.081C68.2281 181.181 66.8281 180.681 65.6281 180.381C62.4281 179.681 59.5281 180.481 55.2281 180.681C51.6281 180.881 49.9281 180.581 47.9281 179.181C46.6281 178.281 45.2281 176.781 43.1281 174.681C37.8281 169.381 40.6281 165.481 42.0281 157.681C42.7281 153.781 44.7281 150.181 46.5281 147.581C48.2281 145.181 49.6281 143.681 49.8281 143.481C51.5281 142.881 53.3281 142.881 55.4281 143.181C57.3281 143.481 59.3281 144.181 61.3281 144.981C61.6281 145.081 61.9281 145.181 62.2281 145.381C62.5281 145.481 62.8281 145.681 63.1281 145.781C65.6281 146.981 68.1281 148.381 70.4281 149.881C73.4281 151.781 76.2281 153.781 78.3281 155.181C81.5281 157.381 83.0281 160.981 83.6281 164.481C83.7281 165.181 83.8281 165.981 83.9281 166.681C84.1281 169.881 81.9281 172.881 81.4281 174.581Z" stroke="#EAEAE9" stroke-width="0.5" stroke-miterlimit="10"/>
<path d="M92.3265 143.58C92.2265 144.78 92.1265 145.88 91.8265 146.88C91.4265 148.48 90.8265 149.78 89.9265 150.38C87.1265 152.48 87.1265 158.58 86.4265 162.08C85.7265 165.58 77.2265 166.68 72.9265 163.88C72.7265 163.78 72.5265 163.58 72.3265 163.48C68.6265 161.48 64.6265 162.58 60.8265 163.28C54.5265 164.38 49.2265 163.98 48.2265 144.38C47.6265 133.18 58.7265 122.28 62.7265 120.28C70.1265 118.08 76.4265 119.88 81.7265 124.08C85.3265 126.88 88.4265 130.78 91.0265 135.18C92.3265 137.28 92.5265 141.08 92.3265 143.58Z" fill="#1A1A1A"/>
<path d="M92.3265 143.58C92.2265 144.78 92.1265 145.88 91.8265 146.88C91.4265 148.48 90.8265 149.78 89.9265 150.38C87.1265 152.48 87.1265 158.58 86.4265 162.08C85.7265 165.58 77.2265 166.68 72.9265 163.88C72.7265 163.78 72.5265 163.58 72.3265 163.48C68.6265 161.48 64.6265 162.58 60.8265 163.28C54.5265 164.38 49.2265 163.98 48.2265 144.38C47.6265 133.18 58.7265 122.28 62.7265 120.28C70.1265 118.08 76.4265 119.88 81.7265 124.08C85.3265 126.88 88.4265 130.78 91.0265 135.18C92.3265 137.28 92.5265 141.08 92.3265 143.58Z" stroke="#EAEAE9" stroke-width="0.5" stroke-miterlimit="10"/>
<path d="M102.327 123.083C101.427 126.383 97.3269 126.783 95.8269 127.883C91.3269 131.283 94.7269 143.783 81.4269 137.783C77.4269 135.983 72.3269 137.183 68.2269 136.283C68.2269 136.283 66.5269 135.983 65.1269 134.983C57.9269 129.583 60.1269 97.8828 77.5269 97.8828C80.4269 97.8828 82.5269 98.7828 82.5269 98.7828C86.1269 99.0828 94.4269 103.383 97.4269 105.183C105.827 110.183 104.927 113.483 102.327 123.083Z" fill="#1A1A1A"/>
<path d="M102.327 123.083C101.427 126.383 97.3269 126.783 95.8269 127.883C91.3269 131.283 94.7269 143.783 81.4269 137.783C77.4269 135.983 72.3269 137.183 68.2269 136.283C68.2269 136.283 66.5269 135.983 65.1269 134.983C57.9269 129.583 60.1269 97.8828 77.5269 97.8828C80.4269 97.8828 82.5269 98.7828 82.5269 98.7828C86.1269 99.0828 94.4269 103.383 97.4269 105.183C105.827 110.183 104.927 113.483 102.327 123.083Z" stroke="#EAEAE9" stroke-width="0.5" stroke-miterlimit="10"/>
<path d="M61.225 119.582C61.125 120.582 61.125 121.482 61.125 122.382C61.125 121.482 61.125 120.582 61.225 119.582Z" fill="#1A1A1A"/>
<path d="M61.225 119.582C61.125 120.582 61.125 121.482 61.125 122.382C61.125 121.482 61.125 120.582 61.225 119.582Z" stroke="#EAEAE9" stroke-width="0.5" stroke-miterlimit="10"/>
<path d="M112.427 92.2797C112.427 94.1797 112.027 99.8797 110.927 104.98C110.927 105.08 110.927 105.08 110.827 105.18C110.427 107.08 109.827 108.98 109.127 110.48C108.927 110.88 108.827 111.18 108.627 111.48C108.227 112.28 107.827 112.98 107.427 113.68C107.027 114.38 106.727 115.08 106.327 115.68C105.727 116.68 105.227 117.68 104.627 118.58C104.527 118.78 104.427 118.98 104.327 119.08C104.227 119.28 104.127 119.48 103.927 119.58C103.627 119.98 103.427 120.28 103.127 120.68C103.027 120.78 102.927 120.98 102.727 121.08C102.527 121.28 102.327 121.48 102.027 121.68C101.927 121.78 101.827 121.78 101.827 121.88C101.327 122.28 100.827 122.48 100.227 122.58C100.127 122.58 100.027 122.58 99.8274 122.58C99.4274 122.58 98.9274 122.48 98.4274 122.28C94.5274 120.48 92.0274 121.18 85.6274 121.58C83.2274 121.68 81.3274 121.48 79.7274 120.78C79.2274 120.58 78.7274 120.28 78.2274 119.88C77.5274 119.28 76.9274 118.58 76.3274 117.88C68.9274 108.08 74.9274 87.3797 89.0274 83.6797C89.7274 83.4797 90.4274 83.5797 91.2274 83.5797C93.5274 83.5797 96.1274 84.1797 98.9274 85.1797C108.627 87.3797 112.427 92.2797 112.427 92.2797Z" fill="#1A1A1A"/>
<path d="M112.427 92.2797C112.427 94.1797 112.027 99.8797 110.927 104.98C110.927 105.08 110.927 105.08 110.827 105.18C110.427 107.08 109.827 108.98 109.127 110.48C108.927 110.88 108.827 111.18 108.627 111.48C108.227 112.28 107.827 112.98 107.427 113.68C107.027 114.38 106.727 115.08 106.327 115.68C105.727 116.68 105.227 117.68 104.627 118.58C104.527 118.78 104.427 118.98 104.327 119.08C104.227 119.28 104.127 119.48 103.927 119.58C103.627 119.98 103.427 120.28 103.127 120.68C103.027 120.78 102.927 120.98 102.727 121.08C102.527 121.28 102.327 121.48 102.027 121.68C101.927 121.78 101.827 121.78 101.827 121.88C101.327 122.28 100.827 122.48 100.227 122.58C100.127 122.58 100.027 122.58 99.8274 122.58C99.4274 122.58 98.9274 122.48 98.4274 122.28C94.5274 120.48 92.0274 121.18 85.6274 121.58C83.2274 121.68 81.3274 121.48 79.7274 120.78C79.2274 120.58 78.7274 120.28 78.2274 119.88C77.5274 119.28 76.9274 118.58 76.3274 117.88C68.9274 108.08 74.9274 87.3797 89.0274 83.6797C89.7274 83.4797 90.4274 83.5797 91.2274 83.5797C93.5274 83.5797 96.1274 84.1797 98.9274 85.1797C108.627 87.3797 112.427 92.2797 112.427 92.2797Z" stroke="#EAEAE9" stroke-width="0.5" stroke-miterlimit="10"/>
<path d="M116.327 90.5828C116.227 91.7828 116.127 92.8828 115.927 93.7828C115.927 93.9828 115.827 94.1828 115.827 94.3828C114.927 98.8828 113.127 99.6828 111.127 102.283C107.527 106.983 101.727 105.983 98.8274 103.783C98.0274 102.983 97.2275 102.083 96.4275 101.083C92.1275 95.1828 89.9274 85.5828 97.3274 76.6828C101.627 71.4828 104.027 69.8828 107.027 69.4828C108.027 69.3828 109.327 69.2828 110.627 69.5828C112.927 70.0828 115.227 71.4828 116.427 75.0828C117.627 78.1828 116.727 85.0828 116.327 90.5828Z" fill="#1A1A1A"/>
<path d="M116.327 90.5828C116.227 91.7828 116.127 92.8828 115.927 93.7828C115.927 93.9828 115.827 94.1828 115.827 94.3828C114.927 98.8828 113.127 99.6828 111.127 102.283C107.527 106.983 101.727 105.983 98.8274 103.783C98.0274 102.983 97.2275 102.083 96.4275 101.083C92.1275 95.1828 89.9274 85.5828 97.3274 76.6828C101.627 71.4828 104.027 69.8828 107.027 69.4828C108.027 69.3828 109.327 69.2828 110.627 69.5828C112.927 70.0828 115.227 71.4828 116.427 75.0828C117.627 78.1828 116.727 85.0828 116.327 90.5828Z" stroke="#EAEAE9" stroke-width="0.5" stroke-miterlimit="10"/>
<path d="M139.628 81.5806C139.228 87.9806 130.728 92.3806 121.728 93.2806C117.828 93.6806 115.728 92.8806 114.728 90.7806C113.628 88.5806 113.628 84.8805 113.928 79.3805C114.628 67.5805 119.428 59.4805 126.128 58.3805C128.728 57.9805 131.728 58.4806 134.228 59.7806C134.528 59.9806 134.828 60.1806 135.128 60.2806C137.728 61.9806 139.528 64.5805 139.328 67.8805C139.328 68.0805 140.028 75.2806 139.628 81.5806Z" fill="#1A1A1A"/>
<path d="M139.628 81.5806C139.228 87.9806 130.728 92.3806 121.728 93.2806C117.828 93.6806 115.728 92.8806 114.728 90.7806C113.628 88.5806 113.628 84.8805 113.928 79.3805C114.628 67.5805 119.428 59.4805 126.128 58.3805C128.728 57.9805 131.728 58.4806 134.228 59.7806C134.528 59.9806 134.828 60.1806 135.128 60.2806C137.728 61.9806 139.528 64.5805 139.328 67.8805C139.328 68.0805 140.028 75.2806 139.628 81.5806Z" stroke="#EAEAE9" stroke-width="0.5" stroke-miterlimit="10"/>
<path d="M175.127 64.2793C175.127 70.8793 175.027 75.3793 174.427 78.2793C173.627 82.2793 172.027 83.4793 168.727 83.4793C162.727 83.4793 152.427 84.2793 146.327 84.5793C139.527 84.8793 137.727 83.2793 137.527 79.0793C137.527 78.6793 137.527 78.2792 137.527 77.8792C137.527 72.1792 137.927 59.4792 141.027 53.3792C145.527 44.7792 159.627 42.9792 168.027 48.3792C175.127 52.8792 175.127 64.2793 175.127 64.2793Z" fill="#1A1A1A"/>
<path d="M175.127 64.2793C175.127 70.8793 175.027 75.3793 174.427 78.2793C173.627 82.2793 172.027 83.4793 168.727 83.4793C162.727 83.4793 152.427 84.2793 146.327 84.5793C139.527 84.8793 137.727 83.2793 137.527 79.0793C137.527 78.6793 137.527 78.2792 137.527 77.8792C137.527 72.1792 137.927 59.4792 141.027 53.3792C145.527 44.7792 159.627 42.9792 168.027 48.3792C175.127 52.8792 175.127 64.2793 175.127 64.2793Z" stroke="#EAEAE9" stroke-width="0.5" stroke-miterlimit="10"/>
<path d="M301.427 308.68C300.527 307.68 295.427 312.28 289.627 313.98C283.527 315.78 284.827 310.48 278.027 313.28" fill="#1A1A1A"/>
<path d="M63.0265 436.781C88.7265 465.081 128.226 476.381 160.926 478.781C161.526 479.081 164.626 479.281 174.926 479.281H175.026H175.126C185.426 479.281 188.526 478.981 189.126 478.781C221.826 476.281 261.326 465.081 287.026 436.781C318.626 401.981 333.127 338.481 331.327 259.381C329.527 180.281 322.426 126.381 299.426 76.6812C276.326 26.9812 246.227 8.88114 218.227 2.88114C190.827 -3.01886 186.126 4.98114 175.026 5.38114C163.926 4.98114 159.226 -3.01886 131.826 2.88114C103.826 8.88114 73.6265 26.9812 50.6265 76.6812C27.5265 126.381 20.4265 180.281 18.7265 259.381C16.8265 338.481 31.4265 401.981 63.0265 436.781ZM38.8265 158.281C52.3265 102.981 70.4265 80.9812 95.9265 55.0812C121.426 29.1812 159.826 28.0812 162.626 28.0812C165.426 28.0812 169.026 28.0812 171.126 30.5812C172.926 32.6812 174.526 32.4811 174.926 32.3811C175.326 32.4811 176.927 32.6812 178.727 30.5812C180.827 28.0812 184.427 28.0812 187.227 28.0812C190.027 28.0812 228.426 29.1812 253.926 55.0812C279.426 80.9812 297.526 102.981 311.026 158.281C324.526 213.581 325.526 256.881 323.426 276.081C321.326 295.281 312.426 354.881 296.126 384.681C279.826 414.381 240.426 449.681 174.926 449.981C109.426 449.681 71.5265 413.481 53.7265 384.681C36.8265 357.381 28.2265 296.581 26.4265 276.081C24.7265 256.881 25.3265 213.581 38.8265 158.281Z" fill="#1A1A1A"/>
<path d="M63.0265 436.781C88.7265 465.081 128.226 476.381 160.926 478.781C161.526 479.081 164.626 479.281 174.926 479.281H175.026H175.126C185.426 479.281 188.526 478.981 189.126 478.781C221.826 476.281 261.326 465.081 287.026 436.781C318.626 401.981 333.127 338.481 331.327 259.381C329.527 180.281 322.426 126.381 299.426 76.6812C276.326 26.9812 246.227 8.88114 218.227 2.88114C190.827 -3.01886 186.126 4.98114 175.026 5.38114C163.926 4.98114 159.226 -3.01886 131.826 2.88114C103.826 8.88114 73.6265 26.9812 50.6265 76.6812C27.5265 126.381 20.4265 180.281 18.7265 259.381C16.8265 338.481 31.4265 401.981 63.0265 436.781ZM38.8265 158.281C52.3265 102.981 70.4265 80.9812 95.9265 55.0812C121.426 29.1812 159.826 28.0812 162.626 28.0812C165.426 28.0812 169.026 28.0812 171.126 30.5812C172.926 32.6812 174.526 32.4811 174.926 32.3811C175.326 32.4811 176.927 32.6812 178.727 30.5812C180.827 28.0812 184.427 28.0812 187.227 28.0812C190.027 28.0812 228.426 29.1812 253.926 55.0812C279.426 80.9812 297.526 102.981 311.026 158.281C324.526 213.581 325.526 256.881 323.426 276.081C321.326 295.281 312.426 354.881 296.126 384.681C279.826 414.381 240.426 449.681 174.926 449.981C109.426 449.681 71.5265 413.481 53.7265 384.681C36.8265 357.381 28.2265 296.581 26.4265 276.081C24.7265 256.881 25.3265 213.581 38.8265 158.281Z" stroke="#EAEAE9" stroke-width="0.5" stroke-miterlimit="10"/>
<path d="M50.9258 190.38C55.3258 183.88 64.8258 190.28 70.1258 187.18Z" fill="#1A1A1A"/>
<path d="M70.1273 187.183C70.1273 187.183 70.0273 187.183 69.9273 187.283C69.8273 187.383 69.6273 187.483 69.4273 187.583C68.9273 187.783 68.2273 188.083 67.3273 188.183C65.4273 188.483 62.8273 188.183 60.1273 187.883C58.7273 187.683 57.4273 187.683 56.3273 187.683C55.1273 187.783 54.1273 187.983 53.3273 188.383C51.7273 189.183 51.1273 190.283 51.0273 190.283C51.0273 190.383 51.4273 189.183 53.0273 188.083C53.8273 187.583 54.9273 187.083 56.2273 186.983C57.5273 186.783 58.8273 186.883 60.3273 186.983C63.1273 187.283 65.5273 187.783 67.3273 187.683C68.9273 187.883 70.0273 187.283 70.1273 187.183Z" fill="#EAEAE9"/>
<path d="M53.9258 174.88C63.6258 174.98 66.0258 166.68 78.0258 172.88Z" fill="#1A1A1A"/>
<path d="M77.9281 172.881C77.9281 172.881 77.6281 172.781 77.0281 172.481C76.7281 172.381 76.3281 172.181 75.9281 172.081C75.5281 171.881 75.0281 171.781 74.4281 171.581C74.1281 171.481 73.9281 171.381 73.6281 171.381C73.3281 171.281 73.0281 171.281 72.7281 171.181C72.1281 170.981 71.4281 170.981 70.6281 170.881C69.1281 170.881 67.5281 171.081 65.9281 171.681C64.3281 172.281 62.8281 172.981 61.4281 173.481C60.0281 173.981 58.7281 174.481 57.6281 174.581C55.4281 174.981 54.0281 174.781 53.8281 174.781C53.8281 174.781 54.1281 174.781 54.7281 174.681C55.3281 174.681 56.2281 174.481 57.3281 174.281C58.4281 173.981 59.7281 173.581 61.1281 172.881C62.5281 172.281 64.0281 171.481 65.6281 170.881C67.3281 170.281 69.0281 170.081 70.5281 170.181C72.0281 170.381 73.3281 170.681 74.4281 171.081C74.9281 171.281 75.4281 171.481 75.8281 171.681C76.2281 171.881 76.5281 172.081 76.8281 172.181C77.5281 172.581 77.8281 172.781 77.9281 172.881Z" fill="#EAEAE9"/>
<path d="M61.5273 157.38C70.0273 159.28 74.3273 151.68 80.1273 148.48Z" fill="#1A1A1A"/>
<path d="M80.325 148.98C80.325 148.98 80.125 149.18 79.625 149.48C79.425 149.58 79.125 149.78 78.825 150.08C78.525 150.28 78.225 150.58 77.825 150.88C76.325 152.08 74.425 153.98 72.025 155.78C70.825 156.68 69.525 157.28 68.325 157.78C68.025 157.88 67.725 157.98 67.425 158.08C67.125 158.18 66.825 158.18 66.525 158.28C66.425 158.28 66.225 158.38 66.125 158.38C66.025 158.38 65.825 158.38 65.725 158.38C65.425 158.38 65.225 158.38 64.925 158.38C63.025 158.38 61.825 157.88 61.625 157.98C61.625 157.98 61.825 157.98 62.425 158.08C62.725 158.08 63.025 158.18 63.425 158.18C63.825 158.18 64.225 158.18 64.725 158.18C65.725 158.08 66.825 157.88 68.025 157.38C69.225 156.88 70.425 156.28 71.625 155.38C74.025 153.68 75.925 151.98 77.525 150.88C79.125 149.58 80.225 149.08 80.325 148.98Z" fill="#EAEAE9"/>
<path d="M73.9258 131.18C85.2258 134.18 85.7258 126.38 95.2258 129.38Z" fill="#1A1A1A"/>
<path d="M95.2258 129.382C95.2258 129.382 94.9258 129.282 94.4258 129.182C94.1258 129.182 93.8258 129.082 93.4258 128.982C93.0258 128.982 92.6258 128.882 92.1258 128.882C91.1258 128.882 90.0258 128.882 88.7258 129.282C87.5258 129.582 86.2258 130.282 84.8258 130.882C83.4258 131.482 82.0258 131.882 80.7258 132.082C79.4258 132.182 78.2258 132.182 77.2258 131.982C76.7258 131.882 76.3258 131.782 75.9258 131.782C75.5258 131.682 75.2258 131.582 74.9258 131.482C74.3258 131.282 74.0258 131.282 73.9258 131.182C73.9258 131.182 74.1258 131.182 74.7258 131.282C75.0258 131.282 75.3258 131.382 75.7258 131.482C76.1258 131.582 76.5258 131.582 77.0258 131.582C77.2258 131.582 77.5258 131.582 77.8258 131.582C78.1258 131.582 78.4258 131.582 78.6258 131.582C79.2258 131.582 79.8258 131.482 80.4258 131.382C81.7258 131.182 83.0258 130.682 84.4258 130.182C85.8258 129.582 87.1258 128.982 88.4258 128.682C89.7258 128.382 90.9258 128.382 91.9258 128.482C92.9258 128.682 93.7258 128.782 94.2258 128.982C94.8258 129.182 95.1258 129.382 95.2258 129.382Z" fill="#EAEAE9"/>
<path d="M85.4258 115.88C94.2258 117.18 94.8258 110.48 103.826 113.68Z" fill="#1A1A1A"/>
<path d="M103.826 113.683C103.826 113.683 103.526 113.583 103.126 113.483C102.926 113.383 102.626 113.383 102.226 113.283C101.926 113.283 101.526 113.183 101.126 113.083C100.726 112.983 100.226 113.083 99.7258 112.983C99.5258 112.983 99.2258 112.983 98.9258 112.983C98.6258 112.983 98.4258 112.983 98.1258 113.083C97.0258 113.283 95.9258 113.683 94.7258 114.183C93.5258 114.783 92.4258 115.283 91.3258 115.583C90.8258 115.783 90.2258 115.883 89.7258 115.883C89.2258 115.983 88.7258 115.983 88.3258 115.983C87.4258 115.983 86.8258 115.883 86.3258 115.783C85.8258 115.683 85.5258 115.683 85.4258 115.683C85.4258 115.683 85.6258 115.683 86.1258 115.683C86.3258 115.683 86.6258 115.683 87.0258 115.683C87.3258 115.683 87.7258 115.683 88.2258 115.583C88.6258 115.583 89.1258 115.483 89.6258 115.383C90.1258 115.283 90.6258 115.183 91.1258 114.983C92.2258 114.583 93.3258 114.083 94.5258 113.483C95.7258 112.883 96.9258 112.483 98.1258 112.383C98.4258 112.383 98.7258 112.383 98.9258 112.383C99.2258 112.383 99.4258 112.383 99.7258 112.383C100.226 112.483 100.726 112.483 101.126 112.583C101.526 112.683 101.926 112.783 102.226 112.883C102.526 112.983 102.826 113.083 103.026 113.183C103.526 113.583 103.826 113.683 103.826 113.683Z" fill="#EAEAE9"/>
<path d="M63.5273 296.182C63.5273 296.182 63.3273 295.882 62.9273 295.382C62.5273 294.882 61.9273 294.182 60.9273 293.582C60.0273 292.982 58.7273 292.382 57.3273 292.282C55.8273 292.182 54.2273 292.382 52.5273 292.582C51.6273 292.682 50.7273 292.782 49.9273 292.582C49.0273 292.482 48.2273 291.982 47.7273 291.482C47.2273 290.882 46.8273 290.282 46.4273 289.682C46.1273 289.082 45.8273 288.582 45.5273 288.182C44.9273 287.282 44.1273 286.782 43.6273 286.482C43.0273 286.182 42.6273 286.082 42.5273 286.082C42.5273 286.082 42.8273 286.082 43.4273 286.282C44.0273 286.482 44.9273 286.882 45.7273 287.782C46.5273 288.682 47.1273 289.982 48.1273 290.982C48.6273 291.482 49.3273 291.782 50.0273 291.882C50.8273 291.982 51.6273 291.982 52.4273 291.882C54.1273 291.682 55.8273 291.482 57.3273 291.682C58.8273 291.882 60.1273 292.482 61.0273 293.182C61.9273 293.882 62.5273 294.582 62.9273 295.182C63.3273 295.782 63.4273 296.082 63.5273 296.182Z" fill="#EAEAE9"/>
<path d="M59.0273 333.383C63.8273 334.283 65.6273 338.983 68.2273 340.883C72.8273 343.883 78.9273 339.883 83.0273 343.883" fill="#1A1A1A"/>
<path d="M83.1266 343.781C83.1266 343.781 82.8266 343.581 82.2266 343.181C81.6266 342.881 80.7266 342.381 79.5266 342.281C78.3266 342.081 76.8266 342.181 75.2266 342.381C74.4266 342.481 73.5266 342.481 72.6266 342.481C71.7266 342.481 70.7266 342.281 69.8266 341.981C69.6266 341.881 69.3266 341.781 69.1266 341.681C68.9266 341.581 68.7266 341.481 68.5266 341.281C68.3266 341.181 68.1266 340.981 67.9266 340.881C67.7266 340.781 67.5266 340.581 67.4266 340.381C66.7266 339.781 66.2266 339.081 65.7266 338.381C64.7266 337.081 63.8266 335.981 62.9266 335.181C62.0266 334.381 61.1266 333.881 60.4266 333.681C59.7266 333.381 59.3266 333.381 59.2266 333.281C59.2266 333.281 59.5266 333.281 60.2266 333.481C60.9266 333.681 61.9266 333.981 62.9266 334.781C64.0266 335.481 65.0266 336.681 66.1266 337.881C66.6266 338.481 67.2266 339.181 67.8266 339.781C68.0266 339.881 68.1266 340.081 68.3266 340.181C68.5266 340.281 68.6266 340.481 68.8266 340.581C69.0266 340.681 69.2266 340.781 69.4266 340.881L70.0266 341.081C71.7266 341.681 73.5266 341.581 75.1266 341.581C76.7266 341.481 78.2266 341.481 79.4266 341.781C80.6266 341.981 81.6266 342.481 82.1266 342.881C82.7266 343.381 83.0266 343.781 83.1266 343.781Z" fill="#EAEAE9"/>
<path d="M50.3281 308.68C51.2281 307.68 56.3281 312.28 62.1281 313.98C68.2281 315.78 66.9281 310.48 73.7281 313.28" fill="#1A1A1A"/>
<path d="M73.7258 313.281C73.7258 313.281 73.4258 313.181 72.8258 312.981C72.2258 312.781 71.3258 312.581 70.2258 312.581C69.9258 312.581 69.6258 312.681 69.4258 312.681C69.1258 312.781 68.8258 312.881 68.5258 312.981C67.9258 313.281 67.3258 313.681 66.6258 314.081C65.9258 314.381 65.0258 314.581 64.2258 314.581C63.3258 314.581 62.5258 314.381 61.6258 314.081C58.2258 312.981 55.6258 311.281 53.7258 310.081C52.8258 309.481 52.0258 308.981 51.4258 308.681C51.1258 308.581 50.8258 308.481 50.7258 308.481C50.5258 308.481 50.4258 308.581 50.4258 308.581C50.4258 308.581 50.4258 308.481 50.6258 308.481C50.7258 308.381 51.0258 308.381 51.3258 308.481C51.9258 308.681 52.8258 309.081 53.8258 309.581C55.8258 310.681 58.6258 312.281 61.9258 313.381C62.7258 313.681 63.5258 313.781 64.3258 313.881C65.1258 313.881 65.8258 313.781 66.4258 313.481C67.0258 313.181 67.6258 312.781 68.3258 312.581C68.9258 312.281 69.6258 312.181 70.1258 312.181C70.4258 312.181 70.7258 312.181 70.9258 312.281C71.2258 312.281 71.4258 312.381 71.6258 312.381C72.0258 312.481 72.4258 312.681 72.7258 312.781C73.3258 313.081 73.6258 313.181 73.7258 313.281Z" fill="#EAEAE9"/>
<path d="M80.9258 356.48C81.3258 357.38 81.6258 358.28 82.2258 358.98C82.8258 359.68 83.5258 360.081 84.4258 360.081C85.3258 360.281 86.4258 360.081 87.3258 360.781C88.2258 361.481 88.4258 362.58 88.5258 363.48C88.2258 362.58 87.8258 361.681 87.0258 361.281C86.3258 360.881 85.3258 360.98 84.3258 360.88C83.3258 360.78 82.2258 360.28 81.7258 359.38C81.1258 358.48 81.0258 357.48 80.9258 356.48Z" fill="#EAEAE9"/>
<path d="M280.125 187.183C280.125 187.183 280.225 187.183 280.325 187.283C280.425 187.383 280.625 187.483 280.825 187.583C281.325 187.783 282.025 188.083 282.925 188.183C284.825 188.483 287.425 188.183 290.125 187.883C291.525 187.683 292.825 187.683 293.925 187.683C295.125 187.783 296.125 187.983 296.925 188.383C298.525 189.183 299.125 190.283 299.225 190.283C299.225 190.383 298.825 189.183 297.225 188.083C296.425 187.583 295.325 187.083 294.025 186.983C292.725 186.783 291.425 186.883 289.925 186.983C287.125 187.283 284.725 187.783 282.925 187.683C281.325 187.883 280.225 187.283 280.125 187.183Z" fill="#EAEAE9"/>
<path d="M272.328 172.881C272.328 172.881 272.628 172.781 273.228 172.481C273.528 172.381 273.928 172.181 274.328 172.081C274.728 171.881 275.228 171.781 275.828 171.581C276.128 171.481 276.328 171.381 276.628 171.381C276.928 171.281 277.228 171.281 277.528 171.181C278.128 170.981 278.828 170.981 279.628 170.881C281.128 170.881 282.728 171.081 284.328 171.681C285.928 172.281 287.428 172.981 288.828 173.481C290.228 173.981 291.528 174.481 292.628 174.581C294.828 174.981 296.228 174.781 296.428 174.781C296.428 174.781 296.128 174.781 295.528 174.681C294.928 174.681 294.028 174.481 292.928 174.281C291.828 173.981 290.528 173.581 289.128 172.881C287.728 172.281 286.228 171.481 284.628 170.881C282.928 170.281 281.228 170.081 279.728 170.181C278.228 170.381 276.928 170.681 275.828 171.081C275.328 171.281 274.828 171.481 274.428 171.681C274.028 171.881 273.728 172.081 273.428 172.181C272.728 172.581 272.328 172.781 272.328 172.881Z" fill="#EAEAE9"/>
<path d="M269.926 148.98C269.926 148.98 270.126 149.18 270.626 149.48C270.826 149.58 271.126 149.78 271.426 150.08C271.726 150.28 272.026 150.58 272.426 150.88C273.926 152.08 275.826 153.98 278.226 155.78C279.426 156.68 280.726 157.28 281.926 157.78C282.226 157.88 282.526 157.98 282.826 158.08C283.126 158.18 283.426 158.18 283.726 158.28C283.826 158.28 284.026 158.38 284.126 158.38C284.226 158.38 284.426 158.38 284.526 158.38C284.826 158.38 285.026 158.38 285.326 158.38C287.226 158.38 288.426 157.88 288.626 157.98C288.626 157.98 288.426 157.98 287.826 158.08C287.526 158.08 287.226 158.18 286.826 158.18C286.426 158.18 286.026 158.18 285.526 158.18C284.526 158.08 283.426 157.88 282.226 157.38C281.026 156.88 279.826 156.28 278.626 155.38C276.226 153.68 274.326 151.98 272.726 150.88C271.126 149.58 270.026 149.08 269.926 148.98Z" fill="#EAEAE9"/>
<path d="M255.027 129.382C255.027 129.382 255.327 129.282 255.827 129.182C256.127 129.182 256.427 129.082 256.827 128.982C257.227 128.982 257.627 128.882 258.127 128.882C259.127 128.882 260.227 128.882 261.527 129.282C262.727 129.582 264.027 130.282 265.427 130.882C266.827 131.482 268.227 131.882 269.527 132.082C270.827 132.182 272.027 132.182 273.027 131.982C273.527 131.882 273.927 131.782 274.327 131.782C274.727 131.682 275.027 131.582 275.327 131.482C275.927 131.282 276.227 131.282 276.327 131.182C276.327 131.182 276.127 131.182 275.527 131.282C275.227 131.282 274.927 131.382 274.527 131.482C274.127 131.582 273.727 131.582 273.227 131.582C273.027 131.582 272.727 131.582 272.427 131.582C272.127 131.582 271.827 131.582 271.627 131.582C271.027 131.582 270.427 131.482 269.827 131.382C268.527 131.182 267.227 130.682 265.827 130.182C264.427 129.582 263.127 128.982 261.827 128.682C260.527 128.382 259.327 128.382 258.327 128.482C257.327 128.682 256.527 128.782 256.027 128.982C255.427 129.182 255.127 129.382 255.027 129.382Z" fill="#EAEAE9"/>
<path d="M246.426 113.683C246.426 113.683 246.726 113.583 247.126 113.483C247.326 113.383 247.626 113.383 248.026 113.283C248.326 113.283 248.726 113.183 249.126 113.083C249.526 112.983 250.026 113.083 250.526 112.983C250.726 112.983 251.026 112.983 251.326 112.983C251.626 112.983 251.826 112.983 252.126 113.083C253.226 113.283 254.326 113.683 255.526 114.183C256.726 114.783 257.826 115.283 258.926 115.583C259.426 115.783 260.026 115.883 260.526 115.883C261.026 115.983 261.526 115.983 261.926 115.983C262.826 115.983 263.426 115.883 263.926 115.783C264.426 115.683 264.726 115.683 264.826 115.683C264.826 115.683 264.626 115.683 264.126 115.683C263.926 115.683 263.626 115.683 263.226 115.683C262.926 115.683 262.526 115.683 262.026 115.583C261.626 115.583 261.126 115.483 260.626 115.383C260.126 115.283 259.626 115.183 259.126 114.983C258.026 114.583 256.926 114.083 255.726 113.483C254.526 112.883 253.326 112.483 252.126 112.383C251.826 112.383 251.526 112.383 251.326 112.383C251.026 112.383 250.826 112.383 250.526 112.383C250.026 112.483 249.526 112.483 249.126 112.583C248.726 112.683 248.326 112.783 248.026 112.883C247.726 112.983 247.426 113.083 247.226 113.183C246.726 113.583 246.426 113.683 246.426 113.683Z" fill="#EAEAE9"/>
<path d="M286.727 296.182C286.727 296.182 286.927 295.882 287.327 295.382C287.727 294.882 288.327 294.182 289.327 293.582C290.227 292.982 291.527 292.382 292.927 292.282C294.427 292.182 296.027 292.382 297.727 292.582C298.627 292.682 299.527 292.782 300.327 292.582C301.227 292.482 302.027 291.982 302.527 291.482C303.027 290.882 303.427 290.282 303.827 289.682C304.127 289.082 304.427 288.582 304.727 288.182C305.327 287.282 306.127 286.782 306.627 286.482C307.227 286.182 307.627 286.082 307.727 286.082C307.727 286.082 307.427 286.082 306.827 286.282C306.227 286.482 305.327 286.882 304.527 287.782C303.727 288.682 303.127 289.982 302.127 290.982C301.627 291.482 300.927 291.782 300.227 291.882C299.427 291.982 298.627 291.982 297.827 291.882C296.127 291.682 294.427 291.482 292.927 291.682C291.427 291.882 290.127 292.482 289.227 293.182C288.327 293.882 287.727 294.582 287.327 295.182C286.927 295.782 286.727 296.082 286.727 296.182Z" fill="#EAEAE9"/>
<path d="M267.125 343.781C267.125 343.781 267.425 343.581 268.025 343.181C268.625 342.881 269.525 342.381 270.725 342.281C271.925 342.081 273.425 342.181 275.025 342.381C275.825 342.481 276.725 342.481 277.625 342.481C278.525 342.481 279.525 342.281 280.425 341.981C280.625 341.881 280.925 341.781 281.125 341.681C281.325 341.581 281.525 341.481 281.725 341.281C281.925 341.181 282.125 340.981 282.325 340.881C282.525 340.781 282.725 340.581 282.825 340.381C283.525 339.781 284.025 339.081 284.525 338.381C285.525 337.081 286.425 335.981 287.325 335.181C288.225 334.381 289.125 333.881 289.825 333.681C290.525 333.381 290.925 333.381 291.025 333.281C291.025 333.281 290.725 333.281 290.025 333.481C289.325 333.681 288.325 333.981 287.325 334.781C286.225 335.481 285.225 336.681 284.125 337.881C283.625 338.481 283.025 339.181 282.425 339.781C282.225 339.881 282.125 340.081 281.925 340.181C281.725 340.281 281.625 340.481 281.425 340.581C281.225 340.681 281.025 340.781 280.825 340.881L280.225 341.081C278.525 341.681 276.725 341.581 275.125 341.581C273.525 341.481 272.025 341.481 270.825 341.781C269.625 341.981 268.625 342.481 268.125 342.881C267.525 343.381 267.225 343.781 267.125 343.781Z" fill="#EAEAE9"/>
<path d="M276.426 313.281C276.426 313.281 276.726 313.181 277.326 312.981C277.926 312.781 278.826 312.581 279.926 312.581C280.226 312.581 280.526 312.681 280.726 312.681C281.026 312.781 281.326 312.881 281.626 312.981C282.226 313.281 282.826 313.681 283.526 314.081C284.226 314.381 285.126 314.581 285.926 314.581C286.826 314.581 287.626 314.381 288.526 314.081C291.926 312.981 294.526 311.281 296.426 310.081C297.326 309.481 298.126 308.981 298.726 308.681C299.026 308.581 299.326 308.481 299.426 308.481C299.626 308.481 299.726 308.581 299.726 308.581C299.726 308.581 299.726 308.481 299.526 308.481C299.426 308.381 299.126 308.381 298.826 308.481C298.226 308.681 297.326 309.081 296.326 309.581C294.326 310.681 291.526 312.281 288.226 313.381C287.426 313.681 286.626 313.781 285.826 313.881C285.026 313.881 284.326 313.781 283.726 313.481C283.126 313.181 282.526 312.781 281.826 312.581C281.226 312.281 280.526 312.181 280.026 312.181C279.726 312.181 279.426 312.181 279.226 312.281C278.926 312.281 278.726 312.381 278.526 312.381C278.126 312.481 277.726 312.681 277.426 312.781C276.926 313.081 276.526 313.181 276.426 313.281Z" fill="#EAEAE9"/>
</svg>
