<svg width="78" height="60" viewBox="0 0 78 60" fill="none" xmlns="http://www.w3.org/2000/svg">
<path d="M76.9999 44.501C72.0323 47.9332 66.1749 49.8489 60.0951 50.8865C57.9449 51.2856 55.943 51.3654 53.7187 51.3654C53.6445 51.3654 53.7187 51.3654 53.6445 51.3654C41.4849 51.2856 30.1408 46.4167 22.3556 37.6366C19.9089 34.843 17.7587 31.7301 15.9792 28.3777" stroke="#3A97C9" stroke-width="2" stroke-miterlimit="10" stroke-linecap="round" stroke-linejoin="round"/>
<path d="M27.1006 16.405C24.5797 22.5511 27.323 30.4531 32.7356 34.8431C37.9257 38.9937 48.6024 36.5193 52.2355 46.337" stroke="#3A97C9" stroke-width="2" stroke-miterlimit="10" stroke-linecap="round" stroke-linejoin="round"/>
<path d="M50.6025 56.7931C46.6728 58.3895 44.6709 58.4693 40.2223 58.4693C21.1672 58.3895 2.18631 41.5478 1.07414 21.2739C1.07414 20.6354 1 19.917 1 19.2784C1.07414 14.0104 3.07604 9.22131 6.33838 5.70929C6.78325 5.23038 7.30226 4.75147 7.74712 4.35238C8.63685 3.55419 9.52658 2.91564 10.5646 2.35691C10.6387 2.35691 10.7129 2.2771 10.787 2.2771C11.0095 2.19728 11.1578 2.03764 11.3802 1.95782C12.5665 1.31927 13.9752 1 15.384 1H15.4581C19.9068 1 22.576 3.31474 23.6881 7.94421C24.5779 11.6159 23.6881 15.0481 21.7604 17.5224" stroke="#3A97C9" stroke-width="2" stroke-miterlimit="10" stroke-linecap="round" stroke-linejoin="round"/>
</svg>
