<?xml version="1.0" encoding="utf-8"?>
<!-- Generator: Adobe Illustrator 16.0.3, SVG Export Plug-In . SVG Version: 6.00 Build 0)  -->
<!DOCTYPE svg PUBLIC "-//W3C//DTD SVG 1.1 Tiny//EN" "http://www.w3.org/Graphics/SVG/1.1/DTD/svg11-tiny.dtd">
<svg version="1.1" baseProfile="tiny" id="cart_svg" xmlns="http://www.w3.org/2000/svg" xmlns:xlink="http://www.w3.org/1999/xlink"
	 x="0px" y="0px" width="90px" height="80px" viewBox="0 0 90 80" xml:space="preserve">
<g>
	<path fill-rule="evenodd" fill="#5AB3E4" d="M3.489,7.503c8.985-4.197,17.715-2.973,19.223,6.977
		c1.462,9.647,4.619,19.029,6.839,28.573c0.756,3.25,2.094,4.686,5.717,4.594c10.481-0.262,20.975-0.24,31.459-0.041
		c3.308,0.063,4.813-1.162,5.544-4.217c1.353-5.652,2.636-11.346,4.47-16.848c1.17-3.51-0.022-3.903-3.043-3.877
		c-12.818,0.113-25.637,0.075-38.455,0.077c-1.328,0-2.685,0.048-3.979-0.191c-2.41-0.446-2.281-2.688-2.512-4.355
		c-0.348-2.522,1.821-1.854,3.111-1.858c16.813-0.049,33.627-0.014,50.441-0.064c1.578-0.005,2.906,0.422,4.184,1.232c0,2,0,4,0,6
		c-1.187,0.438-1.713,1.309-2.059,2.528c-1.887,6.661-4.068,13.244-5.75,19.955c-1.101,4.395-2.786,7.938-8.288,8.957
		c4.667,3.936,8.71,7.51,6.004,13.828c-1.401,3.271-3.97,5.141-6.907,6.732c-2,0-4,0-6,0c-3.497-2.477-6.914-4.752-7.258-9.844
		c-0.35-5.213,3.129-7.842,6.595-10.754c-8.196,0-15.821,0-23.856,0c7.309,6.393,8.501,11.719,3.963,16.779
		c-1.293,1.441-2.952,2.555-4.443,3.818c-2.333,0-4.667,0-7,0c-2.837-2.447-6.13-4.496-6.835-8.668
		c-0.952-5.633,2.363-8.949,6.918-12.125c-5.483-0.611-7.328-3.881-8.364-8.355c-2.313-9.987-5.166-19.851-7.407-29.853
		c-0.753-3.363-2.249-4.427-5.395-4.063c-2.542,0.294-4.96-0.047-6.918-1.936C3.489,9.503,3.489,8.503,3.489,7.503z M70.276,64.891
		c-0.521-1.826-1.566-3.258-3.719-3.256c-1.96,0-3.054,1.193-3.139,3.133c-0.094,2.143,0.913,3.598,3.143,3.635
		C68.71,68.439,69.776,66.986,70.276,64.891z M38.522,65.004c-0.325-1.836-1.361-3.279-3.449-3.344
		c-1.84-0.059-3.171,1.152-3.402,2.945c-0.274,2.125,1.076,3.496,3.067,3.738C36.87,68.604,37.972,67.158,38.522,65.004z"/>
</g>
</svg>
